G04 EAGLE Gerber RS-274X export*
G75*
%MOMM*%
%FSLAX34Y34*%
%LPD*%
%INSoldermask Bottom*%
%IPPOS*%
%AMOC8*
5,1,8,0,0,1.08239X$1,22.5*%
G01*
%ADD10C,1.524000*%
%ADD11C,2.133600*%
%ADD12P,2.034460X8X292.500000*%
%ADD13C,1.727200*%
%ADD14P,3.629037X8X292.500000*%
%ADD15C,3.352800*%
%ADD16C,2.743200*%
%ADD17P,2.969212X8X22.500000*%
%ADD18P,2.034460X8X22.500000*%
%ADD19P,2.034460X8X112.500000*%
%ADD20P,1.649562X8X22.500000*%
%ADD21P,1.649562X8X112.500000*%
%ADD22C,1.993900*%
%ADD23R,1.711200X1.711200*%
%ADD24C,1.203200*%
%ADD25C,4.303200*%
%ADD26P,2.969212X8X292.500000*%
%ADD27C,1.703200*%


D10*
X220980Y782320D02*
X220980Y795528D01*
X195580Y795528D02*
X195580Y782320D01*
X195580Y706120D02*
X195580Y692912D01*
X220980Y692912D02*
X220980Y706120D01*
X170180Y782320D02*
X170180Y795528D01*
X170180Y706120D02*
X170180Y692912D01*
D11*
X419100Y685800D03*
X520700Y685800D03*
X520700Y800100D03*
X419100Y800100D03*
X419100Y723900D03*
X520700Y723900D03*
X520700Y762000D03*
X419100Y762000D03*
D12*
X279400Y800100D03*
X279400Y698500D03*
X195580Y568960D03*
X195580Y467360D03*
D11*
X419100Y838200D03*
X520700Y838200D03*
X520700Y952500D03*
X419100Y952500D03*
X419100Y876300D03*
X520700Y876300D03*
X520700Y914400D03*
X419100Y914400D03*
D13*
X-22860Y949960D02*
X-38100Y949960D01*
X-38100Y924560D02*
X-22860Y924560D01*
X-22860Y899160D02*
X-38100Y899160D01*
D14*
X203200Y863600D03*
D15*
X203200Y939800D03*
D16*
X33020Y762000D03*
D17*
X83820Y762000D03*
D18*
X55880Y15240D03*
X81280Y15240D03*
D19*
X63500Y101600D03*
X63500Y203200D03*
D10*
X355092Y495300D02*
X368300Y495300D01*
X368300Y469900D02*
X355092Y469900D01*
X444500Y469900D02*
X457708Y469900D01*
X457708Y495300D02*
X444500Y495300D01*
X368300Y444500D02*
X355092Y444500D01*
X444500Y444500D02*
X457708Y444500D01*
D13*
X698500Y452120D02*
X698500Y436880D01*
X673100Y436880D02*
X673100Y452120D01*
X647700Y452120D02*
X647700Y436880D01*
D18*
X317500Y368300D03*
X419100Y368300D03*
D20*
X480060Y612140D03*
X632460Y612140D03*
X480060Y561340D03*
X632460Y561340D03*
D21*
X881380Y355600D03*
X881380Y508000D03*
D10*
X368300Y203200D02*
X355092Y203200D01*
X355092Y177800D02*
X368300Y177800D01*
X444500Y177800D02*
X457708Y177800D01*
X457708Y203200D02*
X444500Y203200D01*
X368300Y152400D02*
X355092Y152400D01*
X444500Y152400D02*
X457708Y152400D01*
D13*
X698500Y160020D02*
X698500Y144780D01*
X673100Y144780D02*
X673100Y160020D01*
X647700Y160020D02*
X647700Y144780D01*
D18*
X317500Y317500D03*
X419100Y317500D03*
D20*
X482600Y228600D03*
X635000Y228600D03*
X482600Y190500D03*
X635000Y190500D03*
D21*
X889000Y33020D03*
X889000Y185420D03*
D10*
X482600Y342900D02*
X469392Y342900D01*
X469392Y317500D02*
X482600Y317500D01*
X558800Y317500D02*
X572008Y317500D01*
X572008Y342900D02*
X558800Y342900D01*
X482600Y292100D02*
X469392Y292100D01*
X558800Y292100D02*
X572008Y292100D01*
D13*
X698500Y287020D02*
X698500Y271780D01*
X673100Y271780D02*
X673100Y287020D01*
X647700Y287020D02*
X647700Y271780D01*
D18*
X317500Y342900D03*
X419100Y342900D03*
D20*
X596900Y368300D03*
X749300Y368300D03*
X596900Y330200D03*
X749300Y330200D03*
D18*
X121920Y15240D03*
X147320Y15240D03*
D19*
X152400Y101600D03*
X152400Y203200D03*
D18*
X259080Y15240D03*
X284480Y15240D03*
D19*
X228600Y101600D03*
X228600Y203200D03*
D18*
X195580Y15240D03*
X220980Y15240D03*
D19*
X190500Y101600D03*
X190500Y203200D03*
D22*
X1007047Y507600D02*
X1024954Y507600D01*
X1024954Y457600D02*
X1007047Y457600D01*
X1007047Y406000D02*
X1024954Y406000D01*
X1024954Y356000D02*
X1007047Y356000D01*
X1007047Y304400D02*
X1024954Y304400D01*
X1024954Y254400D02*
X1007047Y254400D01*
X1007047Y202800D02*
X1024954Y202800D01*
X1024954Y152800D02*
X1007047Y152800D01*
D19*
X317500Y698500D03*
X317500Y800100D03*
D23*
X-7620Y546100D03*
X-7620Y520700D03*
X-7620Y495300D03*
X-7620Y469900D03*
X-7620Y444500D03*
X-7620Y419100D03*
X-7620Y393700D03*
X-7620Y368300D03*
X-7620Y342900D03*
X-7620Y317500D03*
X-7620Y292100D03*
X-7620Y266700D03*
X-7620Y241300D03*
X-7620Y215900D03*
X-7620Y190500D03*
X271780Y546100D03*
X271780Y520700D03*
X271780Y495300D03*
X271780Y469900D03*
X271780Y444500D03*
X271780Y419100D03*
X271780Y393700D03*
X271780Y368300D03*
X271780Y342900D03*
X271780Y317500D03*
X271780Y292100D03*
X271780Y266700D03*
X271780Y241300D03*
X271780Y215900D03*
X271780Y190500D03*
D24*
X271780Y635000D03*
X271780Y88900D03*
X-7620Y88900D03*
X-7620Y635000D03*
D25*
X1016000Y63500D03*
X-38100Y66040D03*
X1016000Y939800D03*
X-35560Y782320D03*
D22*
X1007047Y609200D02*
X1024954Y609200D01*
X1024954Y559200D02*
X1007047Y559200D01*
X1007047Y710800D02*
X1024954Y710800D01*
X1024954Y660800D02*
X1007047Y660800D01*
D16*
X543560Y485140D03*
D26*
X543560Y434340D03*
D16*
X530860Y121920D03*
D26*
X530860Y71120D03*
D16*
X782320Y213360D03*
D17*
X833120Y213360D03*
D16*
X767080Y508000D03*
D17*
X817880Y508000D03*
D27*
X939800Y391160D03*
X939800Y317500D03*
X939800Y177800D03*
X939800Y289560D03*
X939800Y215900D03*
M02*
