M48
;GenerationSoftware,Autodesk,EAGLE,9.2.2*%
;CreationDate,2018-12-10T06:45:17Z*%
FMAT,2
ICI,OFF
METRIC,TZ,000.000
T6C0.813
T5C1.000
T4C1.016
T3C1.118
T2C1.194
T1C4.100
%
G90
M71
T1
X101600Y6350
X-3810Y6604
X101600Y93980
X-3556Y78232
T2
X101600Y66080
X101600Y15280
X101600Y20280
X101600Y25440
X101600Y30440
X101600Y40600
X101600Y45760
X101600Y60920
X101600Y71080
X101600Y55920
X101600Y35600
X101600Y50760
T3
X41910Y95250
X41910Y87630
X52070Y87630
X52070Y91440
X41910Y91440
X52070Y68580
X41910Y68580
X41910Y80010
X41910Y72390
X52070Y72390
X52070Y76200
X41910Y76200
X52070Y80010
X41910Y83820
X52070Y83820
X52070Y95250
T4
X69850Y44450
X67310Y44450
X64770Y44450
X53086Y12192
X54356Y43434
X-3048Y92456
X69850Y15240
X-3048Y94996
X67310Y15240
X81788Y50800
X20320Y86360
X20320Y93980
X3302Y76200
X8382Y76200
X64770Y15240
X54356Y48514
X-3048Y89916
X64770Y27940
X67310Y27940
X69850Y27940
X76708Y50800
X83312Y21336
X78232Y21336
X53086Y7112
T5
X93980Y31750
X93980Y17780
X93980Y28956
X93980Y21590
X27178Y63500
X27178Y8890
X-762Y8890
X-762Y63500
X-762Y19050
X27178Y54610
X27178Y52070
X27178Y49530
X27178Y46990
X27178Y44450
X27178Y41910
X27178Y36830
X27178Y34290
X27178Y31750
X93980Y39116
X27178Y29210
X27178Y26670
X27178Y24130
X27178Y21590
X27178Y19050
X27178Y39370
X-762Y52070
X-762Y54610
X-762Y49530
X-762Y46990
X-762Y44450
X-762Y41910
X-762Y39370
X-762Y36830
X-762Y34290
X-762Y31750
X-762Y29210
X-762Y26670
X-762Y24130
X-762Y21590
T6
X22098Y78232
X19558Y78232
X19558Y70612
X22098Y70612
X17018Y78232
X17018Y70612
X27940Y80010
X27940Y69850
X19558Y56896
X19558Y46736
X5588Y1524
X8128Y1524
X6350Y10160
X6350Y20320
X36830Y49530
X36830Y46990
X41910Y31750
X31750Y31750
X44450Y15240
X36830Y15240
X44450Y20320
X44450Y17780
X36830Y17780
X36830Y20320
X31750Y69850
X31750Y80010
X88900Y3302
X88138Y50800
X88900Y18542
X48260Y34290
X48260Y31750
X55880Y31750
X55880Y34290
X48260Y29210
X55880Y29210
X48260Y19050
X63500Y22860
X48260Y22860
X31750Y34290
X41910Y34290
X59690Y36830
X74930Y36830
X59690Y33020
X74930Y33020
X12192Y1524
X14732Y1524
X15240Y10160
X63500Y19050
X15240Y20320
X25908Y1524
X28448Y1524
X22860Y10160
X22860Y20320
X19558Y1524
X22098Y1524
X19050Y10160
X88138Y35560
X63246Y56134
X48006Y56134
X63246Y61214
X48006Y61214
X41910Y36830
X31750Y36830
X44450Y44450
X36830Y44450
X44450Y49530
X44450Y46990
X19050Y20320
M30