0
SECTION
2
HEADER
9
$ANGDIR
70
1
9
$AUNITS
70
0
9
$PROJECTNAME
1
iotssb
9
$TDCREATE
40
2458462.78145106
9
$INSUNITS
70
4
0
ENDSEC
0
SECTION
2
ENTITIES
0
POLYLINE
66
1
8
outline
10
0.0
20
0.0
30
0.0
70
1
0
VERTEX
8
0
10
-10.922
20
-2.032
30
0
0
VERTEX
8
0
10
107.93
20
-1.778
30
0
0
VERTEX
8
0
10
107.93
20
100
30
0
0
VERTEX
8
0
10
-10.922
20
99.74600000000001
30
0
0
VERTEX
8
0
10
-10.922
20
-2.032
30
0
0
SEQEND
0
POLYLINE
66
1
8
holes
10
0.0
20
0.0
30
0.0
70
1
0
VERTEX
8
0
10
27.149921875
20
63
30
0
0
VERTEX
8
0
10
27.094115625
20
63.006287500000006
30
0
0
VERTEX
8
0
10
27.039365625000002
20
63.018784375
30
0
0
VERTEX
8
0
10
26.98635625
20
63.03733125
30
0
0
VERTEX
8
0
10
26.935759375
20
63.0617
30
0
0
VERTEX
8
0
10
26.888209375000002
20
63.091578125000005
30
0
0
VERTEX
8
0
10
26.844303125
20
63.126590625000006
30
0
0
VERTEX
8
0
10
26.804590625000003
20
63.166303125000006
30
0
0
VERTEX
8
0
10
26.769578125000002
20
63.210209375000005
30
0
0
VERTEX
8
0
10
26.739700000000003
20
63.257759375000006
30
0
0
VERTEX
8
0
10
26.715331250000002
20
63.30835625
30
0
0
VERTEX
8
0
10
26.696784375
20
63.361365625000005
30
0
0
VERTEX
8
0
10
26.6842875
20
63.416115625
30
0
0
VERTEX
8
0
10
26.678
20
63.471921875
30
0
0
VERTEX
8
0
10
26.678
20
63.528078125
30
0
0
VERTEX
8
0
10
26.6842875
20
63.583884375000004
30
0
0
VERTEX
8
0
10
26.696784375
20
63.638634375
30
0
0
VERTEX
8
0
10
26.715331250000002
20
63.691643750000004
30
0
0
VERTEX
8
0
10
26.739700000000003
20
63.742240625
30
0
0
VERTEX
8
0
10
26.769578125000002
20
63.789790625
30
0
0
VERTEX
8
0
10
26.804590625000003
20
63.833696875
30
0
0
VERTEX
8
0
10
26.844303125
20
63.873409375
30
0
0
VERTEX
8
0
10
26.888209375000002
20
63.908421875
30
0
0
VERTEX
8
0
10
26.935759375
20
63.938300000000005
30
0
0
VERTEX
8
0
10
26.98635625
20
63.962668750000006
30
0
0
VERTEX
8
0
10
27.039365625000002
20
63.981215625000004
30
0
0
VERTEX
8
0
10
27.094115625
20
63.9937125
30
0
0
VERTEX
8
0
10
27.149921875
20
64
30
0
0
VERTEX
8
0
10
27.206078125
20
64
30
0
0
VERTEX
8
0
10
27.261884375
20
63.9937125
30
0
0
VERTEX
8
0
10
27.316634375
20
63.981215625000004
30
0
0
VERTEX
8
0
10
27.36964375
20
63.962668750000006
30
0
0
VERTEX
8
0
10
27.420240625
20
63.938300000000005
30
0
0
VERTEX
8
0
10
27.467790625000003
20
63.908421875
30
0
0
VERTEX
8
0
10
27.511696875000002
20
63.873409375
30
0
0
VERTEX
8
0
10
27.551409375000002
20
63.833696875
30
0
0
VERTEX
8
0
10
27.586421875000003
20
63.789790625
30
0
0
VERTEX
8
0
10
27.616300000000003
20
63.742240625
30
0
0
VERTEX
8
0
10
27.64066875
20
63.691643750000004
30
0
0
VERTEX
8
0
10
27.659215625
20
63.638634375
30
0
0
VERTEX
8
0
10
27.6717125
20
63.583884375000004
30
0
0
VERTEX
8
0
10
27.678
20
63.528078125
30
0
0
VERTEX
8
0
10
27.678
20
63.471921875
30
0
0
VERTEX
8
0
10
27.6717125
20
63.416115625
30
0
0
VERTEX
8
0
10
27.659215625
20
63.361365625000005
30
0
0
VERTEX
8
0
10
27.64066875
20
63.30835625
30
0
0
VERTEX
8
0
10
27.616300000000003
20
63.257759375000006
30
0
0
VERTEX
8
0
10
27.586421875000003
20
63.210209375000005
30
0
0
VERTEX
8
0
10
27.551409375000002
20
63.166303125000006
30
0
0
VERTEX
8
0
10
27.511696875000002
20
63.126590625000006
30
0
0
VERTEX
8
0
10
27.467790625000003
20
63.091578125000005
30
0
0
VERTEX
8
0
10
27.420240625
20
63.0617
30
0
0
VERTEX
8
0
10
27.36964375
20
63.03733125
30
0
0
VERTEX
8
0
10
27.316634375
20
63.018784375
30
0
0
VERTEX
8
0
10
27.261884375
20
63.006287500000006
30
0
0
VERTEX
8
0
10
27.206078125
20
63
30
0
0
VERTEX
8
0
10
27.149921875
20
63
30
0
0
SEQEND
0
POLYLINE
66
1
8
holes
10
0.0
20
0.0
30
0.0
70
1
0
VERTEX
8
0
10
27.149921875
20
8.39
30
0
0
VERTEX
8
0
10
27.094115625
20
8.3962875
30
0
0
VERTEX
8
0
10
27.039365625000002
20
8.408784375
30
0
0
VERTEX
8
0
10
26.98635625
20
8.42733125
30
0
0
VERTEX
8
0
10
26.935759375
20
8.4517
30
0
0
VERTEX
8
0
10
26.888209375000002
20
8.481578125
30
0
0
VERTEX
8
0
10
26.844303125
20
8.516590625000001
30
0
0
VERTEX
8
0
10
26.804590625000003
20
8.556303125000001
30
0
0
VERTEX
8
0
10
26.769578125000002
20
8.600209375
30
0
0
VERTEX
8
0
10
26.739700000000003
20
8.647759375
30
0
0
VERTEX
8
0
10
26.715331250000002
20
8.69835625
30
0
0
VERTEX
8
0
10
26.696784375
20
8.751365625
30
0
0
VERTEX
8
0
10
26.6842875
20
8.806115625
30
0
0
VERTEX
8
0
10
26.678
20
8.861921875
30
0
0
VERTEX
8
0
10
26.678
20
8.918078125000001
30
0
0
VERTEX
8
0
10
26.6842875
20
8.973884375
30
0
0
VERTEX
8
0
10
26.696784375
20
9.028634375000001
30
0
0
VERTEX
8
0
10
26.715331250000002
20
9.08164375
30
0
0
VERTEX
8
0
10
26.739700000000003
20
9.132240625
30
0
0
VERTEX
8
0
10
26.769578125000002
20
9.179790625
30
0
0
VERTEX
8
0
10
26.804590625000003
20
9.223696875
30
0
0
VERTEX
8
0
10
26.844303125
20
9.263409375
30
0
0
VERTEX
8
0
10
26.888209375000002
20
9.298421875
30
0
0
VERTEX
8
0
10
26.935759375
20
9.3283
30
0
0
VERTEX
8
0
10
26.98635625
20
9.352668750000001
30
0
0
VERTEX
8
0
10
27.039365625000002
20
9.371215625
30
0
0
VERTEX
8
0
10
27.094115625
20
9.3837125
30
0
0
VERTEX
8
0
10
27.149921875
20
9.39
30
0
0
VERTEX
8
0
10
27.206078125
20
9.39
30
0
0
VERTEX
8
0
10
27.261884375
20
9.3837125
30
0
0
VERTEX
8
0
10
27.316634375
20
9.371215625
30
0
0
VERTEX
8
0
10
27.36964375
20
9.352668750000001
30
0
0
VERTEX
8
0
10
27.420240625
20
9.3283
30
0
0
VERTEX
8
0
10
27.467790625000003
20
9.298421875
30
0
0
VERTEX
8
0
10
27.511696875000002
20
9.263409375
30
0
0
VERTEX
8
0
10
27.551409375000002
20
9.223696875
30
0
0
VERTEX
8
0
10
27.586421875000003
20
9.179790625
30
0
0
VERTEX
8
0
10
27.616300000000003
20
9.132240625
30
0
0
VERTEX
8
0
10
27.64066875
20
9.08164375
30
0
0
VERTEX
8
0
10
27.659215625
20
9.028634375000001
30
0
0
VERTEX
8
0
10
27.6717125
20
8.973884375
30
0
0
VERTEX
8
0
10
27.678
20
8.918078125000001
30
0
0
VERTEX
8
0
10
27.678
20
8.861921875
30
0
0
VERTEX
8
0
10
27.6717125
20
8.806115625
30
0
0
VERTEX
8
0
10
27.659215625
20
8.751365625
30
0
0
VERTEX
8
0
10
27.64066875
20
8.69835625
30
0
0
VERTEX
8
0
10
27.616300000000003
20
8.647759375
30
0
0
VERTEX
8
0
10
27.586421875000003
20
8.600209375
30
0
0
VERTEX
8
0
10
27.551409375000002
20
8.556303125000001
30
0
0
VERTEX
8
0
10
27.511696875000002
20
8.516590625000001
30
0
0
VERTEX
8
0
10
27.467790625000003
20
8.481578125
30
0
0
VERTEX
8
0
10
27.420240625
20
8.4517
30
0
0
VERTEX
8
0
10
27.36964375
20
8.42733125
30
0
0
VERTEX
8
0
10
27.316634375
20
8.408784375
30
0
0
VERTEX
8
0
10
27.261884375
20
8.3962875
30
0
0
VERTEX
8
0
10
27.206078125
20
8.39
30
0
0
VERTEX
8
0
10
27.149921875
20
8.39
30
0
0
SEQEND
0
POLYLINE
66
1
8
holes
10
0.0
20
0.0
30
0.0
70
1
0
VERTEX
8
0
10
-0.7900781250000001
20
8.39
30
0
0
VERTEX
8
0
10
-0.845884375
20
8.3962875
30
0
0
VERTEX
8
0
10
-0.9006343750000001
20
8.408784375
30
0
0
VERTEX
8
0
10
-0.95364375
20
8.42733125
30
0
0
VERTEX
8
0
10
-1.004240625
20
8.4517
30
0
0
VERTEX
8
0
10
-1.051790625
20
8.481578125
30
0
0
VERTEX
8
0
10
-1.095696875
20
8.516590625000001
30
0
0
VERTEX
8
0
10
-1.135409375
20
8.556303125000001
30
0
0
VERTEX
8
0
10
-1.1704218750000002
20
8.600209375
30
0
0
VERTEX
8
0
10
-1.2003000000000001
20
8.647759375
30
0
0
VERTEX
8
0
10
-1.22466875
20
8.69835625
30
0
0
VERTEX
8
0
10
-1.2432156250000002
20
8.751365625
30
0
0
VERTEX
8
0
10
-1.2557125
20
8.806115625
30
0
0
VERTEX
8
0
10
-1.262
20
8.861921875
30
0
0
VERTEX
8
0
10
-1.262
20
8.918078125000001
30
0
0
VERTEX
8
0
10
-1.2557125
20
8.973884375
30
0
0
VERTEX
8
0
10
-1.2432156250000002
20
9.028634375000001
30
0
0
VERTEX
8
0
10
-1.22466875
20
9.08164375
30
0
0
VERTEX
8
0
10
-1.2003000000000001
20
9.132240625
30
0
0
VERTEX
8
0
10
-1.1704218750000002
20
9.179790625
30
0
0
VERTEX
8
0
10
-1.135409375
20
9.223696875
30
0
0
VERTEX
8
0
10
-1.095696875
20
9.263409375
30
0
0
VERTEX
8
0
10
-1.051790625
20
9.298421875
30
0
0
VERTEX
8
0
10
-1.004240625
20
9.3283
30
0
0
VERTEX
8
0
10
-0.95364375
20
9.352668750000001
30
0
0
VERTEX
8
0
10
-0.9006343750000001
20
9.371215625
30
0
0
VERTEX
8
0
10
-0.845884375
20
9.3837125
30
0
0
VERTEX
8
0
10
-0.7900781250000001
20
9.39
30
0
0
VERTEX
8
0
10
-0.7339218750000001
20
9.39
30
0
0
VERTEX
8
0
10
-0.678115625
20
9.3837125
30
0
0
VERTEX
8
0
10
-0.623365625
20
9.371215625
30
0
0
VERTEX
8
0
10
-0.57035625
20
9.352668750000001
30
0
0
VERTEX
8
0
10
-0.519759375
20
9.3283
30
0
0
VERTEX
8
0
10
-0.47220937500000004
20
9.298421875
30
0
0
VERTEX
8
0
10
-0.428303125
20
9.263409375
30
0
0
VERTEX
8
0
10
-0.388590625
20
9.223696875
30
0
0
VERTEX
8
0
10
-0.353578125
20
9.179790625
30
0
0
VERTEX
8
0
10
-0.32370000000000004
20
9.132240625
30
0
0
VERTEX
8
0
10
-0.29933125
20
9.08164375
30
0
0
VERTEX
8
0
10
-0.28078437500000003
20
9.028634375000001
30
0
0
VERTEX
8
0
10
-0.2682875
20
8.973884375
30
0
0
VERTEX
8
0
10
-0.262
20
8.918078125000001
30
0
0
VERTEX
8
0
10
-0.262
20
8.861921875
30
0
0
VERTEX
8
0
10
-0.2682875
20
8.806115625
30
0
0
VERTEX
8
0
10
-0.28078437500000003
20
8.751365625
30
0
0
VERTEX
8
0
10
-0.29933125
20
8.69835625
30
0
0
VERTEX
8
0
10
-0.32370000000000004
20
8.647759375
30
0
0
VERTEX
8
0
10
-0.353578125
20
8.600209375
30
0
0
VERTEX
8
0
10
-0.388590625
20
8.556303125000001
30
0
0
VERTEX
8
0
10
-0.428303125
20
8.516590625000001
30
0
0
VERTEX
8
0
10
-0.47220937500000004
20
8.481578125
30
0
0
VERTEX
8
0
10
-0.519759375
20
8.4517
30
0
0
VERTEX
8
0
10
-0.57035625
20
8.42733125
30
0
0
VERTEX
8
0
10
-0.623365625
20
8.408784375
30
0
0
VERTEX
8
0
10
-0.678115625
20
8.3962875
30
0
0
VERTEX
8
0
10
-0.7339218750000001
20
8.39
30
0
0
VERTEX
8
0
10
-0.7900781250000001
20
8.39
30
0
0
SEQEND
0
POLYLINE
66
1
8
holes
10
0.0
20
0.0
30
0.0
70
1
0
VERTEX
8
0
10
-0.7900781250000001
20
63
30
0
0
VERTEX
8
0
10
-0.845884375
20
63.006287500000006
30
0
0
VERTEX
8
0
10
-0.9006343750000001
20
63.018784375
30
0
0
VERTEX
8
0
10
-0.95364375
20
63.03733125
30
0
0
VERTEX
8
0
10
-1.004240625
20
63.0617
30
0
0
VERTEX
8
0
10
-1.051790625
20
63.091578125000005
30
0
0
VERTEX
8
0
10
-1.095696875
20
63.126590625000006
30
0
0
VERTEX
8
0
10
-1.135409375
20
63.166303125000006
30
0
0
VERTEX
8
0
10
-1.1704218750000002
20
63.210209375000005
30
0
0
VERTEX
8
0
10
-1.2003000000000001
20
63.257759375000006
30
0
0
VERTEX
8
0
10
-1.22466875
20
63.30835625
30
0
0
VERTEX
8
0
10
-1.2432156250000002
20
63.361365625000005
30
0
0
VERTEX
8
0
10
-1.2557125
20
63.416115625
30
0
0
VERTEX
8
0
10
-1.262
20
63.471921875
30
0
0
VERTEX
8
0
10
-1.262
20
63.528078125
30
0
0
VERTEX
8
0
10
-1.2557125
20
63.583884375000004
30
0
0
VERTEX
8
0
10
-1.2432156250000002
20
63.638634375
30
0
0
VERTEX
8
0
10
-1.22466875
20
63.691643750000004
30
0
0
VERTEX
8
0
10
-1.2003000000000001
20
63.742240625
30
0
0
VERTEX
8
0
10
-1.1704218750000002
20
63.789790625
30
0
0
VERTEX
8
0
10
-1.135409375
20
63.833696875
30
0
0
VERTEX
8
0
10
-1.095696875
20
63.873409375
30
0
0
VERTEX
8
0
10
-1.051790625
20
63.908421875
30
0
0
VERTEX
8
0
10
-1.004240625
20
63.938300000000005
30
0
0
VERTEX
8
0
10
-0.95364375
20
63.962668750000006
30
0
0
VERTEX
8
0
10
-0.9006343750000001
20
63.981215625000004
30
0
0
VERTEX
8
0
10
-0.845884375
20
63.9937125
30
0
0
VERTEX
8
0
10
-0.7900781250000001
20
64
30
0
0
VERTEX
8
0
10
-0.7339218750000001
20
64
30
0
0
VERTEX
8
0
10
-0.678115625
20
63.9937125
30
0
0
VERTEX
8
0
10
-0.623365625
20
63.981215625000004
30
0
0
VERTEX
8
0
10
-0.57035625
20
63.962668750000006
30
0
0
VERTEX
8
0
10
-0.519759375
20
63.938300000000005
30
0
0
VERTEX
8
0
10
-0.47220937500000004
20
63.908421875
30
0
0
VERTEX
8
0
10
-0.428303125
20
63.873409375
30
0
0
VERTEX
8
0
10
-0.388590625
20
63.833696875
30
0
0
VERTEX
8
0
10
-0.353578125
20
63.789790625
30
0
0
VERTEX
8
0
10
-0.32370000000000004
20
63.742240625
30
0
0
VERTEX
8
0
10
-0.29933125
20
63.691643750000004
30
0
0
VERTEX
8
0
10
-0.28078437500000003
20
63.638634375
30
0
0
VERTEX
8
0
10
-0.2682875
20
63.583884375000004
30
0
0
VERTEX
8
0
10
-0.262
20
63.528078125
30
0
0
VERTEX
8
0
10
-0.262
20
63.471921875
30
0
0
VERTEX
8
0
10
-0.2682875
20
63.416115625
30
0
0
VERTEX
8
0
10
-0.28078437500000003
20
63.361365625000005
30
0
0
VERTEX
8
0
10
-0.29933125
20
63.30835625
30
0
0
VERTEX
8
0
10
-0.32370000000000004
20
63.257759375000006
30
0
0
VERTEX
8
0
10
-0.353578125
20
63.210209375000005
30
0
0
VERTEX
8
0
10
-0.388590625
20
63.166303125000006
30
0
0
VERTEX
8
0
10
-0.428303125
20
63.126590625000006
30
0
0
VERTEX
8
0
10
-0.47220937500000004
20
63.091578125000005
30
0
0
VERTEX
8
0
10
-0.519759375
20
63.0617
30
0
0
VERTEX
8
0
10
-0.57035625
20
63.03733125
30
0
0
VERTEX
8
0
10
-0.623365625
20
63.018784375
30
0
0
VERTEX
8
0
10
-0.678115625
20
63.006287500000006
30
0
0
VERTEX
8
0
10
-0.7339218750000001
20
63
30
0
0
VERTEX
8
0
10
-0.7900781250000001
20
63
30
0
0
SEQEND
0
POLYLINE
66
1
8
holes
10
0.0
20
0.0
30
0.0
70
1
0
VERTEX
8
0
10
103.65
20
6.28805625
30
0
0
VERTEX
8
0
10
103.64251875000001
20
6.16439375
30
0
0
VERTEX
8
0
10
103.6275875
20
6.0414062500000005
30
0
0
VERTEX
8
0
10
103.60525625000001
20
5.919546875
30
0
0
VERTEX
8
0
10
103.57560625
20
5.799259375
30
0
0
VERTEX
8
0
10
103.53875000000001
20
5.680978125
30
0
0
VERTEX
8
0
10
103.49481875000001
20
5.565140625000001
30
0
0
VERTEX
8
0
10
103.443971875
20
5.452165625
30
0
0
VERTEX
8
0
10
103.386396875
20
5.34246875
30
0
0
VERTEX
8
0
10
103.32230625000001
20
5.236446875
30
0
0
VERTEX
8
0
10
103.251928125
20
5.1344875000000005
30
0
0
VERTEX
8
0
10
103.17552500000001
20
5.036965625000001
30
0
0
VERTEX
8
0
10
103.09336875000001
20
4.9442312500000005
30
0
0
VERTEX
8
0
10
103.00576875
20
4.85663125
30
0
0
VERTEX
8
0
10
102.91303437500001
20
4.774475
30
0
0
VERTEX
8
0
10
102.81551250000001
20
4.698071875
30
0
0
VERTEX
8
0
10
102.713553125
20
4.627693750000001
30
0
0
VERTEX
8
0
10
102.60753125000001
20
4.563603125
30
0
0
VERTEX
8
0
10
102.49783437500001
20
4.506028125
30
0
0
VERTEX
8
0
10
102.384859375
20
4.45518125
30
0
0
VERTEX
8
0
10
102.269021875
20
4.41125
30
0
0
VERTEX
8
0
10
102.15074062500001
20
4.37439375
30
0
0
VERTEX
8
0
10
102.03045312500001
20
4.34474375
30
0
0
VERTEX
8
0
10
101.90859375000001
20
4.3224125
30
0
0
VERTEX
8
0
10
101.78560625
20
4.30748125
30
0
0
VERTEX
8
0
10
101.66194375
20
4.3
30
0
0
VERTEX
8
0
10
101.53805625000001
20
4.3
30
0
0
VERTEX
8
0
10
101.41439375
20
4.30748125
30
0
0
VERTEX
8
0
10
101.29140625000001
20
4.3224125
30
0
0
VERTEX
8
0
10
101.16954687500001
20
4.34474375
30
0
0
VERTEX
8
0
10
101.049259375
20
4.37439375
30
0
0
VERTEX
8
0
10
100.93097812500001
20
4.41125
30
0
0
VERTEX
8
0
10
100.815140625
20
4.45518125
30
0
0
VERTEX
8
0
10
100.702165625
20
4.506028125
30
0
0
VERTEX
8
0
10
100.59246875000001
20
4.563603125
30
0
0
VERTEX
8
0
10
100.486446875
20
4.627693750000001
30
0
0
VERTEX
8
0
10
100.3844875
20
4.698071875
30
0
0
VERTEX
8
0
10
100.28696562500001
20
4.774475
30
0
0
VERTEX
8
0
10
100.19423125
20
4.85663125
30
0
0
VERTEX
8
0
10
100.10663125
20
4.9442312500000005
30
0
0
VERTEX
8
0
10
100.02447500000001
20
5.036965625000001
30
0
0
VERTEX
8
0
10
99.94807187500001
20
5.1344875000000005
30
0
0
VERTEX
8
0
10
99.87769375
20
5.236446875
30
0
0
VERTEX
8
0
10
99.813603125
20
5.34246875
30
0
0
VERTEX
8
0
10
99.756028125
20
5.452165625
30
0
0
VERTEX
8
0
10
99.70518125000001
20
5.565140625000001
30
0
0
VERTEX
8
0
10
99.66125000000001
20
5.680978125
30
0
0
VERTEX
8
0
10
99.62439375000001
20
5.799259375
30
0
0
VERTEX
8
0
10
99.59474375
20
5.919546875
30
0
0
VERTEX
8
0
10
99.5724125
20
6.0414062500000005
30
0
0
VERTEX
8
0
10
99.55748125000001
20
6.16439375
30
0
0
VERTEX
8
0
10
99.55000000000001
20
6.28805625
30
0
0
VERTEX
8
0
10
99.55000000000001
20
6.411943750000001
30
0
0
VERTEX
8
0
10
99.55748125000001
20
6.535606250000001
30
0
0
VERTEX
8
0
10
99.5724125
20
6.6585937500000005
30
0
0
VERTEX
8
0
10
99.59474375
20
6.780453125
30
0
0
VERTEX
8
0
10
99.62439375000001
20
6.900740625
30
0
0
VERTEX
8
0
10
99.66125000000001
20
7.019021875
30
0
0
VERTEX
8
0
10
99.70518125000001
20
7.1348593750000004
30
0
0
VERTEX
8
0
10
99.756028125
20
7.247834375
30
0
0
VERTEX
8
0
10
99.813603125
20
7.35753125
30
0
0
VERTEX
8
0
10
99.87769375
20
7.463553125000001
30
0
0
VERTEX
8
0
10
99.94807187500001
20
7.5655125000000005
30
0
0
VERTEX
8
0
10
100.02447500000001
20
7.6630343750000005
30
0
0
VERTEX
8
0
10
100.10663125
20
7.7557687500000005
30
0
0
VERTEX
8
0
10
100.19423125
20
7.843368750000001
30
0
0
VERTEX
8
0
10
100.28696562500001
20
7.925525
30
0
0
VERTEX
8
0
10
100.3844875
20
8.001928125000001
30
0
0
VERTEX
8
0
10
100.486446875
20
8.07230625
30
0
0
VERTEX
8
0
10
100.59246875000001
20
8.136396875
30
0
0
VERTEX
8
0
10
100.702165625
20
8.193971875
30
0
0
VERTEX
8
0
10
100.815140625
20
8.24481875
30
0
0
VERTEX
8
0
10
100.93097812500001
20
8.28875
30
0
0
VERTEX
8
0
10
101.049259375
20
8.32560625
30
0
0
VERTEX
8
0
10
101.16954687500001
20
8.35525625
30
0
0
VERTEX
8
0
10
101.29140625000001
20
8.3775875
30
0
0
VERTEX
8
0
10
101.41439375
20
8.39251875
30
0
0
VERTEX
8
0
10
101.53805625000001
20
8.4
30
0
0
VERTEX
8
0
10
101.66194375
20
8.4
30
0
0
VERTEX
8
0
10
101.78560625
20
8.39251875
30
0
0
VERTEX
8
0
10
101.90859375000001
20
8.3775875
30
0
0
VERTEX
8
0
10
102.03045312500001
20
8.35525625
30
0
0
VERTEX
8
0
10
102.15074062500001
20
8.32560625
30
0
0
VERTEX
8
0
10
102.269021875
20
8.28875
30
0
0
VERTEX
8
0
10
102.384859375
20
8.24481875
30
0
0
VERTEX
8
0
10
102.49783437500001
20
8.193971875
30
0
0
VERTEX
8
0
10
102.60753125000001
20
8.136396875
30
0
0
VERTEX
8
0
10
102.713553125
20
8.07230625
30
0
0
VERTEX
8
0
10
102.81551250000001
20
8.001928125000001
30
0
0
VERTEX
8
0
10
102.91303437500001
20
7.925525
30
0
0
VERTEX
8
0
10
103.00576875
20
7.843368750000001
30
0
0
VERTEX
8
0
10
103.09336875000001
20
7.7557687500000005
30
0
0
VERTEX
8
0
10
103.17552500000001
20
7.6630343750000005
30
0
0
VERTEX
8
0
10
103.251928125
20
7.5655125000000005
30
0
0
VERTEX
8
0
10
103.32230625000001
20
7.463553125000001
30
0
0
VERTEX
8
0
10
103.386396875
20
7.35753125
30
0
0
VERTEX
8
0
10
103.443971875
20
7.247834375
30
0
0
VERTEX
8
0
10
103.49481875000001
20
7.1348593750000004
30
0
0
VERTEX
8
0
10
103.53875000000001
20
7.019021875
30
0
0
VERTEX
8
0
10
103.57560625
20
6.900740625
30
0
0
VERTEX
8
0
10
103.60525625000001
20
6.780453125
30
0
0
VERTEX
8
0
10
103.6275875
20
6.6585937500000005
30
0
0
VERTEX
8
0
10
103.64251875000001
20
6.535606250000001
30
0
0
VERTEX
8
0
10
103.65
20
6.411943750000001
30
0
0
VERTEX
8
0
10
103.65
20
6.28805625
30
0
0
SEQEND
0
POLYLINE
66
1
8
holes
10
0.0
20
0.0
30
0.0
70
1
0
VERTEX
8
0
10
-1.76
20
6.54205625
30
0
0
VERTEX
8
0
10
-1.7674812500000001
20
6.41839375
30
0
0
VERTEX
8
0
10
-1.7824125000000002
20
6.29540625
30
0
0
VERTEX
8
0
10
-1.80474375
20
6.173546875
30
0
0
VERTEX
8
0
10
-1.83439375
20
6.0532593750000006
30
0
0
VERTEX
8
0
10
-1.87125
20
5.934978125000001
30
0
0
VERTEX
8
0
10
-1.91518125
20
5.819140625
30
0
0
VERTEX
8
0
10
-1.966028125
20
5.706165625000001
30
0
0
VERTEX
8
0
10
-2.023603125
20
5.5964687500000005
30
0
0
VERTEX
8
0
10
-2.08769375
20
5.490446875
30
0
0
VERTEX
8
0
10
-2.158071875
20
5.3884875
30
0
0
VERTEX
8
0
10
-2.234475
20
5.290965625
30
0
0
VERTEX
8
0
10
-2.31663125
20
5.19823125
30
0
0
VERTEX
8
0
10
-2.40423125
20
5.11063125
30
0
0
VERTEX
8
0
10
-2.496965625
20
5.028475
30
0
0
VERTEX
8
0
10
-2.5944875
20
4.952071875000001
30
0
0
VERTEX
8
0
10
-2.696446875
20
4.88169375
30
0
0
VERTEX
8
0
10
-2.80246875
20
4.817603125000001
30
0
0
VERTEX
8
0
10
-2.912165625
20
4.760028125
30
0
0
VERTEX
8
0
10
-3.025140625
20
4.70918125
30
0
0
VERTEX
8
0
10
-3.140978125
20
4.66525
30
0
0
VERTEX
8
0
10
-3.259259375
20
4.62839375
30
0
0
VERTEX
8
0
10
-3.379546875
20
4.598743750000001
30
0
0
VERTEX
8
0
10
-3.50140625
20
4.5764125
30
0
0
VERTEX
8
0
10
-3.6243937500000003
20
4.56148125
30
0
0
VERTEX
8
0
10
-3.7480562500000003
20
4.554
30
0
0
VERTEX
8
0
10
-3.8719437500000002
20
4.554
30
0
0
VERTEX
8
0
10
-3.9956062500000002
20
4.56148125
30
0
0
VERTEX
8
0
10
-4.1185937500000005
20
4.5764125
30
0
0
VERTEX
8
0
10
-4.240453125
20
4.598743750000001
30
0
0
VERTEX
8
0
10
-4.360740625
20
4.62839375
30
0
0
VERTEX
8
0
10
-4.479021875
20
4.66525
30
0
0
VERTEX
8
0
10
-4.594859375
20
4.70918125
30
0
0
VERTEX
8
0
10
-4.707834375
20
4.760028125
30
0
0
VERTEX
8
0
10
-4.81753125
20
4.817603125000001
30
0
0
VERTEX
8
0
10
-4.923553125000001
20
4.88169375
30
0
0
VERTEX
8
0
10
-5.0255125000000005
20
4.952071875000001
30
0
0
VERTEX
8
0
10
-5.1230343750000005
20
5.028475
30
0
0
VERTEX
8
0
10
-5.2157687500000005
20
5.11063125
30
0
0
VERTEX
8
0
10
-5.303368750000001
20
5.19823125
30
0
0
VERTEX
8
0
10
-5.385525
20
5.290965625
30
0
0
VERTEX
8
0
10
-5.461928125
20
5.3884875
30
0
0
VERTEX
8
0
10
-5.53230625
20
5.490446875
30
0
0
VERTEX
8
0
10
-5.596396875
20
5.5964687500000005
30
0
0
VERTEX
8
0
10
-5.653971875
20
5.706165625000001
30
0
0
VERTEX
8
0
10
-5.70481875
20
5.819140625
30
0
0
VERTEX
8
0
10
-5.74875
20
5.934978125000001
30
0
0
VERTEX
8
0
10
-5.78560625
20
6.0532593750000006
30
0
0
VERTEX
8
0
10
-5.81525625
20
6.173546875
30
0
0
VERTEX
8
0
10
-5.837587500000001
20
6.29540625
30
0
0
VERTEX
8
0
10
-5.852518750000001
20
6.41839375
30
0
0
VERTEX
8
0
10
-5.86
20
6.54205625
30
0
0
VERTEX
8
0
10
-5.86
20
6.66594375
30
0
0
VERTEX
8
0
10
-5.852518750000001
20
6.78960625
30
0
0
VERTEX
8
0
10
-5.837587500000001
20
6.91259375
30
0
0
VERTEX
8
0
10
-5.81525625
20
7.034453125000001
30
0
0
VERTEX
8
0
10
-5.78560625
20
7.1547406250000005
30
0
0
VERTEX
8
0
10
-5.74875
20
7.273021875
30
0
0
VERTEX
8
0
10
-5.70481875
20
7.388859375
30
0
0
VERTEX
8
0
10
-5.653971875
20
7.5018343750000005
30
0
0
VERTEX
8
0
10
-5.596396875
20
7.6115312500000005
30
0
0
VERTEX
8
0
10
-5.53230625
20
7.717553125
30
0
0
VERTEX
8
0
10
-5.461928125
20
7.8195125
30
0
0
VERTEX
8
0
10
-5.385525
20
7.917034375
30
0
0
VERTEX
8
0
10
-5.303368750000001
20
8.009768750000001
30
0
0
VERTEX
8
0
10
-5.2157687500000005
20
8.097368750000001
30
0
0
VERTEX
8
0
10
-5.1230343750000005
20
8.179525
30
0
0
VERTEX
8
0
10
-5.0255125000000005
20
8.255928125
30
0
0
VERTEX
8
0
10
-4.923553125000001
20
8.32630625
30
0
0
VERTEX
8
0
10
-4.81753125
20
8.390396875
30
0
0
VERTEX
8
0
10
-4.707834375
20
8.447971875
30
0
0
VERTEX
8
0
10
-4.594859375
20
8.49881875
30
0
0
VERTEX
8
0
10
-4.479021875
20
8.54275
30
0
0
VERTEX
8
0
10
-4.360740625
20
8.579606250000001
30
0
0
VERTEX
8
0
10
-4.240453125
20
8.60925625
30
0
0
VERTEX
8
0
10
-4.1185937500000005
20
8.6315875
30
0
0
VERTEX
8
0
10
-3.9956062500000002
20
8.64651875
30
0
0
VERTEX
8
0
10
-3.8719437500000002
20
8.654
30
0
0
VERTEX
8
0
10
-3.7480562500000003
20
8.654
30
0
0
VERTEX
8
0
10
-3.6243937500000003
20
8.64651875
30
0
0
VERTEX
8
0
10
-3.50140625
20
8.6315875
30
0
0
VERTEX
8
0
10
-3.379546875
20
8.60925625
30
0
0
VERTEX
8
0
10
-3.259259375
20
8.579606250000001
30
0
0
VERTEX
8
0
10
-3.140978125
20
8.54275
30
0
0
VERTEX
8
0
10
-3.025140625
20
8.49881875
30
0
0
VERTEX
8
0
10
-2.912165625
20
8.447971875
30
0
0
VERTEX
8
0
10
-2.80246875
20
8.390396875
30
0
0
VERTEX
8
0
10
-2.696446875
20
8.32630625
30
0
0
VERTEX
8
0
10
-2.5944875
20
8.255928125
30
0
0
VERTEX
8
0
10
-2.496965625
20
8.179525
30
0
0
VERTEX
8
0
10
-2.40423125
20
8.097368750000001
30
0
0
VERTEX
8
0
10
-2.31663125
20
8.009768750000001
30
0
0
VERTEX
8
0
10
-2.234475
20
7.917034375
30
0
0
VERTEX
8
0
10
-2.158071875
20
7.8195125
30
0
0
VERTEX
8
0
10
-2.08769375
20
7.717553125
30
0
0
VERTEX
8
0
10
-2.023603125
20
7.6115312500000005
30
0
0
VERTEX
8
0
10
-1.966028125
20
7.5018343750000005
30
0
0
VERTEX
8
0
10
-1.91518125
20
7.388859375
30
0
0
VERTEX
8
0
10
-1.87125
20
7.273021875
30
0
0
VERTEX
8
0
10
-1.83439375
20
7.1547406250000005
30
0
0
VERTEX
8
0
10
-1.80474375
20
7.034453125000001
30
0
0
VERTEX
8
0
10
-1.7824125000000002
20
6.91259375
30
0
0
VERTEX
8
0
10
-1.7674812500000001
20
6.78960625
30
0
0
VERTEX
8
0
10
-1.76
20
6.66594375
30
0
0
VERTEX
8
0
10
-1.76
20
6.54205625
30
0
0
SEQEND
0
POLYLINE
66
1
8
holes
10
0.0
20
0.0
30
0.0
70
1
0
VERTEX
8
0
10
103.65
20
93.91805625
30
0
0
VERTEX
8
0
10
103.64251875000001
20
93.79439375
30
0
0
VERTEX
8
0
10
103.6275875
20
93.67140625
30
0
0
VERTEX
8
0
10
103.60525625000001
20
93.549546875
30
0
0
VERTEX
8
0
10
103.57560625
20
93.429259375
30
0
0
VERTEX
8
0
10
103.53875000000001
20
93.310978125
30
0
0
VERTEX
8
0
10
103.49481875000001
20
93.19514062500001
30
0
0
VERTEX
8
0
10
103.443971875
20
93.082165625
30
0
0
VERTEX
8
0
10
103.386396875
20
92.97246875
30
0
0
VERTEX
8
0
10
103.32230625000001
20
92.86644687500001
30
0
0
VERTEX
8
0
10
103.251928125
20
92.7644875
30
0
0
VERTEX
8
0
10
103.17552500000001
20
92.666965625
30
0
0
VERTEX
8
0
10
103.09336875000001
20
92.57423125000001
30
0
0
VERTEX
8
0
10
103.00576875
20
92.48663125
30
0
0
VERTEX
8
0
10
102.91303437500001
20
92.404475
30
0
0
VERTEX
8
0
10
102.81551250000001
20
92.328071875
30
0
0
VERTEX
8
0
10
102.713553125
20
92.25769375
30
0
0
VERTEX
8
0
10
102.60753125000001
20
92.19360312500001
30
0
0
VERTEX
8
0
10
102.49783437500001
20
92.13602812500001
30
0
0
VERTEX
8
0
10
102.384859375
20
92.08518125
30
0
0
VERTEX
8
0
10
102.269021875
20
92.04125
30
0
0
VERTEX
8
0
10
102.15074062500001
20
92.00439375
30
0
0
VERTEX
8
0
10
102.03045312500001
20
91.97474375
30
0
0
VERTEX
8
0
10
101.90859375000001
20
91.95241250000001
30
0
0
VERTEX
8
0
10
101.78560625
20
91.93748125
30
0
0
VERTEX
8
0
10
101.66194375
20
91.93
30
0
0
VERTEX
8
0
10
101.53805625000001
20
91.93
30
0
0
VERTEX
8
0
10
101.41439375
20
91.93748125
30
0
0
VERTEX
8
0
10
101.29140625000001
20
91.95241250000001
30
0
0
VERTEX
8
0
10
101.16954687500001
20
91.97474375
30
0
0
VERTEX
8
0
10
101.049259375
20
92.00439375
30
0
0
VERTEX
8
0
10
100.93097812500001
20
92.04125
30
0
0
VERTEX
8
0
10
100.815140625
20
92.08518125
30
0
0
VERTEX
8
0
10
100.702165625
20
92.13602812500001
30
0
0
VERTEX
8
0
10
100.59246875000001
20
92.19360312500001
30
0
0
VERTEX
8
0
10
100.486446875
20
92.25769375
30
0
0
VERTEX
8
0
10
100.3844875
20
92.328071875
30
0
0
VERTEX
8
0
10
100.28696562500001
20
92.404475
30
0
0
VERTEX
8
0
10
100.19423125
20
92.48663125
30
0
0
VERTEX
8
0
10
100.10663125
20
92.57423125000001
30
0
0
VERTEX
8
0
10
100.02447500000001
20
92.666965625
30
0
0
VERTEX
8
0
10
99.94807187500001
20
92.7644875
30
0
0
VERTEX
8
0
10
99.87769375
20
92.86644687500001
30
0
0
VERTEX
8
0
10
99.813603125
20
92.97246875
30
0
0
VERTEX
8
0
10
99.756028125
20
93.082165625
30
0
0
VERTEX
8
0
10
99.70518125000001
20
93.19514062500001
30
0
0
VERTEX
8
0
10
99.66125000000001
20
93.310978125
30
0
0
VERTEX
8
0
10
99.62439375000001
20
93.429259375
30
0
0
VERTEX
8
0
10
99.59474375
20
93.549546875
30
0
0
VERTEX
8
0
10
99.5724125
20
93.67140625
30
0
0
VERTEX
8
0
10
99.55748125000001
20
93.79439375
30
0
0
VERTEX
8
0
10
99.55000000000001
20
93.91805625
30
0
0
VERTEX
8
0
10
99.55000000000001
20
94.04194375
30
0
0
VERTEX
8
0
10
99.55748125000001
20
94.16560625000001
30
0
0
VERTEX
8
0
10
99.5724125
20
94.28859375
30
0
0
VERTEX
8
0
10
99.59474375
20
94.410453125
30
0
0
VERTEX
8
0
10
99.62439375000001
20
94.530740625
30
0
0
VERTEX
8
0
10
99.66125000000001
20
94.649021875
30
0
0
VERTEX
8
0
10
99.70518125000001
20
94.764859375
30
0
0
VERTEX
8
0
10
99.756028125
20
94.877834375
30
0
0
VERTEX
8
0
10
99.813603125
20
94.98753125
30
0
0
VERTEX
8
0
10
99.87769375
20
95.093553125
30
0
0
VERTEX
8
0
10
99.94807187500001
20
95.1955125
30
0
0
VERTEX
8
0
10
100.02447500000001
20
95.293034375
30
0
0
VERTEX
8
0
10
100.10663125
20
95.38576875000001
30
0
0
VERTEX
8
0
10
100.19423125
20
95.47336875
30
0
0
VERTEX
8
0
10
100.28696562500001
20
95.555525
30
0
0
VERTEX
8
0
10
100.3844875
20
95.631928125
30
0
0
VERTEX
8
0
10
100.486446875
20
95.70230625
30
0
0
VERTEX
8
0
10
100.59246875000001
20
95.766396875
30
0
0
VERTEX
8
0
10
100.702165625
20
95.823971875
30
0
0
VERTEX
8
0
10
100.815140625
20
95.87481875
30
0
0
VERTEX
8
0
10
100.93097812500001
20
95.91875
30
0
0
VERTEX
8
0
10
101.049259375
20
95.95560625
30
0
0
VERTEX
8
0
10
101.16954687500001
20
95.98525625
30
0
0
VERTEX
8
0
10
101.29140625000001
20
96.0075875
30
0
0
VERTEX
8
0
10
101.41439375
20
96.02251875
30
0
0
VERTEX
8
0
10
101.53805625000001
20
96.03
30
0
0
VERTEX
8
0
10
101.66194375
20
96.03
30
0
0
VERTEX
8
0
10
101.78560625
20
96.02251875
30
0
0
VERTEX
8
0
10
101.90859375000001
20
96.0075875
30
0
0
VERTEX
8
0
10
102.03045312500001
20
95.98525625
30
0
0
VERTEX
8
0
10
102.15074062500001
20
95.95560625
30
0
0
VERTEX
8
0
10
102.269021875
20
95.91875
30
0
0
VERTEX
8
0
10
102.384859375
20
95.87481875
30
0
0
VERTEX
8
0
10
102.49783437500001
20
95.823971875
30
0
0
VERTEX
8
0
10
102.60753125000001
20
95.766396875
30
0
0
VERTEX
8
0
10
102.713553125
20
95.70230625
30
0
0
VERTEX
8
0
10
102.81551250000001
20
95.631928125
30
0
0
VERTEX
8
0
10
102.91303437500001
20
95.555525
30
0
0
VERTEX
8
0
10
103.00576875
20
95.47336875
30
0
0
VERTEX
8
0
10
103.09336875000001
20
95.38576875000001
30
0
0
VERTEX
8
0
10
103.17552500000001
20
95.293034375
30
0
0
VERTEX
8
0
10
103.251928125
20
95.1955125
30
0
0
VERTEX
8
0
10
103.32230625000001
20
95.093553125
30
0
0
VERTEX
8
0
10
103.386396875
20
94.98753125
30
0
0
VERTEX
8
0
10
103.443971875
20
94.877834375
30
0
0
VERTEX
8
0
10
103.49481875000001
20
94.764859375
30
0
0
VERTEX
8
0
10
103.53875000000001
20
94.649021875
30
0
0
VERTEX
8
0
10
103.57560625
20
94.530740625
30
0
0
VERTEX
8
0
10
103.60525625000001
20
94.410453125
30
0
0
VERTEX
8
0
10
103.6275875
20
94.28859375
30
0
0
VERTEX
8
0
10
103.64251875000001
20
94.16560625000001
30
0
0
VERTEX
8
0
10
103.65
20
94.04194375
30
0
0
VERTEX
8
0
10
103.65
20
93.91805625
30
0
0
SEQEND
0
POLYLINE
66
1
8
holes
10
0.0
20
0.0
30
0.0
70
1
0
VERTEX
8
0
10
-1.506
20
78.17005625
30
0
0
VERTEX
8
0
10
-1.5134812500000001
20
78.04639375000001
30
0
0
VERTEX
8
0
10
-1.5284125000000002
20
77.92340625
30
0
0
VERTEX
8
0
10
-1.55074375
20
77.801546875
30
0
0
VERTEX
8
0
10
-1.58039375
20
77.68125937500001
30
0
0
VERTEX
8
0
10
-1.61725
20
77.562978125
30
0
0
VERTEX
8
0
10
-1.66118125
20
77.447140625
30
0
0
VERTEX
8
0
10
-1.712028125
20
77.334165625
30
0
0
VERTEX
8
0
10
-1.7696031250000002
20
77.22446875
30
0
0
VERTEX
8
0
10
-1.8336937500000001
20
77.118446875
30
0
0
VERTEX
8
0
10
-1.904071875
20
77.0164875
30
0
0
VERTEX
8
0
10
-1.980475
20
76.918965625
30
0
0
VERTEX
8
0
10
-2.06263125
20
76.82623125
30
0
0
VERTEX
8
0
10
-2.15023125
20
76.73863125
30
0
0
VERTEX
8
0
10
-2.242965625
20
76.656475
30
0
0
VERTEX
8
0
10
-2.3404875
20
76.580071875
30
0
0
VERTEX
8
0
10
-2.442446875
20
76.50969375
30
0
0
VERTEX
8
0
10
-2.54846875
20
76.445603125
30
0
0
VERTEX
8
0
10
-2.658165625
20
76.388028125
30
0
0
VERTEX
8
0
10
-2.771140625
20
76.33718125
30
0
0
VERTEX
8
0
10
-2.886978125
20
76.29325
30
0
0
VERTEX
8
0
10
-3.005259375
20
76.25639375
30
0
0
VERTEX
8
0
10
-3.125546875
20
76.22674375
30
0
0
VERTEX
8
0
10
-3.24740625
20
76.2044125
30
0
0
VERTEX
8
0
10
-3.3703937500000003
20
76.18948125
30
0
0
VERTEX
8
0
10
-3.4940562500000003
20
76.182
30
0
0
VERTEX
8
0
10
-3.6179437500000002
20
76.182
30
0
0
VERTEX
8
0
10
-3.7416062500000002
20
76.18948125
30
0
0
VERTEX
8
0
10
-3.86459375
20
76.2044125
30
0
0
VERTEX
8
0
10
-3.986453125
20
76.22674375
30
0
0
VERTEX
8
0
10
-4.1067406250000005
20
76.25639375
30
0
0
VERTEX
8
0
10
-4.225021875
20
76.29325
30
0
0
VERTEX
8
0
10
-4.340859375
20
76.33718125
30
0
0
VERTEX
8
0
10
-4.4538343750000005
20
76.388028125
30
0
0
VERTEX
8
0
10
-4.5635312500000005
20
76.445603125
30
0
0
VERTEX
8
0
10
-4.669553125
20
76.50969375
30
0
0
VERTEX
8
0
10
-4.7715125
20
76.580071875
30
0
0
VERTEX
8
0
10
-4.869034375
20
76.656475
30
0
0
VERTEX
8
0
10
-4.96176875
20
76.73863125
30
0
0
VERTEX
8
0
10
-5.04936875
20
76.82623125
30
0
0
VERTEX
8
0
10
-5.131525
20
76.918965625
30
0
0
VERTEX
8
0
10
-5.2079281250000005
20
77.0164875
30
0
0
VERTEX
8
0
10
-5.27830625
20
77.118446875
30
0
0
VERTEX
8
0
10
-5.342396875
20
77.22446875
30
0
0
VERTEX
8
0
10
-5.399971875
20
77.334165625
30
0
0
VERTEX
8
0
10
-5.45081875
20
77.447140625
30
0
0
VERTEX
8
0
10
-5.494750000000001
20
77.562978125
30
0
0
VERTEX
8
0
10
-5.53160625
20
77.68125937500001
30
0
0
VERTEX
8
0
10
-5.5612562500000005
20
77.801546875
30
0
0
VERTEX
8
0
10
-5.5835875
20
77.92340625
30
0
0
VERTEX
8
0
10
-5.59851875
20
78.04639375000001
30
0
0
VERTEX
8
0
10
-5.606
20
78.17005625
30
0
0
VERTEX
8
0
10
-5.606
20
78.29394375
30
0
0
VERTEX
8
0
10
-5.59851875
20
78.41760625
30
0
0
VERTEX
8
0
10
-5.5835875
20
78.54059375
30
0
0
VERTEX
8
0
10
-5.5612562500000005
20
78.662453125
30
0
0
VERTEX
8
0
10
-5.53160625
20
78.782740625
30
0
0
VERTEX
8
0
10
-5.494750000000001
20
78.901021875
30
0
0
VERTEX
8
0
10
-5.45081875
20
79.01685937500001
30
0
0
VERTEX
8
0
10
-5.399971875
20
79.129834375
30
0
0
VERTEX
8
0
10
-5.342396875
20
79.23953125
30
0
0
VERTEX
8
0
10
-5.27830625
20
79.34555312500001
30
0
0
VERTEX
8
0
10
-5.2079281250000005
20
79.4475125
30
0
0
VERTEX
8
0
10
-5.131525
20
79.545034375
30
0
0
VERTEX
8
0
10
-5.04936875
20
79.63776875
30
0
0
VERTEX
8
0
10
-4.96176875
20
79.72536875
30
0
0
VERTEX
8
0
10
-4.869034375
20
79.807525
30
0
0
VERTEX
8
0
10
-4.7715125
20
79.883928125
30
0
0
VERTEX
8
0
10
-4.669553125
20
79.95430625
30
0
0
VERTEX
8
0
10
-4.5635312500000005
20
80.01839687500001
30
0
0
VERTEX
8
0
10
-4.4538343750000005
20
80.07597187500001
30
0
0
VERTEX
8
0
10
-4.340859375
20
80.12681875
30
0
0
VERTEX
8
0
10
-4.225021875
20
80.17075
30
0
0
VERTEX
8
0
10
-4.1067406250000005
20
80.20760625
30
0
0
VERTEX
8
0
10
-3.986453125
20
80.23725625
30
0
0
VERTEX
8
0
10
-3.86459375
20
80.25958750000001
30
0
0
VERTEX
8
0
10
-3.7416062500000002
20
80.27451875
30
0
0
VERTEX
8
0
10
-3.6179437500000002
20
80.28200000000001
30
0
0
VERTEX
8
0
10
-3.4940562500000003
20
80.28200000000001
30
0
0
VERTEX
8
0
10
-3.3703937500000003
20
80.27451875
30
0
0
VERTEX
8
0
10
-3.24740625
20
80.25958750000001
30
0
0
VERTEX
8
0
10
-3.125546875
20
80.23725625
30
0
0
VERTEX
8
0
10
-3.005259375
20
80.20760625
30
0
0
VERTEX
8
0
10
-2.886978125
20
80.17075
30
0
0
VERTEX
8
0
10
-2.771140625
20
80.12681875
30
0
0
VERTEX
8
0
10
-2.658165625
20
80.07597187500001
30
0
0
VERTEX
8
0
10
-2.54846875
20
80.01839687500001
30
0
0
VERTEX
8
0
10
-2.442446875
20
79.95430625
30
0
0
VERTEX
8
0
10
-2.3404875
20
79.883928125
30
0
0
VERTEX
8
0
10
-2.242965625
20
79.807525
30
0
0
VERTEX
8
0
10
-2.15023125
20
79.72536875
30
0
0
VERTEX
8
0
10
-2.06263125
20
79.63776875
30
0
0
VERTEX
8
0
10
-1.980475
20
79.545034375
30
0
0
VERTEX
8
0
10
-1.904071875
20
79.4475125
30
0
0
VERTEX
8
0
10
-1.8336937500000001
20
79.34555312500001
30
0
0
VERTEX
8
0
10
-1.7696031250000002
20
79.23953125
30
0
0
VERTEX
8
0
10
-1.712028125
20
79.129834375
30
0
0
VERTEX
8
0
10
-1.66118125
20
79.01685937500001
30
0
0
VERTEX
8
0
10
-1.61725
20
78.901021875
30
0
0
VERTEX
8
0
10
-1.58039375
20
78.782740625
30
0
0
VERTEX
8
0
10
-1.55074375
20
78.662453125
30
0
0
VERTEX
8
0
10
-1.5284125000000002
20
78.54059375
30
0
0
VERTEX
8
0
10
-1.5134812500000001
20
78.41760625
30
0
0
VERTEX
8
0
10
-1.506
20
78.29394375
30
0
0
VERTEX
8
0
10
-1.506
20
78.17005625
30
0
0
SEQEND
0
POLYLINE
66
1
8
1_copper
10
0.0
20
0.0
30
0.0
70
1
0
VERTEX
8
0
10
17.11501875
20
77.577959375
30
0
42
0.3578051432831595
0
VERTEX
8
0
10
17.6784
20
78.19955625
30
0
0
VERTEX
8
0
10
17.6784
20
79.58524375
30
0
42
0.9520786018124834
0
VERTEX
8
0
10
16.3576
20
79.58524375
30
0
0
VERTEX
8
0
10
16.3576
20
78.19955625
30
0
0
VERTEX
8
0
10
16.363959375
20
78.13498125000001
30
0
0
VERTEX
8
0
10
16.376618750000002
20
78.07134375
30
0
0
VERTEX
8
0
10
16.395453125
20
78.00925000000001
30
0
0
VERTEX
8
0
10
16.420284375
20
77.949303125
30
0
0
VERTEX
8
0
10
16.450871875
20
77.892078125
30
0
0
VERTEX
8
0
10
16.486921875
20
77.838125
30
0
0
VERTEX
8
0
10
16.528084375000002
20
77.78796875
30
0
0
VERTEX
8
0
10
16.573968750000002
20
77.742084375
30
0
0
VERTEX
8
0
10
16.624125
20
77.700921875
30
0
0
VERTEX
8
0
10
16.678078125000003
20
77.664871875
30
0
0
VERTEX
8
0
10
16.735303125
20
77.63428437500001
30
0
0
VERTEX
8
0
10
16.79525
20
77.609453125
30
0
0
VERTEX
8
0
10
16.857343750000002
20
77.59061875
30
0
0
VERTEX
8
0
10
16.92098125
20
77.577959375
30
0
0
VERTEX
8
0
10
16.985556250000002
20
77.5716
30
0
0
VERTEX
8
0
10
17.05044375
20
77.5716
30
0
0
SEQEND
0
POLYLINE
66
1
8
1_copper
10
0.0
20
0.0
30
0.0
70
1
0
VERTEX
8
0
10
22.195018750000003
20
68.63715937500001
30
0
42
0.3578051432831595
0
VERTEX
8
0
10
22.7584
20
69.25875625
30
0
0
VERTEX
8
0
10
22.7584
20
70.64444375000001
30
0
42
0.9520786018124834
0
VERTEX
8
0
10
21.4376
20
70.64444375000001
30
0
0
VERTEX
8
0
10
21.4376
20
69.25875625
30
0
0
VERTEX
8
0
10
21.443959375000002
20
69.19418125
30
0
0
VERTEX
8
0
10
21.45661875
20
69.13054375
30
0
0
VERTEX
8
0
10
21.475453125
20
69.06845
30
0
0
VERTEX
8
0
10
21.500284375
20
69.008503125
30
0
0
VERTEX
8
0
10
21.530871875000003
20
68.951278125
30
0
0
VERTEX
8
0
10
21.566921875000002
20
68.89732500000001
30
0
0
VERTEX
8
0
10
21.608084375
20
68.84716875000001
30
0
0
VERTEX
8
0
10
21.65396875
20
68.80128437500001
30
0
0
VERTEX
8
0
10
21.704125
20
68.76012187500001
30
0
0
VERTEX
8
0
10
21.758078125
20
68.724071875
30
0
0
VERTEX
8
0
10
21.815303125
20
68.693484375
30
0
0
VERTEX
8
0
10
21.87525
20
68.668653125
30
0
0
VERTEX
8
0
10
21.93734375
20
68.64981875000001
30
0
0
VERTEX
8
0
10
22.000981250000002
20
68.63715937500001
30
0
0
VERTEX
8
0
10
22.06555625
20
68.63080000000001
30
0
0
VERTEX
8
0
10
22.13044375
20
68.63080000000001
30
0
0
SEQEND
0
POLYLINE
66
1
8
1_copper
10
0.0
20
0.0
30
0.0
70
1
0
VERTEX
8
0
10
-0.008
20
55.364000000000004
30
0
0
VERTEX
8
0
10
-1.516
20
55.364000000000004
30
0
0
VERTEX
8
0
10
-1.516
20
53.856
30
0
0
VERTEX
8
0
10
-0.008
20
53.856
30
0
0
SEQEND
0
POLYLINE
66
1
8
1_copper
10
0.0
20
0.0
30
0.0
70
1
0
VERTEX
8
0
10
27.932000000000002
20
55.364000000000004
30
0
0
VERTEX
8
0
10
26.424000000000003
20
55.364000000000004
30
0
0
VERTEX
8
0
10
26.424000000000003
20
53.856
30
0
0
VERTEX
8
0
10
27.932000000000002
20
53.856
30
0
0
SEQEND
0
POLYLINE
66
1
8
1_copper
10
0.0
20
0.0
30
0.0
70
1
0
VERTEX
8
0
10
-0.008
20
52.824000000000005
30
0
0
VERTEX
8
0
10
-1.516
20
52.824000000000005
30
0
0
VERTEX
8
0
10
-1.516
20
51.316
30
0
0
VERTEX
8
0
10
-0.008
20
51.316
30
0
0
SEQEND
0
POLYLINE
66
1
8
1_copper
10
0.0
20
0.0
30
0.0
70
1
0
VERTEX
8
0
10
27.932000000000002
20
52.824000000000005
30
0
0
VERTEX
8
0
10
26.424000000000003
20
52.824000000000005
30
0
0
VERTEX
8
0
10
26.424000000000003
20
51.316
30
0
0
VERTEX
8
0
10
27.932000000000002
20
51.316
30
0
0
SEQEND
0
POLYLINE
66
1
8
1_copper
10
0.0
20
0.0
30
0.0
70
1
0
VERTEX
8
0
10
-0.008
20
50.284
30
0
0
VERTEX
8
0
10
-1.516
20
50.284
30
0
0
VERTEX
8
0
10
-1.516
20
48.776
30
0
0
VERTEX
8
0
10
-0.008
20
48.776
30
0
0
SEQEND
0
POLYLINE
66
1
8
1_copper
10
0.0
20
0.0
30
0.0
70
1
0
VERTEX
8
0
10
-0.008
20
47.744
30
0
0
VERTEX
8
0
10
-1.516
20
47.744
30
0
0
VERTEX
8
0
10
-1.516
20
46.236000000000004
30
0
0
VERTEX
8
0
10
-0.008
20
46.236000000000004
30
0
0
SEQEND
0
POLYLINE
66
1
8
1_copper
10
0.0
20
0.0
30
0.0
70
1
0
VERTEX
8
0
10
27.932000000000002
20
47.744
30
0
0
VERTEX
8
0
10
26.424000000000003
20
47.744
30
0
0
VERTEX
8
0
10
26.424000000000003
20
46.236000000000004
30
0
0
VERTEX
8
0
10
27.932000000000002
20
46.236000000000004
30
0
0
SEQEND
0
POLYLINE
66
1
8
1_copper
10
0.0
20
0.0
30
0.0
70
1
0
VERTEX
8
0
10
45.867818750000005
20
46.335959375
30
0
42
0.9063462356499619
0
VERTEX
8
0
10
45.80324375
20
47.650400000000005
30
0
0
VERTEX
8
0
10
44.417556250000004
20
47.650400000000005
30
0
42
0.9520786018124834
0
VERTEX
8
0
10
44.417556250000004
20
46.3296
30
0
0
VERTEX
8
0
10
45.80324375
20
46.3296
30
0
0
SEQEND
0
POLYLINE
66
1
8
1_copper
10
0.0
20
0.0
30
0.0
70
1
0
VERTEX
8
0
10
-0.008
20
45.204
30
0
0
VERTEX
8
0
10
-1.516
20
45.204
30
0
0
VERTEX
8
0
10
-1.516
20
43.696000000000005
30
0
0
VERTEX
8
0
10
-0.008
20
43.696000000000005
30
0
0
SEQEND
0
POLYLINE
66
1
8
1_copper
10
0.0
20
0.0
30
0.0
70
1
0
VERTEX
8
0
10
27.932000000000002
20
45.204
30
0
0
VERTEX
8
0
10
26.424000000000003
20
45.204
30
0
0
VERTEX
8
0
10
26.424000000000003
20
43.696000000000005
30
0
0
VERTEX
8
0
10
27.932000000000002
20
43.696000000000005
30
0
0
SEQEND
0
POLYLINE
66
1
8
1_copper
10
0.0
20
0.0
30
0.0
70
1
0
VERTEX
8
0
10
36.92701875
20
43.795959375
30
0
42
0.9063462356499619
0
VERTEX
8
0
10
36.862443750000004
20
45.110400000000006
30
0
0
VERTEX
8
0
10
35.47675625
20
45.110400000000006
30
0
42
0.9520786018124834
0
VERTEX
8
0
10
35.47675625
20
43.7896
30
0
0
VERTEX
8
0
10
36.862443750000004
20
43.7896
30
0
0
SEQEND
0
POLYLINE
66
1
8
1_copper
10
0.0
20
0.0
30
0.0
70
1
0
VERTEX
8
0
10
-0.008
20
42.664
30
0
0
VERTEX
8
0
10
-1.516
20
42.664
30
0
0
VERTEX
8
0
10
-1.516
20
41.156
30
0
0
VERTEX
8
0
10
-0.008
20
41.156
30
0
0
SEQEND
0
POLYLINE
66
1
8
1_copper
10
0.0
20
0.0
30
0.0
70
1
0
VERTEX
8
0
10
-0.008
20
40.124
30
0
0
VERTEX
8
0
10
-1.516
20
40.124
30
0
0
VERTEX
8
0
10
-1.516
20
38.616
30
0
0
VERTEX
8
0
10
-0.008
20
38.616
30
0
0
SEQEND
0
POLYLINE
66
1
8
1_copper
10
0.0
20
0.0
30
0.0
70
1
0
VERTEX
8
0
10
-0.008
20
37.584
30
0
0
VERTEX
8
0
10
-1.516
20
37.584
30
0
0
VERTEX
8
0
10
-1.516
20
36.076
30
0
0
VERTEX
8
0
10
-0.008
20
36.076
30
0
0
SEQEND
0
POLYLINE
66
1
8
1_copper
10
0.0
20
0.0
30
0.0
70
1
0
VERTEX
8
0
10
-0.008
20
35.044000000000004
30
0
0
VERTEX
8
0
10
-1.516
20
35.044000000000004
30
0
0
VERTEX
8
0
10
-1.516
20
33.536
30
0
0
VERTEX
8
0
10
-0.008
20
33.536
30
0
0
SEQEND
0
POLYLINE
66
1
8
1_copper
10
0.0
20
0.0
30
0.0
70
1
0
VERTEX
8
0
10
-0.008
20
32.504000000000005
30
0
0
VERTEX
8
0
10
-1.516
20
32.504000000000005
30
0
0
VERTEX
8
0
10
-1.516
20
30.996000000000002
30
0
0
VERTEX
8
0
10
-0.008
20
30.996000000000002
30
0
0
SEQEND
0
POLYLINE
66
1
8
1_copper
10
0.0
20
0.0
30
0.0
70
1
0
VERTEX
8
0
10
57.297818750000005
20
31.095959375000003
30
0
42
0.9063462356499619
0
VERTEX
8
0
10
57.23324375
20
32.4104
30
0
0
VERTEX
8
0
10
55.847556250000004
20
32.4104
30
0
42
0.9520786018124834
0
VERTEX
8
0
10
55.847556250000004
20
31.0896
30
0
0
VERTEX
8
0
10
57.23324375
20
31.0896
30
0
0
SEQEND
0
POLYLINE
66
1
8
1_copper
10
0.0
20
0.0
30
0.0
70
1
0
VERTEX
8
0
10
-0.008
20
29.964000000000002
30
0
0
VERTEX
8
0
10
-1.516
20
29.964000000000002
30
0
0
VERTEX
8
0
10
-1.516
20
28.456000000000003
30
0
0
VERTEX
8
0
10
-0.008
20
28.456000000000003
30
0
0
SEQEND
0
POLYLINE
66
1
8
1_copper
10
0.0
20
0.0
30
0.0
70
1
0
VERTEX
8
0
10
27.932000000000002
20
29.964000000000002
30
0
0
VERTEX
8
0
10
26.424000000000003
20
29.964000000000002
30
0
0
VERTEX
8
0
10
26.424000000000003
20
28.456000000000003
30
0
0
VERTEX
8
0
10
27.932000000000002
20
28.456000000000003
30
0
0
SEQEND
0
POLYLINE
66
1
8
1_copper
10
0.0
20
0.0
30
0.0
70
1
0
VERTEX
8
0
10
48.35701875
20
28.555959375
30
0
42
0.9063462356499619
0
VERTEX
8
0
10
48.292443750000004
20
29.8704
30
0
0
VERTEX
8
0
10
46.90675625
20
29.8704
30
0
42
0.9520786018124834
0
VERTEX
8
0
10
46.90675625
20
28.5496
30
0
0
VERTEX
8
0
10
48.292443750000004
20
28.5496
30
0
0
SEQEND
0
POLYLINE
66
1
8
1_copper
10
0.0
20
0.0
30
0.0
70
1
0
VERTEX
8
0
10
-0.008
20
27.424000000000003
30
0
0
VERTEX
8
0
10
-1.516
20
27.424000000000003
30
0
0
VERTEX
8
0
10
-1.516
20
25.916
30
0
0
VERTEX
8
0
10
-0.008
20
25.916
30
0
0
SEQEND
0
POLYLINE
66
1
8
1_copper
10
0.0
20
0.0
30
0.0
70
1
0
VERTEX
8
0
10
27.932000000000002
20
27.424000000000003
30
0
0
VERTEX
8
0
10
26.424000000000003
20
27.424000000000003
30
0
0
VERTEX
8
0
10
26.424000000000003
20
25.916
30
0
0
VERTEX
8
0
10
27.932000000000002
20
25.916
30
0
0
SEQEND
0
POLYLINE
66
1
8
1_copper
10
0.0
20
0.0
30
0.0
70
1
0
VERTEX
8
0
10
-0.008
20
24.884
30
0
0
VERTEX
8
0
10
-1.516
20
24.884
30
0
0
VERTEX
8
0
10
-1.516
20
23.376
30
0
0
VERTEX
8
0
10
-0.008
20
23.376
30
0
0
SEQEND
0
POLYLINE
66
1
8
1_copper
10
0.0
20
0.0
30
0.0
70
1
0
VERTEX
8
0
10
27.932000000000002
20
24.884
30
0
0
VERTEX
8
0
10
26.424000000000003
20
24.884
30
0
0
VERTEX
8
0
10
26.424000000000003
20
23.376
30
0
0
VERTEX
8
0
10
27.932000000000002
20
23.376
30
0
0
SEQEND
0
POLYLINE
66
1
8
1_copper
10
0.0
20
0.0
30
0.0
70
1
0
VERTEX
8
0
10
27.932000000000002
20
19.804000000000002
30
0
0
VERTEX
8
0
10
26.424000000000003
20
19.804000000000002
30
0
0
VERTEX
8
0
10
26.424000000000003
20
18.296
30
0
0
VERTEX
8
0
10
27.932000000000002
20
18.296
30
0
0
SEQEND
0
POLYLINE
66
1
8
1_copper
10
0.0
20
0.0
30
0.0
70
1
0
VERTEX
8
0
10
45.867818750000005
20
17.125959375
30
0
42
0.9063462356499619
0
VERTEX
8
0
10
45.80324375
20
18.4404
30
0
0
VERTEX
8
0
10
44.417556250000004
20
18.4404
30
0
42
0.9520786018124834
0
VERTEX
8
0
10
44.417556250000004
20
17.119600000000002
30
0
0
VERTEX
8
0
10
45.80324375
20
17.119600000000002
30
0
0
SEQEND
0
POLYLINE
66
1
8
1_copper
10
0.0
20
0.0
30
0.0
70
1
0
VERTEX
8
0
10
36.92701875
20
14.585959375
30
0
42
0.9063462356499619
0
VERTEX
8
0
10
36.862443750000004
20
15.900400000000001
30
0
0
VERTEX
8
0
10
35.47675625
20
15.900400000000001
30
0
42
0.9520786018124834
0
VERTEX
8
0
10
35.47675625
20
14.579600000000001
30
0
0
VERTEX
8
0
10
36.862443750000004
20
14.579600000000001
30
0
0
SEQEND
0
POLYLINE
66
1
8
16_copper
10
0.0
20
0.0
30
0.0
70
1
0
VERTEX
8
0
10
17.11501875
20
77.577959375
30
0
42
0.3578051432831595
0
VERTEX
8
0
10
17.6784
20
78.19955625
30
0
0
VERTEX
8
0
10
17.6784
20
79.58524375
30
0
42
0.9520786018124834
0
VERTEX
8
0
10
16.3576
20
79.58524375
30
0
0
VERTEX
8
0
10
16.3576
20
78.19955625
30
0
0
VERTEX
8
0
10
16.363959375
20
78.13498125000001
30
0
0
VERTEX
8
0
10
16.376618750000002
20
78.07134375
30
0
0
VERTEX
8
0
10
16.395453125
20
78.00925000000001
30
0
0
VERTEX
8
0
10
16.420284375
20
77.949303125
30
0
0
VERTEX
8
0
10
16.450871875
20
77.892078125
30
0
0
VERTEX
8
0
10
16.486921875
20
77.838125
30
0
0
VERTEX
8
0
10
16.528084375000002
20
77.78796875
30
0
0
VERTEX
8
0
10
16.573968750000002
20
77.742084375
30
0
0
VERTEX
8
0
10
16.624125
20
77.700921875
30
0
0
VERTEX
8
0
10
16.678078125000003
20
77.664871875
30
0
0
VERTEX
8
0
10
16.735303125
20
77.63428437500001
30
0
0
VERTEX
8
0
10
16.79525
20
77.609453125
30
0
0
VERTEX
8
0
10
16.857343750000002
20
77.59061875
30
0
0
VERTEX
8
0
10
16.92098125
20
77.577959375
30
0
0
VERTEX
8
0
10
16.985556250000002
20
77.5716
30
0
0
VERTEX
8
0
10
17.05044375
20
77.5716
30
0
0
SEQEND
0
POLYLINE
66
1
8
16_copper
10
0.0
20
0.0
30
0.0
70
1
0
VERTEX
8
0
10
22.195018750000003
20
68.63715937500001
30
0
42
0.3578051432831595
0
VERTEX
8
0
10
22.7584
20
69.25875625
30
0
0
VERTEX
8
0
10
22.7584
20
70.64444375000001
30
0
42
0.9520786018124834
0
VERTEX
8
0
10
21.4376
20
70.64444375000001
30
0
0
VERTEX
8
0
10
21.4376
20
69.25875625
30
0
0
VERTEX
8
0
10
21.443959375000002
20
69.19418125
30
0
0
VERTEX
8
0
10
21.45661875
20
69.13054375
30
0
0
VERTEX
8
0
10
21.475453125
20
69.06845
30
0
0
VERTEX
8
0
10
21.500284375
20
69.008503125
30
0
0
VERTEX
8
0
10
21.530871875000003
20
68.951278125
30
0
0
VERTEX
8
0
10
21.566921875000002
20
68.89732500000001
30
0
0
VERTEX
8
0
10
21.608084375
20
68.84716875000001
30
0
0
VERTEX
8
0
10
21.65396875
20
68.80128437500001
30
0
0
VERTEX
8
0
10
21.704125
20
68.76012187500001
30
0
0
VERTEX
8
0
10
21.758078125
20
68.724071875
30
0
0
VERTEX
8
0
10
21.815303125
20
68.693484375
30
0
0
VERTEX
8
0
10
21.87525
20
68.668653125
30
0
0
VERTEX
8
0
10
21.93734375
20
68.64981875000001
30
0
0
VERTEX
8
0
10
22.000981250000002
20
68.63715937500001
30
0
0
VERTEX
8
0
10
22.06555625
20
68.63080000000001
30
0
0
VERTEX
8
0
10
22.13044375
20
68.63080000000001
30
0
0
SEQEND
0
POLYLINE
66
1
8
16_copper
10
0.0
20
0.0
30
0.0
70
1
0
VERTEX
8
0
10
-0.008
20
55.364000000000004
30
0
0
VERTEX
8
0
10
-1.516
20
55.364000000000004
30
0
0
VERTEX
8
0
10
-1.516
20
53.856
30
0
0
VERTEX
8
0
10
-0.008
20
53.856
30
0
0
SEQEND
0
POLYLINE
66
1
8
16_copper
10
0.0
20
0.0
30
0.0
70
1
0
VERTEX
8
0
10
27.932000000000002
20
55.364000000000004
30
0
0
VERTEX
8
0
10
26.424000000000003
20
55.364000000000004
30
0
0
VERTEX
8
0
10
26.424000000000003
20
53.856
30
0
0
VERTEX
8
0
10
27.932000000000002
20
53.856
30
0
0
SEQEND
0
POLYLINE
66
1
8
16_copper
10
0.0
20
0.0
30
0.0
70
1
0
VERTEX
8
0
10
-0.008
20
52.824000000000005
30
0
0
VERTEX
8
0
10
-1.516
20
52.824000000000005
30
0
0
VERTEX
8
0
10
-1.516
20
51.316
30
0
0
VERTEX
8
0
10
-0.008
20
51.316
30
0
0
SEQEND
0
POLYLINE
66
1
8
16_copper
10
0.0
20
0.0
30
0.0
70
1
0
VERTEX
8
0
10
27.932000000000002
20
52.824000000000005
30
0
0
VERTEX
8
0
10
26.424000000000003
20
52.824000000000005
30
0
0
VERTEX
8
0
10
26.424000000000003
20
51.316
30
0
0
VERTEX
8
0
10
27.932000000000002
20
51.316
30
0
0
SEQEND
0
POLYLINE
66
1
8
16_copper
10
0.0
20
0.0
30
0.0
70
1
0
VERTEX
8
0
10
-0.008
20
50.284
30
0
0
VERTEX
8
0
10
-1.516
20
50.284
30
0
0
VERTEX
8
0
10
-1.516
20
48.776
30
0
0
VERTEX
8
0
10
-0.008
20
48.776
30
0
0
SEQEND
0
POLYLINE
66
1
8
16_copper
10
0.0
20
0.0
30
0.0
70
1
0
VERTEX
8
0
10
-0.008
20
47.744
30
0
0
VERTEX
8
0
10
-1.516
20
47.744
30
0
0
VERTEX
8
0
10
-1.516
20
46.236000000000004
30
0
0
VERTEX
8
0
10
-0.008
20
46.236000000000004
30
0
0
SEQEND
0
POLYLINE
66
1
8
16_copper
10
0.0
20
0.0
30
0.0
70
1
0
VERTEX
8
0
10
27.932000000000002
20
47.744
30
0
0
VERTEX
8
0
10
26.424000000000003
20
47.744
30
0
0
VERTEX
8
0
10
26.424000000000003
20
46.236000000000004
30
0
0
VERTEX
8
0
10
27.932000000000002
20
46.236000000000004
30
0
0
SEQEND
0
POLYLINE
66
1
8
16_copper
10
0.0
20
0.0
30
0.0
70
1
0
VERTEX
8
0
10
45.867818750000005
20
46.335959375
30
0
42
0.9063462356499619
0
VERTEX
8
0
10
45.80324375
20
47.650400000000005
30
0
0
VERTEX
8
0
10
44.417556250000004
20
47.650400000000005
30
0
42
0.9520786018124834
0
VERTEX
8
0
10
44.417556250000004
20
46.3296
30
0
0
VERTEX
8
0
10
45.80324375
20
46.3296
30
0
0
SEQEND
0
POLYLINE
66
1
8
16_copper
10
0.0
20
0.0
30
0.0
70
1
0
VERTEX
8
0
10
-0.008
20
45.204
30
0
0
VERTEX
8
0
10
-1.516
20
45.204
30
0
0
VERTEX
8
0
10
-1.516
20
43.696000000000005
30
0
0
VERTEX
8
0
10
-0.008
20
43.696000000000005
30
0
0
SEQEND
0
POLYLINE
66
1
8
16_copper
10
0.0
20
0.0
30
0.0
70
1
0
VERTEX
8
0
10
27.932000000000002
20
45.204
30
0
0
VERTEX
8
0
10
26.424000000000003
20
45.204
30
0
0
VERTEX
8
0
10
26.424000000000003
20
43.696000000000005
30
0
0
VERTEX
8
0
10
27.932000000000002
20
43.696000000000005
30
0
0
SEQEND
0
POLYLINE
66
1
8
16_copper
10
0.0
20
0.0
30
0.0
70
1
0
VERTEX
8
0
10
36.92701875
20
43.795959375
30
0
42
0.9063462356499619
0
VERTEX
8
0
10
36.862443750000004
20
45.110400000000006
30
0
0
VERTEX
8
0
10
35.47675625
20
45.110400000000006
30
0
42
0.9520786018124834
0
VERTEX
8
0
10
35.47675625
20
43.7896
30
0
0
VERTEX
8
0
10
36.862443750000004
20
43.7896
30
0
0
SEQEND
0
POLYLINE
66
1
8
16_copper
10
0.0
20
0.0
30
0.0
70
1
0
VERTEX
8
0
10
-0.008
20
42.664
30
0
0
VERTEX
8
0
10
-1.516
20
42.664
30
0
0
VERTEX
8
0
10
-1.516
20
41.156
30
0
0
VERTEX
8
0
10
-0.008
20
41.156
30
0
0
SEQEND
0
POLYLINE
66
1
8
16_copper
10
0.0
20
0.0
30
0.0
70
1
0
VERTEX
8
0
10
-0.008
20
40.124
30
0
0
VERTEX
8
0
10
-1.516
20
40.124
30
0
0
VERTEX
8
0
10
-1.516
20
38.616
30
0
0
VERTEX
8
0
10
-0.008
20
38.616
30
0
0
SEQEND
0
POLYLINE
66
1
8
16_copper
10
0.0
20
0.0
30
0.0
70
1
0
VERTEX
8
0
10
-0.008
20
37.584
30
0
0
VERTEX
8
0
10
-1.516
20
37.584
30
0
0
VERTEX
8
0
10
-1.516
20
36.076
30
0
0
VERTEX
8
0
10
-0.008
20
36.076
30
0
0
SEQEND
0
POLYLINE
66
1
8
16_copper
10
0.0
20
0.0
30
0.0
70
1
0
VERTEX
8
0
10
-0.008
20
35.044000000000004
30
0
0
VERTEX
8
0
10
-1.516
20
35.044000000000004
30
0
0
VERTEX
8
0
10
-1.516
20
33.536
30
0
0
VERTEX
8
0
10
-0.008
20
33.536
30
0
0
SEQEND
0
POLYLINE
66
1
8
16_copper
10
0.0
20
0.0
30
0.0
70
1
0
VERTEX
8
0
10
-0.008
20
32.504000000000005
30
0
0
VERTEX
8
0
10
-1.516
20
32.504000000000005
30
0
0
VERTEX
8
0
10
-1.516
20
30.996000000000002
30
0
0
VERTEX
8
0
10
-0.008
20
30.996000000000002
30
0
0
SEQEND
0
POLYLINE
66
1
8
16_copper
10
0.0
20
0.0
30
0.0
70
1
0
VERTEX
8
0
10
57.297818750000005
20
31.095959375000003
30
0
42
0.9063462356499619
0
VERTEX
8
0
10
57.23324375
20
32.4104
30
0
0
VERTEX
8
0
10
55.847556250000004
20
32.4104
30
0
42
0.9520786018124834
0
VERTEX
8
0
10
55.847556250000004
20
31.0896
30
0
0
VERTEX
8
0
10
57.23324375
20
31.0896
30
0
0
SEQEND
0
POLYLINE
66
1
8
16_copper
10
0.0
20
0.0
30
0.0
70
1
0
VERTEX
8
0
10
-0.008
20
29.964000000000002
30
0
0
VERTEX
8
0
10
-1.516
20
29.964000000000002
30
0
0
VERTEX
8
0
10
-1.516
20
28.456000000000003
30
0
0
VERTEX
8
0
10
-0.008
20
28.456000000000003
30
0
0
SEQEND
0
POLYLINE
66
1
8
16_copper
10
0.0
20
0.0
30
0.0
70
1
0
VERTEX
8
0
10
27.932000000000002
20
29.964000000000002
30
0
0
VERTEX
8
0
10
26.424000000000003
20
29.964000000000002
30
0
0
VERTEX
8
0
10
26.424000000000003
20
28.456000000000003
30
0
0
VERTEX
8
0
10
27.932000000000002
20
28.456000000000003
30
0
0
SEQEND
0
POLYLINE
66
1
8
16_copper
10
0.0
20
0.0
30
0.0
70
1
0
VERTEX
8
0
10
48.35701875
20
28.555959375
30
0
42
0.9063462356499619
0
VERTEX
8
0
10
48.292443750000004
20
29.8704
30
0
0
VERTEX
8
0
10
46.90675625
20
29.8704
30
0
42
0.9520786018124834
0
VERTEX
8
0
10
46.90675625
20
28.5496
30
0
0
VERTEX
8
0
10
48.292443750000004
20
28.5496
30
0
0
SEQEND
0
POLYLINE
66
1
8
16_copper
10
0.0
20
0.0
30
0.0
70
1
0
VERTEX
8
0
10
-0.008
20
27.424000000000003
30
0
0
VERTEX
8
0
10
-1.516
20
27.424000000000003
30
0
0
VERTEX
8
0
10
-1.516
20
25.916
30
0
0
VERTEX
8
0
10
-0.008
20
25.916
30
0
0
SEQEND
0
POLYLINE
66
1
8
16_copper
10
0.0
20
0.0
30
0.0
70
1
0
VERTEX
8
0
10
27.932000000000002
20
27.424000000000003
30
0
0
VERTEX
8
0
10
26.424000000000003
20
27.424000000000003
30
0
0
VERTEX
8
0
10
26.424000000000003
20
25.916
30
0
0
VERTEX
8
0
10
27.932000000000002
20
25.916
30
0
0
SEQEND
0
POLYLINE
66
1
8
16_copper
10
0.0
20
0.0
30
0.0
70
1
0
VERTEX
8
0
10
-0.008
20
24.884
30
0
0
VERTEX
8
0
10
-1.516
20
24.884
30
0
0
VERTEX
8
0
10
-1.516
20
23.376
30
0
0
VERTEX
8
0
10
-0.008
20
23.376
30
0
0
SEQEND
0
POLYLINE
66
1
8
16_copper
10
0.0
20
0.0
30
0.0
70
1
0
VERTEX
8
0
10
27.932000000000002
20
24.884
30
0
0
VERTEX
8
0
10
26.424000000000003
20
24.884
30
0
0
VERTEX
8
0
10
26.424000000000003
20
23.376
30
0
0
VERTEX
8
0
10
27.932000000000002
20
23.376
30
0
0
SEQEND
0
POLYLINE
66
1
8
16_copper
10
0.0
20
0.0
30
0.0
70
1
0
VERTEX
8
0
10
27.932000000000002
20
19.804000000000002
30
0
0
VERTEX
8
0
10
26.424000000000003
20
19.804000000000002
30
0
0
VERTEX
8
0
10
26.424000000000003
20
18.296
30
0
0
VERTEX
8
0
10
27.932000000000002
20
18.296
30
0
0
SEQEND
0
POLYLINE
66
1
8
16_copper
10
0.0
20
0.0
30
0.0
70
1
0
VERTEX
8
0
10
45.867818750000005
20
17.125959375
30
0
42
0.9063462356499619
0
VERTEX
8
0
10
45.80324375
20
18.4404
30
0
0
VERTEX
8
0
10
44.417556250000004
20
18.4404
30
0
42
0.9520786018124834
0
VERTEX
8
0
10
44.417556250000004
20
17.119600000000002
30
0
0
VERTEX
8
0
10
45.80324375
20
17.119600000000002
30
0
0
SEQEND
0
POLYLINE
66
1
8
16_copper
10
0.0
20
0.0
30
0.0
70
1
0
VERTEX
8
0
10
36.92701875
20
14.585959375
30
0
42
0.9063462356499619
0
VERTEX
8
0
10
36.862443750000004
20
15.900400000000001
30
0
0
VERTEX
8
0
10
35.47675625
20
15.900400000000001
30
0
42
0.9520786018124834
0
VERTEX
8
0
10
35.47675625
20
14.579600000000001
30
0
0
VERTEX
8
0
10
36.862443750000004
20
14.579600000000001
30
0
0
SEQEND
0
POLYLINE
66
1
8
1_copper
10
0.0
20
0.0
30
0.0
70
1
0
VERTEX
8
0
10
19.65501875
20
68.63715937500001
30
0
42
0.3578051432831595
0
VERTEX
8
0
10
20.218400000000003
20
69.25875625
30
0
0
VERTEX
8
0
10
20.218400000000003
20
70.64444375000001
30
0
42
0.9520786018124834
0
VERTEX
8
0
10
18.8976
20
70.64444375000001
30
0
0
VERTEX
8
0
10
18.8976
20
69.25875625
30
0
0
VERTEX
8
0
10
18.903959375
20
69.19418125
30
0
0
VERTEX
8
0
10
18.91661875
20
69.13054375
30
0
0
VERTEX
8
0
10
18.935453125000002
20
69.06845
30
0
0
VERTEX
8
0
10
18.960284375
20
69.008503125
30
0
0
VERTEX
8
0
10
18.990871875
20
68.951278125
30
0
0
VERTEX
8
0
10
19.026921875
20
68.89732500000001
30
0
0
VERTEX
8
0
10
19.068084375
20
68.84716875000001
30
0
0
VERTEX
8
0
10
19.11396875
20
68.80128437500001
30
0
0
VERTEX
8
0
10
19.164125000000002
20
68.76012187500001
30
0
0
VERTEX
8
0
10
19.218078125
20
68.724071875
30
0
0
VERTEX
8
0
10
19.275303125
20
68.693484375
30
0
0
VERTEX
8
0
10
19.335250000000002
20
68.668653125
30
0
0
VERTEX
8
0
10
19.39734375
20
68.64981875000001
30
0
0
VERTEX
8
0
10
19.46098125
20
68.63715937500001
30
0
0
VERTEX
8
0
10
19.52555625
20
68.63080000000001
30
0
0
VERTEX
8
0
10
19.590443750000002
20
68.63080000000001
30
0
0
SEQEND
0
POLYLINE
66
1
8
1_copper
10
0.0
20
0.0
30
0.0
70
1
0
VERTEX
8
0
10
20.3962
20
56.548806250000005
30
0
0
VERTEX
8
0
10
20.3962
20
57.24319375
30
0
0
VERTEX
8
0
10
19.905193750000002
20
57.7342
30
0
0
VERTEX
8
0
10
19.21080625
20
57.7342
30
0
0
VERTEX
8
0
10
18.7198
20
57.24319375
30
0
0
VERTEX
8
0
10
18.7198
20
56.548806250000005
30
0
0
VERTEX
8
0
10
19.21080625
20
56.0578
30
0
0
VERTEX
8
0
10
19.905193750000002
20
56.0578
30
0
0
SEQEND
0
POLYLINE
66
1
8
1_copper
10
0.0
20
0.0
30
0.0
70
1
0
VERTEX
8
0
10
27.932000000000002
20
50.284
30
0
0
VERTEX
8
0
10
26.424000000000003
20
50.284
30
0
0
VERTEX
8
0
10
26.424000000000003
20
48.776
30
0
0
VERTEX
8
0
10
27.932000000000002
20
48.776
30
0
0
SEQEND
0
POLYLINE
66
1
8
16_copper
10
0.0
20
0.0
30
0.0
70
1
0
VERTEX
8
0
10
27.932000000000002
20
50.284
30
0
0
VERTEX
8
0
10
26.424000000000003
20
50.284
30
0
0
VERTEX
8
0
10
26.424000000000003
20
49.8348
30
0
0
VERTEX
8
0
10
24.00225
20
49.8348
30
0
0
VERTEX
8
0
10
19.8628
20
53.974250000000005
30
0
0
VERTEX
8
0
10
19.8628
20
56.0578
30
0
0
VERTEX
8
0
10
19.905193750000002
20
56.0578
30
0
0
VERTEX
8
0
10
20.3962
20
56.548806250000005
30
0
0
VERTEX
8
0
10
20.3962
20
57.24319375
30
0
0
VERTEX
8
0
10
19.905193750000002
20
57.7342
30
0
0
VERTEX
8
0
10
19.8628
20
57.7342
30
0
0
VERTEX
8
0
10
19.8628
20
68.70530000000001
30
0
42
0.2665601437439214
0
VERTEX
8
0
10
20.218400000000003
20
69.25875625
30
0
0
VERTEX
8
0
10
20.218400000000003
20
70.64444375000001
30
0
42
0.9520786018124834
0
VERTEX
8
0
10
18.8976
20
70.64444375000001
30
0
0
VERTEX
8
0
10
18.8976
20
69.25875625
30
0
42
0.2665601437439214
0
VERTEX
8
0
10
19.2532
20
68.70530000000001
30
0
0
VERTEX
8
0
10
19.2532
20
57.7342
30
0
0
VERTEX
8
0
10
19.21080625
20
57.7342
30
0
0
VERTEX
8
0
10
18.7198
20
57.24319375
30
0
0
VERTEX
8
0
10
18.7198
20
56.548806250000005
30
0
0
VERTEX
8
0
10
19.21080625
20
56.0578
30
0
0
VERTEX
8
0
10
19.2532
20
56.0578
30
0
0
VERTEX
8
0
10
19.2532
20
53.848000000000006
30
0
42
0.198912367379658
0
VERTEX
8
0
10
19.342475
20
53.632475
30
0
0
VERTEX
8
0
10
23.660475
20
49.314475
30
0
42
0.198912367379658
0
VERTEX
8
0
10
23.876
20
49.2252
30
0
0
VERTEX
8
0
10
26.424000000000003
20
49.2252
30
0
0
VERTEX
8
0
10
26.424000000000003
20
48.776
30
0
0
VERTEX
8
0
10
27.932000000000002
20
48.776
30
0
0
SEQEND
0
POLYLINE
66
1
8
1_copper
10
0.0
20
0.0
30
0.0
70
1
0
VERTEX
8
0
10
32.5882
20
36.48280625
30
0
0
VERTEX
8
0
10
32.5882
20
37.17719375
30
0
0
VERTEX
8
0
10
32.09719375
20
37.6682
30
0
0
VERTEX
8
0
10
31.40280625
20
37.6682
30
0
0
VERTEX
8
0
10
30.911800000000003
20
37.17719375
30
0
0
VERTEX
8
0
10
30.911800000000003
20
36.48280625
30
0
0
VERTEX
8
0
10
31.40280625
20
35.991800000000005
30
0
0
VERTEX
8
0
10
32.09719375
20
35.991800000000005
30
0
0
SEQEND
0
POLYLINE
66
1
8
1_copper
10
0.0
20
0.0
30
0.0
70
1
0
VERTEX
8
0
10
27.932000000000002
20
37.584
30
0
0
VERTEX
8
0
10
26.424000000000003
20
37.584
30
0
0
VERTEX
8
0
10
26.424000000000003
20
36.076
30
0
0
VERTEX
8
0
10
27.932000000000002
20
36.076
30
0
0
SEQEND
0
POLYLINE
66
1
8
1_copper
10
0.0
20
0.0
30
0.0
70
1
0
VERTEX
8
0
10
16.078200000000002
20
19.97280625
30
0
0
VERTEX
8
0
10
16.078200000000002
20
20.667193750000003
30
0
0
VERTEX
8
0
10
15.58719375
20
21.1582
30
0
0
VERTEX
8
0
10
14.892806250000001
20
21.1582
30
0
0
VERTEX
8
0
10
14.401800000000001
20
20.667193750000003
30
0
0
VERTEX
8
0
10
14.401800000000001
20
19.97280625
30
0
0
VERTEX
8
0
10
14.892806250000001
20
19.4818
30
0
0
VERTEX
8
0
10
15.58719375
20
19.4818
30
0
0
SEQEND
0
POLYLINE
66
1
8
16_copper
10
0.0
20
0.0
30
0.0
70
1
0
VERTEX
8
0
10
16.078200000000002
20
19.97280625
30
0
0
VERTEX
8
0
10
16.078200000000002
20
20.667193750000003
30
0
0
VERTEX
8
0
10
15.58719375
20
21.1582
30
0
0
VERTEX
8
0
10
15.5448
20
21.1582
30
0
0
VERTEX
8
0
10
15.5448
20
27.30575
30
0
0
VERTEX
8
0
10
24.76425
20
36.525200000000005
30
0
0
VERTEX
8
0
10
26.424000000000003
20
36.525200000000005
30
0
0
VERTEX
8
0
10
26.424000000000003
20
36.076
30
0
0
VERTEX
8
0
10
27.932000000000002
20
36.076
30
0
0
VERTEX
8
0
10
27.932000000000002
20
36.525200000000005
30
0
0
VERTEX
8
0
10
30.911800000000003
20
36.525200000000005
30
0
0
VERTEX
8
0
10
30.911800000000003
20
36.48280625
30
0
0
VERTEX
8
0
10
31.40280625
20
35.991800000000005
30
0
0
VERTEX
8
0
10
32.09719375
20
35.991800000000005
30
0
0
VERTEX
8
0
10
32.5882
20
36.48280625
30
0
0
VERTEX
8
0
10
32.5882
20
37.17719375
30
0
0
VERTEX
8
0
10
32.09719375
20
37.6682
30
0
0
VERTEX
8
0
10
31.40280625
20
37.6682
30
0
0
VERTEX
8
0
10
30.911800000000003
20
37.17719375
30
0
0
VERTEX
8
0
10
30.911800000000003
20
37.1348
30
0
0
VERTEX
8
0
10
27.932000000000002
20
37.1348
30
0
0
VERTEX
8
0
10
27.932000000000002
20
37.584
30
0
0
VERTEX
8
0
10
26.424000000000003
20
37.584
30
0
0
VERTEX
8
0
10
26.424000000000003
20
37.1348
30
0
0
VERTEX
8
0
10
24.638
20
37.1348
30
0
42
0.198912367379658
0
VERTEX
8
0
10
24.422475000000002
20
37.045525000000005
30
0
0
VERTEX
8
0
10
15.024475
20
27.647525
30
0
42
0.198912367379658
0
VERTEX
8
0
10
14.9352
20
27.432000000000002
30
0
0
VERTEX
8
0
10
14.9352
20
21.1582
30
0
0
VERTEX
8
0
10
14.892806250000001
20
21.1582
30
0
0
VERTEX
8
0
10
14.401800000000001
20
20.667193750000003
30
0
0
VERTEX
8
0
10
14.401800000000001
20
19.97280625
30
0
0
VERTEX
8
0
10
14.892806250000001
20
19.4818
30
0
0
VERTEX
8
0
10
15.58719375
20
19.4818
30
0
0
SEQEND
0
POLYLINE
66
1
8
1_copper
10
0.0
20
0.0
30
0.0
70
1
0
VERTEX
8
0
10
32.5882
20
33.942806250000004
30
0
0
VERTEX
8
0
10
32.5882
20
34.63719375
30
0
0
VERTEX
8
0
10
32.09719375
20
35.1282
30
0
0
VERTEX
8
0
10
31.40280625
20
35.1282
30
0
0
VERTEX
8
0
10
30.911800000000003
20
34.63719375
30
0
0
VERTEX
8
0
10
30.911800000000003
20
33.942806250000004
30
0
0
VERTEX
8
0
10
31.40280625
20
33.4518
30
0
0
VERTEX
8
0
10
32.09719375
20
33.4518
30
0
0
SEQEND
0
POLYLINE
66
1
8
1_copper
10
0.0
20
0.0
30
0.0
70
1
0
VERTEX
8
0
10
27.932000000000002
20
35.044000000000004
30
0
0
VERTEX
8
0
10
26.424000000000003
20
35.044000000000004
30
0
0
VERTEX
8
0
10
26.424000000000003
20
33.536
30
0
0
VERTEX
8
0
10
27.932000000000002
20
33.536
30
0
0
SEQEND
0
POLYLINE
66
1
8
1_copper
10
0.0
20
0.0
30
0.0
70
1
0
VERTEX
8
0
10
19.8882
20
19.97280625
30
0
0
VERTEX
8
0
10
19.8882
20
20.667193750000003
30
0
0
VERTEX
8
0
10
19.39719375
20
21.1582
30
0
0
VERTEX
8
0
10
18.702806250000002
20
21.1582
30
0
0
VERTEX
8
0
10
18.2118
20
20.667193750000003
30
0
0
VERTEX
8
0
10
18.2118
20
19.97280625
30
0
0
VERTEX
8
0
10
18.702806250000002
20
19.4818
30
0
0
VERTEX
8
0
10
19.39719375
20
19.4818
30
0
0
SEQEND
0
POLYLINE
66
1
8
16_copper
10
0.0
20
0.0
30
0.0
70
1
0
VERTEX
8
0
10
19.8882
20
19.97280625
30
0
0
VERTEX
8
0
10
19.8882
20
20.667193750000003
30
0
0
VERTEX
8
0
10
19.39719375
20
21.1582
30
0
0
VERTEX
8
0
10
19.3548
20
21.1582
30
0
0
VERTEX
8
0
10
19.3548
20
28.575750000000003
30
0
0
VERTEX
8
0
10
24.76425
20
33.9852
30
0
0
VERTEX
8
0
10
26.424000000000003
20
33.9852
30
0
0
VERTEX
8
0
10
26.424000000000003
20
33.536
30
0
0
VERTEX
8
0
10
27.932000000000002
20
33.536
30
0
0
VERTEX
8
0
10
27.932000000000002
20
33.9852
30
0
0
VERTEX
8
0
10
30.911800000000003
20
33.9852
30
0
0
VERTEX
8
0
10
30.911800000000003
20
33.942806250000004
30
0
0
VERTEX
8
0
10
31.40280625
20
33.4518
30
0
0
VERTEX
8
0
10
32.09719375
20
33.4518
30
0
0
VERTEX
8
0
10
32.5882
20
33.942806250000004
30
0
0
VERTEX
8
0
10
32.5882
20
34.63719375
30
0
0
VERTEX
8
0
10
32.09719375
20
35.1282
30
0
0
VERTEX
8
0
10
31.40280625
20
35.1282
30
0
0
VERTEX
8
0
10
30.911800000000003
20
34.63719375
30
0
0
VERTEX
8
0
10
30.911800000000003
20
34.5948
30
0
0
VERTEX
8
0
10
27.932000000000002
20
34.5948
30
0
0
VERTEX
8
0
10
27.932000000000002
20
35.044000000000004
30
0
0
VERTEX
8
0
10
26.424000000000003
20
35.044000000000004
30
0
0
VERTEX
8
0
10
26.424000000000003
20
34.5948
30
0
0
VERTEX
8
0
10
24.638
20
34.5948
30
0
42
0.198912367379658
0
VERTEX
8
0
10
24.422475000000002
20
34.505525
30
0
0
VERTEX
8
0
10
18.834475
20
28.917525
30
0
42
0.198912367379658
0
VERTEX
8
0
10
18.7452
20
28.702
30
0
0
VERTEX
8
0
10
18.7452
20
21.1582
30
0
0
VERTEX
8
0
10
18.702806250000002
20
21.1582
30
0
0
VERTEX
8
0
10
18.2118
20
20.667193750000003
30
0
0
VERTEX
8
0
10
18.2118
20
19.97280625
30
0
0
VERTEX
8
0
10
18.702806250000002
20
19.4818
30
0
0
VERTEX
8
0
10
19.39719375
20
19.4818
30
0
0
SEQEND
0
POLYLINE
66
1
8
1_copper
10
0.0
20
0.0
30
0.0
70
1
0
VERTEX
8
0
10
32.5882
20
31.40280625
30
0
0
VERTEX
8
0
10
32.5882
20
32.09719375
30
0
0
VERTEX
8
0
10
32.09719375
20
32.5882
30
0
0
VERTEX
8
0
10
31.40280625
20
32.5882
30
0
0
VERTEX
8
0
10
30.911800000000003
20
32.09719375
30
0
0
VERTEX
8
0
10
30.911800000000003
20
31.40280625
30
0
0
VERTEX
8
0
10
31.40280625
20
30.911800000000003
30
0
0
VERTEX
8
0
10
32.09719375
20
30.911800000000003
30
0
0
SEQEND
0
POLYLINE
66
1
8
1_copper
10
0.0
20
0.0
30
0.0
70
1
0
VERTEX
8
0
10
27.932000000000002
20
32.504000000000005
30
0
0
VERTEX
8
0
10
26.424000000000003
20
32.504000000000005
30
0
0
VERTEX
8
0
10
26.424000000000003
20
30.996000000000002
30
0
0
VERTEX
8
0
10
27.932000000000002
20
30.996000000000002
30
0
0
SEQEND
0
POLYLINE
66
1
8
1_copper
10
0.0
20
0.0
30
0.0
70
1
0
VERTEX
8
0
10
23.6982
20
19.97280625
30
0
0
VERTEX
8
0
10
23.6982
20
20.667193750000003
30
0
0
VERTEX
8
0
10
23.207193750000002
20
21.1582
30
0
0
VERTEX
8
0
10
22.51280625
20
21.1582
30
0
0
VERTEX
8
0
10
22.021800000000002
20
20.667193750000003
30
0
0
VERTEX
8
0
10
22.021800000000002
20
19.97280625
30
0
0
VERTEX
8
0
10
22.51280625
20
19.4818
30
0
0
VERTEX
8
0
10
23.207193750000002
20
19.4818
30
0
0
SEQEND
0
POLYLINE
66
1
8
16_copper
10
0.0
20
0.0
30
0.0
70
1
0
VERTEX
8
0
10
23.6982
20
19.97280625
30
0
0
VERTEX
8
0
10
23.6982
20
20.667193750000003
30
0
0
VERTEX
8
0
10
23.207193750000002
20
21.1582
30
0
0
VERTEX
8
0
10
23.1648
20
21.1582
30
0
0
VERTEX
8
0
10
23.1648
20
28.82975
30
0
0
VERTEX
8
0
10
25.780250000000002
20
31.4452
30
0
0
VERTEX
8
0
10
26.424000000000003
20
31.4452
30
0
0
VERTEX
8
0
10
26.424000000000003
20
30.996000000000002
30
0
0
VERTEX
8
0
10
27.932000000000002
20
30.996000000000002
30
0
0
VERTEX
8
0
10
27.932000000000002
20
31.4452
30
0
0
VERTEX
8
0
10
30.911800000000003
20
31.4452
30
0
0
VERTEX
8
0
10
30.911800000000003
20
31.40280625
30
0
0
VERTEX
8
0
10
31.40280625
20
30.911800000000003
30
0
0
VERTEX
8
0
10
32.09719375
20
30.911800000000003
30
0
0
VERTEX
8
0
10
32.5882
20
31.40280625
30
0
0
VERTEX
8
0
10
32.5882
20
32.09719375
30
0
0
VERTEX
8
0
10
32.09719375
20
32.5882
30
0
0
VERTEX
8
0
10
31.40280625
20
32.5882
30
0
0
VERTEX
8
0
10
30.911800000000003
20
32.09719375
30
0
0
VERTEX
8
0
10
30.911800000000003
20
32.0548
30
0
0
VERTEX
8
0
10
27.932000000000002
20
32.0548
30
0
0
VERTEX
8
0
10
27.932000000000002
20
32.504000000000005
30
0
0
VERTEX
8
0
10
26.424000000000003
20
32.504000000000005
30
0
0
VERTEX
8
0
10
26.424000000000003
20
32.0548
30
0
0
VERTEX
8
0
10
25.654
20
32.0548
30
0
42
0.198912367379658
0
VERTEX
8
0
10
25.438475
20
31.965525000000003
30
0
0
VERTEX
8
0
10
22.644475
20
29.171525000000003
30
0
42
0.198912367379658
0
VERTEX
8
0
10
22.555200000000003
20
28.956000000000003
30
0
0
VERTEX
8
0
10
22.555200000000003
20
21.1582
30
0
0
VERTEX
8
0
10
22.51280625
20
21.1582
30
0
0
VERTEX
8
0
10
22.021800000000002
20
20.667193750000003
30
0
0
VERTEX
8
0
10
22.021800000000002
20
19.97280625
30
0
0
VERTEX
8
0
10
22.51280625
20
19.4818
30
0
0
VERTEX
8
0
10
23.207193750000002
20
19.4818
30
0
0
SEQEND
0
POLYLINE
66
1
8
1_copper
10
0.0
20
0.0
30
0.0
70
1
0
VERTEX
8
0
10
36.92701875
20
46.335959375
30
0
42
0.9063462356499619
0
VERTEX
8
0
10
36.862443750000004
20
47.650400000000005
30
0
0
VERTEX
8
0
10
35.47675625
20
47.650400000000005
30
0
42
0.9520786018124834
0
VERTEX
8
0
10
35.47675625
20
46.3296
30
0
0
VERTEX
8
0
10
36.862443750000004
20
46.3296
30
0
0
SEQEND
0
POLYLINE
66
1
8
1_copper
10
0.0
20
0.0
30
0.0
70
1
0
VERTEX
8
0
10
48.35701875
20
31.095959375000003
30
0
42
0.9063462356499619
0
VERTEX
8
0
10
48.292443750000004
20
32.4104
30
0
0
VERTEX
8
0
10
46.90675625
20
32.4104
30
0
42
0.9520786018124834
0
VERTEX
8
0
10
46.90675625
20
31.0896
30
0
0
VERTEX
8
0
10
48.292443750000004
20
31.0896
30
0
0
SEQEND
0
POLYLINE
66
1
8
1_copper
10
0.0
20
0.0
30
0.0
70
1
0
VERTEX
8
0
10
27.932000000000002
20
22.344
30
0
0
VERTEX
8
0
10
26.424000000000003
20
22.344
30
0
0
VERTEX
8
0
10
26.424000000000003
20
20.836000000000002
30
0
0
VERTEX
8
0
10
27.932000000000002
20
20.836000000000002
30
0
0
SEQEND
0
POLYLINE
66
1
8
1_copper
10
0.0
20
0.0
30
0.0
70
1
0
VERTEX
8
0
10
36.92701875
20
17.125959375
30
0
42
0.9063462356499619
0
VERTEX
8
0
10
36.862443750000004
20
18.4404
30
0
0
VERTEX
8
0
10
35.47675625
20
18.4404
30
0
42
0.9520786018124834
0
VERTEX
8
0
10
35.47675625
20
17.119600000000002
30
0
0
VERTEX
8
0
10
36.862443750000004
20
17.119600000000002
30
0
0
SEQEND
0
POLYLINE
66
1
8
1_copper
10
0.0
20
0.0
30
0.0
70
1
0
VERTEX
8
0
10
15.570200000000002
20
1.17680625
30
0
0
VERTEX
8
0
10
15.570200000000002
20
1.87119375
30
0
0
VERTEX
8
0
10
15.07919375
20
2.3622
30
0
0
VERTEX
8
0
10
14.38480625
20
2.3622
30
0
0
VERTEX
8
0
10
13.8938
20
1.87119375
30
0
0
VERTEX
8
0
10
13.8938
20
1.17680625
30
0
0
VERTEX
8
0
10
14.38480625
20
0.6858000000000001
30
0
0
VERTEX
8
0
10
15.07919375
20
0.6858000000000001
30
0
0
SEQEND
0
POLYLINE
66
1
8
1_copper
10
0.0
20
0.0
30
0.0
70
1
0
VERTEX
8
0
10
29.2862
20
1.17680625
30
0
0
VERTEX
8
0
10
29.2862
20
1.87119375
30
0
0
VERTEX
8
0
10
28.795193750000003
20
2.3622
30
0
0
VERTEX
8
0
10
28.10080625
20
2.3622
30
0
0
VERTEX
8
0
10
27.6098
20
1.87119375
30
0
0
VERTEX
8
0
10
27.6098
20
1.17680625
30
0
0
VERTEX
8
0
10
28.10080625
20
0.6858000000000001
30
0
0
VERTEX
8
0
10
28.795193750000003
20
0.6858000000000001
30
0
0
SEQEND
0
POLYLINE
66
1
8
1_copper
10
0.0
20
0.0
30
0.0
70
1
0
VERTEX
8
0
10
22.9362
20
1.17680625
30
0
0
VERTEX
8
0
10
22.9362
20
1.87119375
30
0
0
VERTEX
8
0
10
22.44519375
20
2.3622
30
0
0
VERTEX
8
0
10
21.75080625
20
2.3622
30
0
0
VERTEX
8
0
10
21.259800000000002
20
1.87119375
30
0
0
VERTEX
8
0
10
21.259800000000002
20
1.17680625
30
0
0
VERTEX
8
0
10
21.75080625
20
0.6858000000000001
30
0
0
VERTEX
8
0
10
22.44519375
20
0.6858000000000001
30
0
0
SEQEND
0
POLYLINE
66
1
8
16_copper
10
0.0
20
0.0
30
0.0
70
1
0
VERTEX
8
0
10
30.187525
20
21.805525
30
0
42
0.198912367379658
0
VERTEX
8
0
10
29.972
20
21.8948
30
0
0
VERTEX
8
0
10
27.932000000000002
20
21.8948
30
0
0
VERTEX
8
0
10
27.932000000000002
20
22.344
30
0
0
VERTEX
8
0
10
26.424000000000003
20
22.344
30
0
0
VERTEX
8
0
10
26.424000000000003
20
20.836000000000002
30
0
0
VERTEX
8
0
10
27.932000000000002
20
20.836000000000002
30
0
0
VERTEX
8
0
10
27.932000000000002
20
21.2852
30
0
0
VERTEX
8
0
10
29.845750000000002
20
21.2852
30
0
0
VERTEX
8
0
10
33.566475000000004
20
17.564475
30
0
42
0.04498849225940534
0
VERTEX
8
0
10
33.6088375
20
17.5298875
30
0
0
VERTEX
8
0
10
32.804475000000004
20
16.725525
30
0
42
0.198912367379658
0
VERTEX
8
0
10
32.7152
20
16.51
30
0
0
VERTEX
8
0
10
32.7152
20
6.222250000000001
30
0
0
VERTEX
8
0
10
28.825171875000002
20
2.332221875
30
0
0
VERTEX
8
0
10
28.795193750000003
20
2.3622
30
0
0
VERTEX
8
0
10
28.10080625
20
2.3622
30
0
0
VERTEX
8
0
10
27.6098
20
1.87119375
30
0
0
VERTEX
8
0
10
27.6098
20
1.17680625
30
0
0
VERTEX
8
0
10
27.995378125000002
20
0.7912281250000001
30
0
0
VERTEX
8
0
10
27.051750000000002
20
-0.1524
30
0
0
VERTEX
8
0
10
24.205450000000003
20
-0.1524
30
0
0
VERTEX
8
0
10
22.906221875
20
1.146828125
30
0
0
VERTEX
8
0
10
22.9362
20
1.17680625
30
0
0
VERTEX
8
0
10
22.9362
20
1.87119375
30
0
0
VERTEX
8
0
10
22.44519375
20
2.3622
30
0
0
VERTEX
8
0
10
21.75080625
20
2.3622
30
0
0
VERTEX
8
0
10
21.259800000000002
20
1.87119375
30
0
0
VERTEX
8
0
10
21.259800000000002
20
1.17680625
30
0
0
VERTEX
8
0
10
21.543778125
20
0.8928281250000001
30
0
0
VERTEX
8
0
10
20.49855
20
-0.1524
30
0
0
VERTEX
8
0
10
16.83945
20
-0.1524
30
0
0
VERTEX
8
0
10
15.540221875
20
1.146828125
30
0
0
VERTEX
8
0
10
15.570200000000002
20
1.17680625
30
0
0
VERTEX
8
0
10
15.570200000000002
20
1.87119375
30
0
0
VERTEX
8
0
10
15.07919375
20
2.3622
30
0
0
VERTEX
8
0
10
14.38480625
20
2.3622
30
0
0
VERTEX
8
0
10
13.8938
20
1.87119375
30
0
0
VERTEX
8
0
10
13.8938
20
1.17680625
30
0
0
VERTEX
8
0
10
14.38480625
20
0.6858000000000001
30
0
0
VERTEX
8
0
10
15.07919375
20
0.6858000000000001
30
0
0
VERTEX
8
0
10
15.109171875000001
20
0.715778125
30
0
0
VERTEX
8
0
10
16.497675
20
-0.672725
30
0
42
0.198912367379658
0
VERTEX
8
0
10
16.7132
20
-0.762
30
0
0
VERTEX
8
0
10
20.6248
20
-0.762
30
0
42
0.198912367379658
0
VERTEX
8
0
10
20.840325
20
-0.672725
30
0
0
VERTEX
8
0
10
22.19885
20
0.6858000000000001
30
0
0
VERTEX
8
0
10
22.44519375
20
0.6858000000000001
30
0
0
VERTEX
8
0
10
22.475171875
20
0.715778125
30
0
0
VERTEX
8
0
10
23.863675
20
-0.672725
30
0
42
0.198912367379658
0
VERTEX
8
0
10
24.0792
20
-0.762
30
0
0
VERTEX
8
0
10
27.178
20
-0.762
30
0
42
0.198912367379658
0
VERTEX
8
0
10
27.393525
20
-0.672725
30
0
0
VERTEX
8
0
10
28.663525
20
0.597275
30
0
42
0.08906525492338713
0
VERTEX
8
0
10
28.7248625
20
0.6858000000000001
30
0
0
VERTEX
8
0
10
28.795193750000003
20
0.6858000000000001
30
0
0
VERTEX
8
0
10
29.2862
20
1.17680625
30
0
0
VERTEX
8
0
10
29.2862
20
1.87119375
30
0
0
VERTEX
8
0
10
29.256221875
20
1.9011718750000002
30
0
0
VERTEX
8
0
10
33.235525
20
5.880475000000001
30
0
42
0.198912367379658
0
VERTEX
8
0
10
33.3248
20
6.096
30
0
0
VERTEX
8
0
10
33.3248
20
16.38375
30
0
0
VERTEX
8
0
10
34.416250000000005
20
17.4752
30
0
0
VERTEX
8
0
10
34.923300000000005
20
17.4752
30
0
42
0.2665601437439214
0
VERTEX
8
0
10
35.47675625
20
17.119600000000002
30
0
0
VERTEX
8
0
10
36.862443750000004
20
17.119600000000002
30
0
42
0.2665601437439214
0
VERTEX
8
0
10
37.4159
20
17.4752
30
0
0
VERTEX
8
0
10
39.370000000000005
20
17.4752
30
0
42
0.198912367379658
0
VERTEX
8
0
10
39.585525000000004
20
17.564475
30
0
0
VERTEX
8
0
10
40.855525
20
18.834475
30
0
42
0.198912367379658
0
VERTEX
8
0
10
40.9448
20
19.05
30
0
0
VERTEX
8
0
10
40.9448
20
22.73375
30
0
0
VERTEX
8
0
10
43.30625
20
25.095200000000002
30
0
0
VERTEX
8
0
10
50.800000000000004
20
25.095200000000002
30
0
42
0.198912367379658
0
VERTEX
8
0
10
51.015525000000004
20
25.184475000000003
30
0
0
VERTEX
8
0
10
52.285525
20
26.454475000000002
30
0
42
0.198912367379658
0
VERTEX
8
0
10
52.3748
20
26.67
30
0
0
VERTEX
8
0
10
52.3748
20
30.48
30
0
42
0.198912367379658
0
VERTEX
8
0
10
52.285525
20
30.695525
30
0
0
VERTEX
8
0
10
51.23105
20
31.75
30
0
0
VERTEX
8
0
10
52.285525
20
32.804475000000004
30
0
42
0.198912367379658
0
VERTEX
8
0
10
52.3748
20
33.02
30
0
0
VERTEX
8
0
10
52.3748
20
36.83
30
0
42
0.198912367379658
0
VERTEX
8
0
10
52.285525
20
37.045525000000005
30
0
0
VERTEX
8
0
10
51.015525000000004
20
38.315525
30
0
42
0.198912367379658
0
VERTEX
8
0
10
50.800000000000004
20
38.4048
30
0
0
VERTEX
8
0
10
45.846250000000005
20
38.4048
30
0
0
VERTEX
8
0
10
40.9448
20
43.30625
30
0
0
VERTEX
8
0
10
40.9448
20
44.45
30
0
42
0.198912367379658
0
VERTEX
8
0
10
40.855525
20
44.665525
30
0
0
VERTEX
8
0
10
38.315525
20
47.205525
30
0
42
0.198912367379658
0
VERTEX
8
0
10
38.1
20
47.2948
30
0
0
VERTEX
8
0
10
37.4159
20
47.2948
30
0
42
0.2665601437439214
0
VERTEX
8
0
10
36.862443750000004
20
47.650400000000005
30
0
0
VERTEX
8
0
10
35.47675625
20
47.650400000000005
30
0
42
0.9520786018124834
0
VERTEX
8
0
10
35.47675625
20
46.3296
30
0
0
VERTEX
8
0
10
36.862443750000004
20
46.3296
30
0
42
0.2665601437439214
0
VERTEX
8
0
10
37.4159
20
46.6852
30
0
0
VERTEX
8
0
10
37.97375
20
46.6852
30
0
0
VERTEX
8
0
10
40.3352
20
44.323750000000004
30
0
0
VERTEX
8
0
10
40.3352
20
43.18
30
0
42
0.198912367379658
0
VERTEX
8
0
10
40.424475
20
42.964475
30
0
0
VERTEX
8
0
10
45.504475
20
37.884475
30
0
42
0.198912367379658
0
VERTEX
8
0
10
45.72
20
37.7952
30
0
0
VERTEX
8
0
10
50.673750000000005
20
37.7952
30
0
0
VERTEX
8
0
10
51.7652
20
36.70375
30
0
0
VERTEX
8
0
10
51.7652
20
33.14625
30
0
0
VERTEX
8
0
10
50.673750000000005
20
32.0548
30
0
0
VERTEX
8
0
10
48.8459
20
32.0548
30
0
42
0.2665601437439214
0
VERTEX
8
0
10
48.292443750000004
20
32.4104
30
0
0
VERTEX
8
0
10
46.90675625
20
32.4104
30
0
42
0.9520786018124834
0
VERTEX
8
0
10
46.90675625
20
31.0896
30
0
0
VERTEX
8
0
10
48.292443750000004
20
31.0896
30
0
42
0.2665601437439214
0
VERTEX
8
0
10
48.8459
20
31.4452
30
0
0
VERTEX
8
0
10
50.673750000000005
20
31.4452
30
0
0
VERTEX
8
0
10
51.7652
20
30.35375
30
0
0
VERTEX
8
0
10
51.7652
20
26.79625
30
0
0
VERTEX
8
0
10
50.673750000000005
20
25.704800000000002
30
0
0
VERTEX
8
0
10
43.18
20
25.704800000000002
30
0
42
0.198912367379658
0
VERTEX
8
0
10
42.964475
20
25.615525
30
0
0
VERTEX
8
0
10
40.424475
20
23.075525000000003
30
0
42
0.198912367379658
0
VERTEX
8
0
10
40.3352
20
22.86
30
0
0
VERTEX
8
0
10
40.3352
20
19.17625
30
0
0
VERTEX
8
0
10
39.24375
20
18.0848
30
0
0
VERTEX
8
0
10
37.4159
20
18.0848
30
0
42
0.2665601437439214
0
VERTEX
8
0
10
36.862443750000004
20
18.4404
30
0
0
VERTEX
8
0
10
35.47675625
20
18.4404
30
0
42
0.2665601437439214
0
VERTEX
8
0
10
34.923300000000005
20
18.0848
30
0
0
VERTEX
8
0
10
33.90825
20
18.0848
30
0
0
SEQEND
0
POLYLINE
66
1
8
1_copper
10
0.0
20
0.0
30
0.0
70
1
0
VERTEX
8
0
10
17.11501875
20
68.63715937500001
30
0
42
0.3578051432831595
0
VERTEX
8
0
10
17.6784
20
69.25875625
30
0
0
VERTEX
8
0
10
17.6784
20
70.64444375000001
30
0
42
0.9520786018124834
0
VERTEX
8
0
10
16.3576
20
70.64444375000001
30
0
0
VERTEX
8
0
10
16.3576
20
69.25875625
30
0
0
VERTEX
8
0
10
16.363959375
20
69.19418125
30
0
0
VERTEX
8
0
10
16.376618750000002
20
69.13054375
30
0
0
VERTEX
8
0
10
16.395453125
20
69.06845
30
0
0
VERTEX
8
0
10
16.420284375
20
69.008503125
30
0
0
VERTEX
8
0
10
16.450871875
20
68.951278125
30
0
0
VERTEX
8
0
10
16.486921875
20
68.89732500000001
30
0
0
VERTEX
8
0
10
16.528084375000002
20
68.84716875000001
30
0
0
VERTEX
8
0
10
16.573968750000002
20
68.80128437500001
30
0
0
VERTEX
8
0
10
16.624125
20
68.76012187500001
30
0
0
VERTEX
8
0
10
16.678078125000003
20
68.724071875
30
0
0
VERTEX
8
0
10
16.735303125
20
68.693484375
30
0
0
VERTEX
8
0
10
16.79525
20
68.668653125
30
0
0
VERTEX
8
0
10
16.857343750000002
20
68.64981875000001
30
0
0
VERTEX
8
0
10
16.92098125
20
68.63715937500001
30
0
0
VERTEX
8
0
10
16.985556250000002
20
68.63080000000001
30
0
0
VERTEX
8
0
10
17.05044375
20
68.63080000000001
30
0
0
SEQEND
0
POLYLINE
66
1
8
1_copper
10
0.0
20
0.0
30
0.0
70
1
0
VERTEX
8
0
10
27.932000000000002
20
40.124
30
0
0
VERTEX
8
0
10
26.424000000000003
20
40.124
30
0
0
VERTEX
8
0
10
26.424000000000003
20
38.616
30
0
0
VERTEX
8
0
10
27.932000000000002
20
38.616
30
0
0
SEQEND
0
POLYLINE
66
1
8
16_copper
10
0.0
20
0.0
30
0.0
70
1
0
VERTEX
8
0
10
27.932000000000002
20
40.124
30
0
0
VERTEX
8
0
10
26.424000000000003
20
40.124
30
0
0
VERTEX
8
0
10
26.424000000000003
20
39.674800000000005
30
0
0
VERTEX
8
0
10
21.97025
20
39.674800000000005
30
0
0
VERTEX
8
0
10
15.2908
20
46.35425
30
0
0
VERTEX
8
0
10
15.2908
20
68.45375
30
0
0
VERTEX
8
0
10
16.3576
20
69.52055
30
0
0
VERTEX
8
0
10
16.3576
20
69.25875625
30
0
42
0.9520786018124834
0
VERTEX
8
0
10
17.6784
20
69.25875625
30
0
0
VERTEX
8
0
10
17.6784
20
70.64444375000001
30
0
42
0.9520786018124834
0
VERTEX
8
0
10
16.3576
20
70.64444375000001
30
0
0
VERTEX
8
0
10
16.3576
20
70.38265
30
0
0
VERTEX
8
0
10
14.770475000000001
20
68.795525
30
0
42
0.198912367379658
0
VERTEX
8
0
10
14.6812
20
68.58
30
0
0
VERTEX
8
0
10
14.6812
20
46.228
30
0
42
0.198912367379658
0
VERTEX
8
0
10
14.770475000000001
20
46.012475
30
0
0
VERTEX
8
0
10
21.628475
20
39.154475000000005
30
0
42
0.198912367379658
0
VERTEX
8
0
10
21.844
20
39.065200000000004
30
0
0
VERTEX
8
0
10
26.424000000000003
20
39.065200000000004
30
0
0
VERTEX
8
0
10
26.424000000000003
20
38.616
30
0
0
VERTEX
8
0
10
27.932000000000002
20
38.616
30
0
0
SEQEND
0
POLYLINE
66
1
8
1_copper
10
0.0
20
0.0
30
0.0
70
1
0
VERTEX
8
0
10
20.3962
20
46.38880625
30
0
0
VERTEX
8
0
10
20.3962
20
47.08319375
30
0
0
VERTEX
8
0
10
19.905193750000002
20
47.574200000000005
30
0
0
VERTEX
8
0
10
19.21080625
20
47.574200000000005
30
0
0
VERTEX
8
0
10
18.7198
20
47.08319375
30
0
0
VERTEX
8
0
10
18.7198
20
46.38880625
30
0
0
VERTEX
8
0
10
19.21080625
20
45.897800000000004
30
0
0
VERTEX
8
0
10
19.905193750000002
20
45.897800000000004
30
0
0
SEQEND
0
POLYLINE
66
1
8
1_copper
10
0.0
20
0.0
30
0.0
70
1
0
VERTEX
8
0
10
27.932000000000002
20
42.664
30
0
0
VERTEX
8
0
10
26.424000000000003
20
42.664
30
0
0
VERTEX
8
0
10
26.424000000000003
20
41.156
30
0
0
VERTEX
8
0
10
27.932000000000002
20
41.156
30
0
0
SEQEND
0
POLYLINE
66
1
8
16_copper
10
0.0
20
0.0
30
0.0
70
1
0
VERTEX
8
0
10
27.932000000000002
20
42.664
30
0
0
VERTEX
8
0
10
26.424000000000003
20
42.664
30
0
0
VERTEX
8
0
10
26.424000000000003
20
42.214800000000004
30
0
0
VERTEX
8
0
10
22.22425
20
42.214800000000004
30
0
0
VERTEX
8
0
10
19.8628
20
44.57625
30
0
0
VERTEX
8
0
10
19.8628
20
45.897800000000004
30
0
0
VERTEX
8
0
10
19.905193750000002
20
45.897800000000004
30
0
0
VERTEX
8
0
10
20.3962
20
46.38880625
30
0
0
VERTEX
8
0
10
20.3962
20
47.08319375
30
0
0
VERTEX
8
0
10
19.905193750000002
20
47.574200000000005
30
0
0
VERTEX
8
0
10
19.21080625
20
47.574200000000005
30
0
0
VERTEX
8
0
10
18.7198
20
47.08319375
30
0
0
VERTEX
8
0
10
18.7198
20
46.38880625
30
0
0
VERTEX
8
0
10
19.21080625
20
45.897800000000004
30
0
0
VERTEX
8
0
10
19.2532
20
45.897800000000004
30
0
0
VERTEX
8
0
10
19.2532
20
44.45
30
0
42
0.198912367379658
0
VERTEX
8
0
10
19.342475
20
44.234475
30
0
0
VERTEX
8
0
10
21.882475
20
41.694475000000004
30
0
42
0.198912367379658
0
VERTEX
8
0
10
22.098000000000003
20
41.6052
30
0
0
VERTEX
8
0
10
26.424000000000003
20
41.6052
30
0
0
VERTEX
8
0
10
26.424000000000003
20
41.156
30
0
0
VERTEX
8
0
10
27.932000000000002
20
41.156
30
0
0
SEQEND
0
POLYLINE
66
1
8
1_copper
10
0.0
20
0.0
30
0.0
70
1
0
VERTEX
8
0
10
-2.17405625
20
89.1613375
30
0
42
0.9063472543261978
0
VERTEX
8
0
10
-2.248565625
20
90.678
30
0
0
VERTEX
8
0
10
-3.847434375
20
90.678
30
0
42
0.9520795017710562
0
VERTEX
8
0
10
-3.847434375
20
89.15400000000001
30
0
0
VERTEX
8
0
10
-2.248565625
20
89.15400000000001
30
0
0
SEQEND
0
POLYLINE
66
1
8
1_copper
10
0.0
20
0.0
30
0.0
70
1
0
VERTEX
8
0
10
7.1882
20
19.97280625
30
0
0
VERTEX
8
0
10
7.1882
20
20.667193750000003
30
0
0
VERTEX
8
0
10
6.69719375
20
21.1582
30
0
0
VERTEX
8
0
10
6.00280625
20
21.1582
30
0
0
VERTEX
8
0
10
5.5118
20
20.667193750000003
30
0
0
VERTEX
8
0
10
5.5118
20
19.97280625
30
0
0
VERTEX
8
0
10
6.00280625
20
19.4818
30
0
0
VERTEX
8
0
10
6.69719375
20
19.4818
30
0
0
SEQEND
0
POLYLINE
66
1
8
1_copper
10
0.0
20
0.0
30
0.0
70
1
0
VERTEX
8
0
10
-0.008
20
19.804000000000002
30
0
0
VERTEX
8
0
10
-1.516
20
19.804000000000002
30
0
0
VERTEX
8
0
10
-1.516
20
18.296
30
0
0
VERTEX
8
0
10
-0.008
20
18.296
30
0
0
SEQEND
0
POLYLINE
66
1
8
16_copper
10
0.0
20
0.0
30
0.0
70
1
0
VERTEX
8
0
10
-0.008
20
18.7452
30
0
0
VERTEX
8
0
10
5.08
20
18.7452
30
0
42
0.198912367379658
0
VERTEX
8
0
10
5.2955250000000005
20
18.834475
30
0
0
VERTEX
8
0
10
5.972828125
20
19.511778125
30
0
0
VERTEX
8
0
10
6.00280625
20
19.4818
30
0
0
VERTEX
8
0
10
6.69719375
20
19.4818
30
0
0
VERTEX
8
0
10
7.1882
20
19.97280625
30
0
0
VERTEX
8
0
10
7.1882
20
20.667193750000003
30
0
0
VERTEX
8
0
10
6.69719375
20
21.1582
30
0
0
VERTEX
8
0
10
6.00280625
20
21.1582
30
0
0
VERTEX
8
0
10
5.5118
20
20.667193750000003
30
0
0
VERTEX
8
0
10
5.5118
20
19.97280625
30
0
0
VERTEX
8
0
10
5.541778125
20
19.942828125000002
30
0
0
VERTEX
8
0
10
4.95375
20
19.3548
30
0
0
VERTEX
8
0
10
-0.008
20
19.3548
30
0
0
VERTEX
8
0
10
-0.008
20
19.804000000000002
30
0
0
VERTEX
8
0
10
-1.516
20
19.804000000000002
30
0
0
VERTEX
8
0
10
-1.516
20
19.3548
30
0
0
VERTEX
8
0
10
-2.6677500000000003
20
19.3548
30
0
0
VERTEX
8
0
10
-3.7592000000000003
20
20.446250000000003
30
0
0
VERTEX
8
0
10
-3.7592000000000003
20
68.70775
30
0
0
VERTEX
8
0
10
3.517525
20
75.984475
30
0
42
0.198912367379658
0
VERTEX
8
0
10
3.6068000000000002
20
76.2
30
0
0
VERTEX
8
0
10
3.6068000000000002
20
77.47
30
0
42
0.9999999999999999
0
VERTEX
8
0
10
2.9972000000000003
20
77.47
30
0
0
VERTEX
8
0
10
2.9972000000000003
20
76.93585
30
0
0
VERTEX
8
0
10
-2.7432000000000003
20
82.67625000000001
30
0
0
VERTEX
8
0
10
-2.7432000000000003
20
89.15400000000001
30
0
0
VERTEX
8
0
10
-2.248565625
20
89.15400000000001
30
0
42
0.9520795017710562
0
VERTEX
8
0
10
-2.248565625
20
90.678
30
0
0
VERTEX
8
0
10
-3.847434375
20
90.678
30
0
42
0.9520795017710562
0
VERTEX
8
0
10
-3.847434375
20
89.15400000000001
30
0
0
VERTEX
8
0
10
-3.3528000000000002
20
89.15400000000001
30
0
0
VERTEX
8
0
10
-3.3528000000000002
20
82.55
30
0
42
0.198912367379658
0
VERTEX
8
0
10
-3.263525
20
82.334475
30
0
0
VERTEX
8
0
10
2.87095
20
76.2
30
0
0
VERTEX
8
0
10
-4.2795250000000005
20
69.049525
30
0
42
0.198912367379658
0
VERTEX
8
0
10
-4.3688
20
68.834
30
0
0
VERTEX
8
0
10
-4.3688
20
20.32
30
0
42
0.198912367379658
0
VERTEX
8
0
10
-4.2795250000000005
20
20.104475
30
0
0
VERTEX
8
0
10
-3.009525
20
18.834475
30
0
42
0.198912367379658
0
VERTEX
8
0
10
-2.794
20
18.7452
30
0
0
VERTEX
8
0
10
-1.516
20
18.7452
30
0
0
VERTEX
8
0
10
-1.516
20
18.296
30
0
0
VERTEX
8
0
10
-0.008
20
18.296
30
0
0
SEQEND
0
POLYLINE
66
1
8
1_copper
10
0.0
20
0.0
30
0.0
70
1
0
VERTEX
8
0
10
28.778200000000002
20
79.66280625
30
0
0
VERTEX
8
0
10
28.778200000000002
20
80.35719375000001
30
0
0
VERTEX
8
0
10
28.28719375
20
80.8482
30
0
0
VERTEX
8
0
10
27.592806250000002
20
80.8482
30
0
0
VERTEX
8
0
10
27.1018
20
80.35719375000001
30
0
0
VERTEX
8
0
10
27.1018
20
79.66280625
30
0
0
VERTEX
8
0
10
27.592806250000002
20
79.1718
30
0
0
VERTEX
8
0
10
28.28719375
20
79.1718
30
0
0
SEQEND
0
POLYLINE
66
1
8
1_copper
10
0.0
20
0.0
30
0.0
70
1
0
VERTEX
8
0
10
32.5882
20
79.66280625
30
0
0
VERTEX
8
0
10
32.5882
20
80.35719375000001
30
0
0
VERTEX
8
0
10
32.09719375
20
80.8482
30
0
0
VERTEX
8
0
10
31.40280625
20
80.8482
30
0
0
VERTEX
8
0
10
30.911800000000003
20
80.35719375000001
30
0
0
VERTEX
8
0
10
30.911800000000003
20
79.66280625
30
0
0
VERTEX
8
0
10
31.40280625
20
79.1718
30
0
0
VERTEX
8
0
10
32.09719375
20
79.1718
30
0
0
SEQEND
0
POLYLINE
66
1
8
16_copper
10
0.0
20
0.0
30
0.0
70
1
0
VERTEX
8
0
10
41.954925
20
75.898528125
30
0
42
0.37152032616189906
0
VERTEX
8
0
10
42.214800000000004
20
76.2
30
0
0
VERTEX
8
0
10
42.214800000000004
20
80.01
30
0
42
0.41421356237309503
0
VERTEX
8
0
10
41.910000000000004
20
80.3148
30
0
0
VERTEX
8
0
10
32.5882
20
80.3148
30
0
0
VERTEX
8
0
10
32.5882
20
80.35719375000001
30
0
0
VERTEX
8
0
10
32.09719375
20
80.8482
30
0
0
VERTEX
8
0
10
31.40280625
20
80.8482
30
0
0
VERTEX
8
0
10
30.911800000000003
20
80.35719375000001
30
0
0
VERTEX
8
0
10
30.911800000000003
20
80.3148
30
0
0
VERTEX
8
0
10
28.778200000000002
20
80.3148
30
0
0
VERTEX
8
0
10
28.778200000000002
20
80.35719375000001
30
0
0
VERTEX
8
0
10
28.28719375
20
80.8482
30
0
0
VERTEX
8
0
10
27.592806250000002
20
80.8482
30
0
0
VERTEX
8
0
10
27.1018
20
80.35719375000001
30
0
0
VERTEX
8
0
10
27.1018
20
79.66280625
30
0
0
VERTEX
8
0
10
27.592806250000002
20
79.1718
30
0
0
VERTEX
8
0
10
28.28719375
20
79.1718
30
0
0
VERTEX
8
0
10
28.778200000000002
20
79.66280625
30
0
0
VERTEX
8
0
10
28.778200000000002
20
79.7052
30
0
0
VERTEX
8
0
10
30.911800000000003
20
79.7052
30
0
0
VERTEX
8
0
10
30.911800000000003
20
79.66280625
30
0
0
VERTEX
8
0
10
31.40280625
20
79.1718
30
0
0
VERTEX
8
0
10
32.09719375
20
79.1718
30
0
0
VERTEX
8
0
10
32.5882
20
79.66280625
30
0
0
VERTEX
8
0
10
32.5882
20
79.7052
30
0
0
VERTEX
8
0
10
41.6052
20
79.7052
30
0
0
VERTEX
8
0
10
41.6052
20
76.2
30
0
0
VERTEX
8
0
10
41.608321875
20
76.15649375000001
30
0
0
VERTEX
8
0
10
41.617618750000005
20
76.113878125
30
0
0
VERTEX
8
0
10
41.632906250000005
20
76.073025
30
0
0
VERTEX
8
0
10
41.65386875
20
76.03477500000001
30
0
0
VERTEX
8
0
10
41.680075
20
75.99990625000001
30
0
0
VERTEX
8
0
10
41.710990625
20
75.9691375
30
0
0
VERTEX
8
0
10
41.74598125
20
75.94309375
30
0
0
VERTEX
8
0
10
41.78433125
20
75.9223125
30
0
0
VERTEX
8
0
10
41.825253125
20
75.90721875
30
0
0
VERTEX
8
0
10
41.8679125
20
75.89811875000001
30
0
0
VERTEX
8
0
10
41.911434375
20
75.89520312500001
30
0
0
SEQEND
0
POLYLINE
66
1
8
1_copper
10
0.0
20
0.0
30
0.0
70
1
0
VERTEX
8
0
10
-2.17405625
20
91.70133750000001
30
0
42
0.9063472543261978
0
VERTEX
8
0
10
-2.248565625
20
93.218
30
0
0
VERTEX
8
0
10
-3.847434375
20
93.218
30
0
42
0.9520795017710562
0
VERTEX
8
0
10
-3.847434375
20
91.694
30
0
0
VERTEX
8
0
10
-2.248565625
20
91.694
30
0
0
SEQEND
0
POLYLINE
66
1
8
1_copper
10
0.0
20
0.0
30
0.0
70
1
0
VERTEX
8
0
10
21.8948
20
85.70769687500001
30
0
0
VERTEX
8
0
10
21.8948
20
87.012303125
30
0
0
VERTEX
8
0
10
20.972303125
20
87.93480000000001
30
0
0
VERTEX
8
0
10
19.667696875
20
87.93480000000001
30
0
0
VERTEX
8
0
10
18.7452
20
87.012303125
30
0
0
VERTEX
8
0
10
18.7452
20
85.70769687500001
30
0
0
VERTEX
8
0
10
19.667696875
20
84.7852
30
0
0
VERTEX
8
0
10
20.972303125
20
84.7852
30
0
0
SEQEND
0
POLYLINE
66
1
8
1_copper
10
0.0
20
0.0
30
0.0
70
1
0
VERTEX
8
0
10
19.65501875
20
77.577959375
30
0
42
0.3578051432831595
0
VERTEX
8
0
10
20.218400000000003
20
78.19955625
30
0
0
VERTEX
8
0
10
20.218400000000003
20
79.58524375
30
0
42
0.9520786018124834
0
VERTEX
8
0
10
18.8976
20
79.58524375
30
0
0
VERTEX
8
0
10
18.8976
20
78.19955625
30
0
0
VERTEX
8
0
10
18.903959375
20
78.13498125000001
30
0
0
VERTEX
8
0
10
18.91661875
20
78.07134375
30
0
0
VERTEX
8
0
10
18.935453125000002
20
78.00925000000001
30
0
0
VERTEX
8
0
10
18.960284375
20
77.949303125
30
0
0
VERTEX
8
0
10
18.990871875
20
77.892078125
30
0
0
VERTEX
8
0
10
19.026921875
20
77.838125
30
0
0
VERTEX
8
0
10
19.068084375
20
77.78796875
30
0
0
VERTEX
8
0
10
19.11396875
20
77.742084375
30
0
0
VERTEX
8
0
10
19.164125000000002
20
77.700921875
30
0
0
VERTEX
8
0
10
19.218078125
20
77.664871875
30
0
0
VERTEX
8
0
10
19.275303125
20
77.63428437500001
30
0
0
VERTEX
8
0
10
19.335250000000002
20
77.609453125
30
0
0
VERTEX
8
0
10
19.39734375
20
77.59061875
30
0
0
VERTEX
8
0
10
19.46098125
20
77.577959375
30
0
0
VERTEX
8
0
10
19.52555625
20
77.5716
30
0
0
VERTEX
8
0
10
19.590443750000002
20
77.5716
30
0
0
SEQEND
0
POLYLINE
66
1
8
1_copper
10
0.0
20
0.0
30
0.0
70
1
0
VERTEX
8
0
10
9.652000000000001
20
75.67395
30
0
0
VERTEX
8
0
10
9.652000000000001
20
76.72605
30
0
0
VERTEX
8
0
10
8.908050000000001
20
77.47
30
0
0
VERTEX
8
0
10
7.85595
20
77.47
30
0
0
VERTEX
8
0
10
7.112
20
76.72605
30
0
0
VERTEX
8
0
10
7.112
20
75.67395
30
0
0
VERTEX
8
0
10
7.85595
20
74.93
30
0
0
VERTEX
8
0
10
8.908050000000001
20
74.93
30
0
0
SEQEND
0
POLYLINE
66
1
8
1_copper
10
0.0
20
0.0
30
0.0
70
1
0
VERTEX
8
0
10
32.5882
20
69.50280625
30
0
0
VERTEX
8
0
10
32.5882
20
70.19719375
30
0
0
VERTEX
8
0
10
32.09719375
20
70.68820000000001
30
0
0
VERTEX
8
0
10
31.40280625
20
70.68820000000001
30
0
0
VERTEX
8
0
10
30.911800000000003
20
70.19719375
30
0
0
VERTEX
8
0
10
30.911800000000003
20
69.50280625
30
0
0
VERTEX
8
0
10
31.40280625
20
69.01180000000001
30
0
0
VERTEX
8
0
10
32.09719375
20
69.01180000000001
30
0
0
SEQEND
0
POLYLINE
66
1
8
1_copper
10
0.0
20
0.0
30
0.0
70
1
0
VERTEX
8
0
10
-0.008
20
22.344
30
0
0
VERTEX
8
0
10
-1.516
20
22.344
30
0
0
VERTEX
8
0
10
-1.516
20
20.836000000000002
30
0
0
VERTEX
8
0
10
-0.008
20
20.836000000000002
30
0
0
SEQEND
0
POLYLINE
66
1
8
1_copper
10
0.0
20
0.0
30
0.0
70
1
0
VERTEX
8
0
10
8.9662
20
1.17680625
30
0
0
VERTEX
8
0
10
8.9662
20
1.87119375
30
0
0
VERTEX
8
0
10
8.47519375
20
2.3622
30
0
0
VERTEX
8
0
10
7.78080625
20
2.3622
30
0
0
VERTEX
8
0
10
7.2898000000000005
20
1.87119375
30
0
0
VERTEX
8
0
10
7.2898000000000005
20
1.17680625
30
0
0
VERTEX
8
0
10
7.78080625
20
0.6858000000000001
30
0
0
VERTEX
8
0
10
8.47519375
20
0.6858000000000001
30
0
0
SEQEND
0
POLYLINE
66
1
8
16_copper
10
0.0
20
0.0
30
0.0
70
1
0
VERTEX
8
0
10
9.436475
20
74.71447500000001
30
0
42
0.198912367379658
0
VERTEX
8
0
10
9.652000000000001
20
74.6252
30
0
0
VERTEX
8
0
10
17.78
20
74.6252
30
0
42
0.198912367379658
0
VERTEX
8
0
10
17.995525
20
74.71447500000001
30
0
0
VERTEX
8
0
10
19.773525
20
76.492475
30
0
42
0.198912367379658
0
VERTEX
8
0
10
19.8628
20
76.708
30
0
0
VERTEX
8
0
10
19.8628
20
77.6461
30
0
42
0.2665601437439214
0
VERTEX
8
0
10
20.218400000000003
20
78.19955625
30
0
0
VERTEX
8
0
10
20.218400000000003
20
79.58524375
30
0
42
0.2665601437439214
0
VERTEX
8
0
10
19.8628
20
80.1387
30
0
0
VERTEX
8
0
10
19.8628
20
84.7852
30
0
0
VERTEX
8
0
10
20.972303125
20
84.7852
30
0
0
VERTEX
8
0
10
21.8948
20
85.70769687500001
30
0
0
VERTEX
8
0
10
21.8948
20
86.0552
30
0
0
VERTEX
8
0
10
39.24375
20
86.0552
30
0
0
VERTEX
8
0
10
41.694475000000004
20
83.60447500000001
30
0
42
0.198912367379658
0
VERTEX
8
0
10
41.910000000000004
20
83.51520000000001
30
0
0
VERTEX
8
0
10
43.05375
20
83.51520000000001
30
0
0
VERTEX
8
0
10
44.1452
20
82.42375
30
0
0
VERTEX
8
0
10
44.1452
20
73.78625000000001
30
0
0
VERTEX
8
0
10
43.05375
20
72.6948
30
0
0
VERTEX
8
0
10
34.29
20
72.6948
30
0
42
0.198912367379658
0
VERTEX
8
0
10
34.074475
20
72.605525
30
0
0
VERTEX
8
0
10
32.127171875
20
70.65822187500001
30
0
0
VERTEX
8
0
10
32.09719375
20
70.68820000000001
30
0
0
VERTEX
8
0
10
31.40280625
20
70.68820000000001
30
0
0
VERTEX
8
0
10
30.911800000000003
20
70.19719375
30
0
0
VERTEX
8
0
10
30.911800000000003
20
69.50280625
30
0
0
VERTEX
8
0
10
31.40280625
20
69.01180000000001
30
0
0
VERTEX
8
0
10
32.09719375
20
69.01180000000001
30
0
0
VERTEX
8
0
10
32.5882
20
69.50280625
30
0
0
VERTEX
8
0
10
32.5882
20
70.19719375
30
0
0
VERTEX
8
0
10
32.558221875
20
70.22717187500001
30
0
0
VERTEX
8
0
10
34.416250000000005
20
72.0852
30
0
0
VERTEX
8
0
10
41.6052
20
72.0852
30
0
0
VERTEX
8
0
10
41.6052
20
68.58
30
0
42
0.9352295295621618
0
VERTEX
8
0
10
42.212075
20
68.53933125
30
0
0
VERTEX
8
0
10
42.214800000000004
20
68.58
30
0
0
VERTEX
8
0
10
42.214800000000004
20
72.0852
30
0
0
VERTEX
8
0
10
43.18
20
72.0852
30
0
42
0.198912367379658
0
VERTEX
8
0
10
43.395525
20
72.174475
30
0
0
VERTEX
8
0
10
44.665525
20
73.444475
30
0
42
0.198912367379658
0
VERTEX
8
0
10
44.7548
20
73.66
30
0
0
VERTEX
8
0
10
44.7548
20
82.55
30
0
42
0.198912367379658
0
VERTEX
8
0
10
44.665525
20
82.76552500000001
30
0
0
VERTEX
8
0
10
43.395525
20
84.035525
30
0
42
0.198912367379658
0
VERTEX
8
0
10
43.18
20
84.12480000000001
30
0
0
VERTEX
8
0
10
42.214800000000004
20
84.12480000000001
30
0
0
VERTEX
8
0
10
42.214800000000004
20
87.63000000000001
30
0
42
0.9999999999999999
0
VERTEX
8
0
10
41.6052
20
87.63000000000001
30
0
0
VERTEX
8
0
10
41.6052
20
84.55585
30
0
0
VERTEX
8
0
10
39.585525000000004
20
86.575525
30
0
42
0.198912367379658
0
VERTEX
8
0
10
39.370000000000005
20
86.6648
30
0
0
VERTEX
8
0
10
21.8948
20
86.6648
30
0
0
VERTEX
8
0
10
21.8948
20
87.012303125
30
0
0
VERTEX
8
0
10
20.972303125
20
87.93480000000001
30
0
0
VERTEX
8
0
10
19.667696875
20
87.93480000000001
30
0
0
VERTEX
8
0
10
19.421975
20
87.68907812500001
30
0
0
VERTEX
8
0
10
14.439525000000001
20
92.671525
30
0
42
0.198912367379658
0
VERTEX
8
0
10
14.224
20
92.7608
30
0
0
VERTEX
8
0
10
-1.58746875
20
92.7608
30
0
42
0.2849223807724057
0
VERTEX
8
0
10
-2.248565625
20
93.218
30
0
0
VERTEX
8
0
10
-3.847434375
20
93.218
30
0
42
0.9520795017710562
0
VERTEX
8
0
10
-3.847434375
20
91.694
30
0
0
VERTEX
8
0
10
-2.248565625
20
91.694
30
0
42
0.2849223807724057
0
VERTEX
8
0
10
-1.58746875
20
92.1512
30
0
0
VERTEX
8
0
10
14.097750000000001
20
92.1512
30
0
0
VERTEX
8
0
10
18.990925
20
87.25802812500001
30
0
0
VERTEX
8
0
10
18.7452
20
87.012303125
30
0
0
VERTEX
8
0
10
18.7452
20
85.70769687500001
30
0
0
VERTEX
8
0
10
19.2532
20
85.199696875
30
0
0
VERTEX
8
0
10
19.2532
20
80.1387
30
0
42
0.2665601437439214
0
VERTEX
8
0
10
18.8976
20
79.58524375
30
0
0
VERTEX
8
0
10
18.8976
20
78.19955625
30
0
42
0.2665601437439214
0
VERTEX
8
0
10
19.2532
20
77.6461
30
0
0
VERTEX
8
0
10
19.2532
20
76.83425
30
0
0
VERTEX
8
0
10
17.653750000000002
20
75.2348
30
0
0
VERTEX
8
0
10
9.77825
20
75.2348
30
0
0
VERTEX
8
0
10
9.49555
20
75.5175
30
0
0
VERTEX
8
0
10
9.652000000000001
20
75.67395
30
0
0
VERTEX
8
0
10
9.652000000000001
20
76.72605
30
0
0
VERTEX
8
0
10
8.908050000000001
20
77.47
30
0
0
VERTEX
8
0
10
7.85595
20
77.47
30
0
0
VERTEX
8
0
10
7.112
20
76.72605
30
0
0
VERTEX
8
0
10
7.112
20
75.67395
30
0
0
VERTEX
8
0
10
7.85595
20
74.93
30
0
0
VERTEX
8
0
10
8.4582
20
74.93
30
0
0
VERTEX
8
0
10
8.4582
20
27.93925
30
0
0
VERTEX
8
0
10
2.4137500000000003
20
21.8948
30
0
0
VERTEX
8
0
10
-0.008
20
21.8948
30
0
0
VERTEX
8
0
10
-0.008
20
22.344
30
0
0
VERTEX
8
0
10
-1.516
20
22.344
30
0
0
VERTEX
8
0
10
-1.516
20
20.836000000000002
30
0
0
VERTEX
8
0
10
-0.008
20
20.836000000000002
30
0
0
VERTEX
8
0
10
-0.008
20
21.2852
30
0
0
VERTEX
8
0
10
2.54
20
21.2852
30
0
42
0.198912367379658
0
VERTEX
8
0
10
2.755525
20
21.374475
30
0
0
VERTEX
8
0
10
8.4582
20
27.07715
30
0
0
VERTEX
8
0
10
8.4582
20
2.3622
30
0
0
VERTEX
8
0
10
7.78080625
20
2.3622
30
0
0
VERTEX
8
0
10
7.2898000000000005
20
1.87119375
30
0
0
VERTEX
8
0
10
7.2898000000000005
20
1.17680625
30
0
0
VERTEX
8
0
10
7.78080625
20
0.6858000000000001
30
0
0
VERTEX
8
0
10
8.47519375
20
0.6858000000000001
30
0
0
VERTEX
8
0
10
8.9662
20
1.17680625
30
0
0
VERTEX
8
0
10
8.9662
20
1.87119375
30
0
0
VERTEX
8
0
10
8.936221875000001
20
1.9011718750000002
30
0
42
0.24981382021841633
0
VERTEX
8
0
10
9.0678
20
2.1590000000000003
30
0
0
VERTEX
8
0
10
9.0678
20
75.08315
30
0
0
SEQEND
0
POLYLINE
66
1
8
1_copper
10
0.0
20
0.0
30
0.0
70
1
0
VERTEX
8
0
10
102.612328125
20
70.191465625
30
0
42
0.9163316085759909
0
VERTEX
8
0
10
102.534440625
20
71.97535
30
0
0
VERTEX
8
0
10
100.665559375
20
71.97535
30
0
42
0.9572930243014984
0
VERTEX
8
0
10
100.665559375
20
70.18465
30
0
0
VERTEX
8
0
10
102.534440625
20
70.18465
30
0
0
SEQEND
0
POLYLINE
66
1
8
16_copper
10
0.0
20
0.0
30
0.0
70
1
0
VERTEX
8
0
10
102.612328125
20
70.191465625
30
0
42
0.9163316085759909
0
VERTEX
8
0
10
102.534440625
20
71.97535
30
0
0
VERTEX
8
0
10
101.1357
20
71.97535
30
0
0
VERTEX
8
0
10
100.505525
20
72.605525
30
0
42
0.198912367379658
0
VERTEX
8
0
10
100.29
20
72.6948
30
0
0
VERTEX
8
0
10
52.3748
20
72.6948
30
0
0
VERTEX
8
0
10
52.3748
20
75.8952
30
0
0
VERTEX
8
0
10
53.34
20
75.8952
30
0
42
0.198912367379658
0
VERTEX
8
0
10
53.555525
20
75.984475
30
0
0
VERTEX
8
0
10
54.825525000000006
20
77.254475
30
0
42
0.198912367379658
0
VERTEX
8
0
10
54.9148
20
77.47
30
0
0
VERTEX
8
0
10
54.9148
20
86.36
30
0
42
0.198912367379658
0
VERTEX
8
0
10
54.825525000000006
20
86.575525
30
0
0
VERTEX
8
0
10
53.555525
20
87.84552500000001
30
0
42
0.198912367379658
0
VERTEX
8
0
10
53.34
20
87.93480000000001
30
0
0
VERTEX
8
0
10
52.3748
20
87.93480000000001
30
0
0
VERTEX
8
0
10
52.3748
20
91.44
30
0
42
0.9999999999999999
0
VERTEX
8
0
10
51.7652
20
91.44
30
0
0
VERTEX
8
0
10
51.7652
20
87.63000000000001
30
0
42
0.41421356237309503
0
VERTEX
8
0
10
52.07
20
87.32520000000001
30
0
0
VERTEX
8
0
10
53.213750000000005
20
87.32520000000001
30
0
0
VERTEX
8
0
10
54.3052
20
86.23375
30
0
0
VERTEX
8
0
10
54.3052
20
77.59625
30
0
0
VERTEX
8
0
10
53.213750000000005
20
76.5048
30
0
0
VERTEX
8
0
10
52.07
20
76.5048
30
0
42
0.41421356237309503
0
VERTEX
8
0
10
51.7652
20
76.2
30
0
0
VERTEX
8
0
10
51.7652
20
72.39
30
0
42
0.41421356237309503
0
VERTEX
8
0
10
52.07
20
72.0852
30
0
0
VERTEX
8
0
10
100.16375000000001
20
72.0852
30
0
0
VERTEX
8
0
10
100.34755625000001
20
71.90139375
30
0
42
0.7954608775890111
0
VERTEX
8
0
10
100.665559375
20
70.18465
30
0
0
VERTEX
8
0
10
102.534440625
20
70.18465
30
0
0
SEQEND
0
POLYLINE
66
1
8
1_copper
10
0.0
20
0.0
30
0.0
70
1
0
VERTEX
8
0
10
102.612328125
20
65.191465625
30
0
42
0.9163316085759909
0
VERTEX
8
0
10
102.534440625
20
66.97535
30
0
0
VERTEX
8
0
10
100.665559375
20
66.97535
30
0
42
0.9572930243014984
0
VERTEX
8
0
10
100.665559375
20
65.18465
30
0
0
VERTEX
8
0
10
102.534440625
20
65.18465
30
0
0
SEQEND
0
POLYLINE
66
1
8
16_copper
10
0.0
20
0.0
30
0.0
70
1
0
VERTEX
8
0
10
102.612328125
20
65.191465625
30
0
42
0.9163316085759909
0
VERTEX
8
0
10
102.534440625
20
66.97535
30
0
0
VERTEX
8
0
10
100.665559375
20
66.97535
30
0
42
0.30381054553536124
0
VERTEX
8
0
10
99.862775
20
66.3848
30
0
0
VERTEX
8
0
10
54.69625
20
66.3848
30
0
0
VERTEX
8
0
10
52.285525
20
68.795525
30
0
42
0.198912367379658
0
VERTEX
8
0
10
52.07
20
68.8848
30
0
0
VERTEX
8
0
10
50.92625
20
68.8848
30
0
0
VERTEX
8
0
10
49.8348
20
69.97625000000001
30
0
0
VERTEX
8
0
10
49.8348
20
78.61375000000001
30
0
0
VERTEX
8
0
10
50.92625
20
79.7052
30
0
0
VERTEX
8
0
10
52.07
20
79.7052
30
0
42
0.41421356237309503
0
VERTEX
8
0
10
52.3748
20
80.01
30
0
0
VERTEX
8
0
10
52.3748
20
83.82000000000001
30
0
42
0.41421356237309503
0
VERTEX
8
0
10
52.07
20
84.12480000000001
30
0
0
VERTEX
8
0
10
50.92625
20
84.12480000000001
30
0
0
VERTEX
8
0
10
49.8348
20
85.21625
30
0
0
VERTEX
8
0
10
49.8348
20
93.85375
30
0
0
VERTEX
8
0
10
50.92625
20
94.9452
30
0
0
VERTEX
8
0
10
52.07
20
94.9452
30
0
42
0.9999999999999999
0
VERTEX
8
0
10
52.07
20
95.5548
30
0
0
VERTEX
8
0
10
50.800000000000004
20
95.5548
30
0
42
0.198912367379658
0
VERTEX
8
0
10
50.584475000000005
20
95.465525
30
0
0
VERTEX
8
0
10
49.314475
20
94.195525
30
0
42
0.198912367379658
0
VERTEX
8
0
10
49.2252
20
93.98
30
0
0
VERTEX
8
0
10
49.2252
20
85.09
30
0
42
0.198912367379658
0
VERTEX
8
0
10
49.314475
20
84.874475
30
0
0
VERTEX
8
0
10
50.584475000000005
20
83.60447500000001
30
0
42
0.198912367379658
0
VERTEX
8
0
10
50.800000000000004
20
83.51520000000001
30
0
0
VERTEX
8
0
10
51.7652
20
83.51520000000001
30
0
0
VERTEX
8
0
10
51.7652
20
80.3148
30
0
0
VERTEX
8
0
10
50.800000000000004
20
80.3148
30
0
42
0.198912367379658
0
VERTEX
8
0
10
50.584475000000005
20
80.225525
30
0
0
VERTEX
8
0
10
49.314475
20
78.95552500000001
30
0
42
0.198912367379658
0
VERTEX
8
0
10
49.2252
20
78.74000000000001
30
0
0
VERTEX
8
0
10
49.2252
20
69.85000000000001
30
0
42
0.198912367379658
0
VERTEX
8
0
10
49.314475
20
69.63447500000001
30
0
0
VERTEX
8
0
10
50.584475000000005
20
68.364475
30
0
42
0.198912367379658
0
VERTEX
8
0
10
50.800000000000004
20
68.2752
30
0
0
VERTEX
8
0
10
51.94375
20
68.2752
30
0
0
VERTEX
8
0
10
54.354475
20
65.864475
30
0
42
0.198912367379658
0
VERTEX
8
0
10
54.57
20
65.7752
30
0
0
VERTEX
8
0
10
99.862775
20
65.7752
30
0
42
0.30381054553536124
0
VERTEX
8
0
10
100.665559375
20
65.18465
30
0
0
VERTEX
8
0
10
102.534440625
20
65.18465
30
0
0
SEQEND
0
POLYLINE
66
1
8
1_copper
10
0.0
20
0.0
30
0.0
70
1
0
VERTEX
8
0
10
22.195018750000003
20
77.577959375
30
0
42
0.3578051432831595
0
VERTEX
8
0
10
22.7584
20
78.19955625
30
0
0
VERTEX
8
0
10
22.7584
20
79.58524375
30
0
42
0.9520786018124834
0
VERTEX
8
0
10
21.4376
20
79.58524375
30
0
0
VERTEX
8
0
10
21.4376
20
78.19955625
30
0
0
VERTEX
8
0
10
21.443959375000002
20
78.13498125000001
30
0
0
VERTEX
8
0
10
21.45661875
20
78.07134375
30
0
0
VERTEX
8
0
10
21.475453125
20
78.00925000000001
30
0
0
VERTEX
8
0
10
21.500284375
20
77.949303125
30
0
0
VERTEX
8
0
10
21.530871875000003
20
77.892078125
30
0
0
VERTEX
8
0
10
21.566921875000002
20
77.838125
30
0
0
VERTEX
8
0
10
21.608084375
20
77.78796875
30
0
0
VERTEX
8
0
10
21.65396875
20
77.742084375
30
0
0
VERTEX
8
0
10
21.704125
20
77.700921875
30
0
0
VERTEX
8
0
10
21.758078125
20
77.664871875
30
0
0
VERTEX
8
0
10
21.815303125
20
77.63428437500001
30
0
0
VERTEX
8
0
10
21.87525
20
77.609453125
30
0
0
VERTEX
8
0
10
21.93734375
20
77.59061875
30
0
0
VERTEX
8
0
10
22.000981250000002
20
77.577959375
30
0
0
VERTEX
8
0
10
22.06555625
20
77.5716
30
0
0
VERTEX
8
0
10
22.13044375
20
77.5716
30
0
0
SEQEND
0
POLYLINE
66
1
8
1_copper
10
0.0
20
0.0
30
0.0
70
1
0
VERTEX
8
0
10
28.778200000000002
20
69.50280625
30
0
0
VERTEX
8
0
10
28.778200000000002
20
70.19719375
30
0
0
VERTEX
8
0
10
28.28719375
20
70.68820000000001
30
0
0
VERTEX
8
0
10
27.592806250000002
20
70.68820000000001
30
0
0
VERTEX
8
0
10
27.1018
20
70.19719375
30
0
0
VERTEX
8
0
10
27.1018
20
69.50280625
30
0
0
VERTEX
8
0
10
27.592806250000002
20
69.01180000000001
30
0
0
VERTEX
8
0
10
28.28719375
20
69.01180000000001
30
0
0
SEQEND
0
POLYLINE
66
1
8
16_copper
10
0.0
20
0.0
30
0.0
70
1
0
VERTEX
8
0
10
28.778200000000002
20
69.50280625
30
0
0
VERTEX
8
0
10
28.778200000000002
20
70.19719375
30
0
0
VERTEX
8
0
10
28.28719375
20
70.68820000000001
30
0
0
VERTEX
8
0
10
28.2448
20
70.68820000000001
30
0
0
VERTEX
8
0
10
28.2448
20
73.66
30
0
42
0.198912367379658
0
VERTEX
8
0
10
28.155525
20
73.87552500000001
30
0
0
VERTEX
8
0
10
26.885525
20
75.145525
30
0
42
0.198912367379658
0
VERTEX
8
0
10
26.67
20
75.2348
30
0
0
VERTEX
8
0
10
24.25625
20
75.2348
30
0
0
VERTEX
8
0
10
22.402800000000003
20
77.08825
30
0
0
VERTEX
8
0
10
22.402800000000003
20
77.6461
30
0
42
0.2665601437439214
0
VERTEX
8
0
10
22.7584
20
78.19955625
30
0
0
VERTEX
8
0
10
22.7584
20
79.58524375
30
0
42
0.9520786018124834
0
VERTEX
8
0
10
21.4376
20
79.58524375
30
0
0
VERTEX
8
0
10
21.4376
20
78.19955625
30
0
42
0.2665601437439214
0
VERTEX
8
0
10
21.793200000000002
20
77.6461
30
0
0
VERTEX
8
0
10
21.793200000000002
20
76.962
30
0
42
0.198912367379658
0
VERTEX
8
0
10
21.882475
20
76.746475
30
0
0
VERTEX
8
0
10
23.914475
20
74.71447500000001
30
0
42
0.198912367379658
0
VERTEX
8
0
10
24.130000000000003
20
74.6252
30
0
0
VERTEX
8
0
10
26.543750000000003
20
74.6252
30
0
0
VERTEX
8
0
10
27.6352
20
73.53375
30
0
0
VERTEX
8
0
10
27.6352
20
70.68820000000001
30
0
0
VERTEX
8
0
10
27.592806250000002
20
70.68820000000001
30
0
0
VERTEX
8
0
10
27.1018
20
70.19719375
30
0
0
VERTEX
8
0
10
27.1018
20
69.50280625
30
0
0
VERTEX
8
0
10
27.592806250000002
20
69.01180000000001
30
0
0
VERTEX
8
0
10
28.28719375
20
69.01180000000001
30
0
0
SEQEND
0
POLYLINE
66
1
8
1_copper
10
0.0
20
0.0
30
0.0
70
1
0
VERTEX
8
0
10
-2.17405625
20
94.2413375
30
0
42
0.9063472543261978
0
VERTEX
8
0
10
-2.248565625
20
95.75800000000001
30
0
0
VERTEX
8
0
10
-3.847434375
20
95.75800000000001
30
0
42
0.9520795017710562
0
VERTEX
8
0
10
-3.847434375
20
94.23400000000001
30
0
0
VERTEX
8
0
10
-2.248565625
20
94.23400000000001
30
0
0
SEQEND
0
POLYLINE
66
1
8
16_copper
10
0.0
20
0.0
30
0.0
70
1
0
VERTEX
8
0
10
41.954925
20
91.13852812500001
30
0
42
0.37152032616189906
0
VERTEX
8
0
10
42.214800000000004
20
91.44
30
0
0
VERTEX
8
0
10
42.214800000000004
20
95.25
30
0
42
0.6681786379192989
0
VERTEX
8
0
10
41.694475000000004
20
95.465525
30
0
0
VERTEX
8
0
10
40.51375
20
94.2848
30
0
0
VERTEX
8
0
10
20.446250000000003
20
94.2848
30
0
0
VERTEX
8
0
10
18.249525000000002
20
96.481525
30
0
42
0.198912367379658
0
VERTEX
8
0
10
18.034000000000002
20
96.5708
30
0
0
VERTEX
8
0
10
-1.778
20
96.5708
30
0
42
0.198912367379658
0
VERTEX
8
0
10
-1.993525
20
96.481525
30
0
0
VERTEX
8
0
10
-2.71705
20
95.75800000000001
30
0
0
VERTEX
8
0
10
-3.847434375
20
95.75800000000001
30
0
42
0.9520795017710562
0
VERTEX
8
0
10
-3.847434375
20
94.23400000000001
30
0
0
VERTEX
8
0
10
-2.248565625
20
94.23400000000001
30
0
42
0.7678103338930912
0
VERTEX
8
0
10
-1.9386093750000002
20
95.674340625
30
0
0
VERTEX
8
0
10
-1.65175
20
95.9612
30
0
0
VERTEX
8
0
10
17.90775
20
95.9612
30
0
0
VERTEX
8
0
10
20.104475
20
93.764475
30
0
42
0.198912367379658
0
VERTEX
8
0
10
20.32
20
93.6752
30
0
0
VERTEX
8
0
10
40.64
20
93.6752
30
0
42
0.198912367379658
0
VERTEX
8
0
10
40.855525
20
93.764475
30
0
0
VERTEX
8
0
10
41.6052
20
94.51415
30
0
0
VERTEX
8
0
10
41.6052
20
91.44
30
0
0
VERTEX
8
0
10
41.608321875
20
91.39649375
30
0
0
VERTEX
8
0
10
41.617618750000005
20
91.35387812500001
30
0
0
VERTEX
8
0
10
41.632906250000005
20
91.31302500000001
30
0
0
VERTEX
8
0
10
41.65386875
20
91.274775
30
0
0
VERTEX
8
0
10
41.680075
20
91.23990625
30
0
0
VERTEX
8
0
10
41.710990625
20
91.20913750000001
30
0
0
VERTEX
8
0
10
41.74598125
20
91.18309375
30
0
0
VERTEX
8
0
10
41.78433125
20
91.1623125
30
0
0
VERTEX
8
0
10
41.825253125
20
91.14721875000001
30
0
0
VERTEX
8
0
10
41.8679125
20
91.13811875
30
0
0
VERTEX
8
0
10
41.911434375
20
91.135203125
30
0
0
SEQEND
0
POLYLINE
66
1
8
1_copper
10
0.0
20
0.0
30
0.0
70
1
0
VERTEX
8
0
10
7.1882
20
9.812806250000001
30
0
0
VERTEX
8
0
10
7.1882
20
10.50719375
30
0
0
VERTEX
8
0
10
6.69719375
20
10.9982
30
0
0
VERTEX
8
0
10
6.00280625
20
10.9982
30
0
0
VERTEX
8
0
10
5.5118
20
10.50719375
30
0
0
VERTEX
8
0
10
5.5118
20
9.812806250000001
30
0
0
VERTEX
8
0
10
6.00280625
20
9.3218
30
0
0
VERTEX
8
0
10
6.69719375
20
9.3218
30
0
0
SEQEND
0
POLYLINE
66
1
8
1_copper
10
0.0
20
0.0
30
0.0
70
1
0
VERTEX
8
0
10
6.426200000000001
20
1.17680625
30
0
0
VERTEX
8
0
10
6.426200000000001
20
1.87119375
30
0
0
VERTEX
8
0
10
5.935193750000001
20
2.3622
30
0
0
VERTEX
8
0
10
5.24080625
20
2.3622
30
0
0
VERTEX
8
0
10
4.7498000000000005
20
1.87119375
30
0
0
VERTEX
8
0
10
4.7498000000000005
20
1.17680625
30
0
0
VERTEX
8
0
10
5.24080625
20
0.6858000000000001
30
0
0
VERTEX
8
0
10
5.935193750000001
20
0.6858000000000001
30
0
0
SEQEND
0
POLYLINE
66
1
8
16_copper
10
0.0
20
0.0
30
0.0
70
1
0
VERTEX
8
0
10
6.426200000000001
20
1.17680625
30
0
0
VERTEX
8
0
10
6.426200000000001
20
1.87119375
30
0
0
VERTEX
8
0
10
5.935193750000001
20
2.3622
30
0
0
VERTEX
8
0
10
5.3848
20
2.3622
30
0
0
VERTEX
8
0
10
5.3848
20
8.76375
30
0
0
VERTEX
8
0
10
5.972828125
20
9.351778125000001
30
0
0
VERTEX
8
0
10
6.00280625
20
9.3218
30
0
0
VERTEX
8
0
10
6.69719375
20
9.3218
30
0
0
VERTEX
8
0
10
7.1882
20
9.812806250000001
30
0
0
VERTEX
8
0
10
7.1882
20
10.50719375
30
0
0
VERTEX
8
0
10
6.69719375
20
10.9982
30
0
0
VERTEX
8
0
10
6.00280625
20
10.9982
30
0
0
VERTEX
8
0
10
5.5118
20
10.50719375
30
0
0
VERTEX
8
0
10
5.5118
20
9.812806250000001
30
0
0
VERTEX
8
0
10
5.541778125
20
9.782828125
30
0
0
VERTEX
8
0
10
4.8644750000000005
20
9.105525
30
0
42
0.198912367379658
0
VERTEX
8
0
10
4.7752
20
8.89
30
0
0
VERTEX
8
0
10
4.7752
20
2.032
30
0
42
0.09556265816720505
0
VERTEX
8
0
10
4.79735625
20
1.9187500000000002
30
0
0
VERTEX
8
0
10
4.7498000000000005
20
1.87119375
30
0
0
VERTEX
8
0
10
4.7498000000000005
20
1.17680625
30
0
0
VERTEX
8
0
10
5.24080625
20
0.6858000000000001
30
0
0
VERTEX
8
0
10
5.935193750000001
20
0.6858000000000001
30
0
0
SEQEND
0
POLYLINE
66
1
8
1_copper
10
0.0
20
0.0
30
0.0
70
1
0
VERTEX
8
0
10
64.88194375
20
42.9333375
30
0
42
0.3578057741447831
0
VERTEX
8
0
10
65.532
20
43.650565625
30
0
0
VERTEX
8
0
10
65.532
20
45.249434375
30
0
42
0.9520795017710562
0
VERTEX
8
0
10
64.00800000000001
20
45.249434375
30
0
0
VERTEX
8
0
10
64.00800000000001
20
43.650565625
30
0
0
VERTEX
8
0
10
64.0153375
20
43.57605625
30
0
0
VERTEX
8
0
10
64.02994375
20
43.502625
30
0
0
VERTEX
8
0
10
64.05167812500001
20
43.43098125
30
0
0
VERTEX
8
0
10
64.08032812500001
20
43.361809375
30
0
0
VERTEX
8
0
10
64.115621875
20
43.295781250000005
30
0
0
VERTEX
8
0
10
64.15721875
20
43.23353125
30
0
0
VERTEX
8
0
10
64.204715625
20
43.17565625
30
0
0
VERTEX
8
0
10
64.25765625
20
43.122715625000005
30
0
0
VERTEX
8
0
10
64.31553125
20
43.075218750000005
30
0
0
VERTEX
8
0
10
64.37778125
20
43.033621875
30
0
0
VERTEX
8
0
10
64.443809375
20
42.998328125
30
0
0
VERTEX
8
0
10
64.51298125000001
20
42.969678125
30
0
0
VERTEX
8
0
10
64.584625
20
42.94794375
30
0
0
VERTEX
8
0
10
64.65805625
20
42.9333375
30
0
0
VERTEX
8
0
10
64.732565625
20
42.926
30
0
0
VERTEX
8
0
10
64.807434375
20
42.926
30
0
0
SEQEND
0
POLYLINE
66
1
8
1_copper
10
0.0
20
0.0
30
0.0
70
1
0
VERTEX
8
0
10
45.867818750000005
20
43.795959375
30
0
42
0.9063462356499619
0
VERTEX
8
0
10
45.80324375
20
45.110400000000006
30
0
0
VERTEX
8
0
10
44.417556250000004
20
45.110400000000006
30
0
42
0.9520786018124834
0
VERTEX
8
0
10
44.417556250000004
20
43.7896
30
0
0
VERTEX
8
0
10
45.80324375
20
43.7896
30
0
0
SEQEND
0
POLYLINE
66
1
8
1_copper
10
0.0
20
0.0
30
0.0
70
1
0
VERTEX
8
0
10
55.626000000000005
20
42.90795
30
0
0
VERTEX
8
0
10
55.626000000000005
20
43.96005
30
0
0
VERTEX
8
0
10
54.88205
20
44.704
30
0
0
VERTEX
8
0
10
53.829950000000004
20
44.704
30
0
0
VERTEX
8
0
10
53.086000000000006
20
43.96005
30
0
0
VERTEX
8
0
10
53.086000000000006
20
42.90795
30
0
0
VERTEX
8
0
10
53.829950000000004
20
42.164
30
0
0
VERTEX
8
0
10
54.88205
20
42.164
30
0
0
SEQEND
0
POLYLINE
66
1
8
16_copper
10
0.0
20
0.0
30
0.0
70
1
0
VERTEX
8
0
10
55.39005
20
42.672000000000004
30
0
0
VERTEX
8
0
10
63.754000000000005
20
42.672000000000004
30
0
42
0.2564609414586032
0
VERTEX
8
0
10
64.412628125
20
43.014996875
30
0
0
VERTEX
8
0
10
64.443809375
20
42.998328125
30
0
42
0.5345113018403375
0
VERTEX
8
0
10
65.532
20
43.650565625
30
0
0
VERTEX
8
0
10
65.532
20
45.249434375
30
0
42
0.9520795017710562
0
VERTEX
8
0
10
64.00800000000001
20
45.249434375
30
0
0
VERTEX
8
0
10
64.00800000000001
20
44.765631250000006
30
0
0
VERTEX
8
0
10
63.43836875
20
44.196000000000005
30
0
0
VERTEX
8
0
10
55.39005
20
44.196000000000005
30
0
0
VERTEX
8
0
10
54.88205
20
44.704
30
0
0
VERTEX
8
0
10
53.829950000000004
20
44.704
30
0
0
VERTEX
8
0
10
53.32195
20
44.196000000000005
30
0
0
VERTEX
8
0
10
46.380403125
20
44.196000000000005
30
0
42
0.5194984542993678
0
VERTEX
8
0
10
45.80324375
20
45.110400000000006
30
0
0
VERTEX
8
0
10
44.82964375
20
45.110400000000006
30
0
42
0.876153000215923
0
VERTEX
8
0
10
43.911184375000005
20
43.911184375000005
30
0
0
VERTEX
8
0
10
44.927184375
20
42.895184375
30
0
42
0.198912367379658
0
VERTEX
8
0
10
45.466
20
42.672000000000004
30
0
0
VERTEX
8
0
10
53.32195
20
42.672000000000004
30
0
0
VERTEX
8
0
10
53.829950000000004
20
42.164
30
0
0
VERTEX
8
0
10
54.88205
20
42.164
30
0
0
SEQEND
0
POLYLINE
66
1
8
1_copper
10
0.0
20
0.0
30
0.0
70
1
0
VERTEX
8
0
10
36.92701875
20
48.875959375
30
0
42
0.9063462356499619
0
VERTEX
8
0
10
36.862443750000004
20
50.190400000000004
30
0
0
VERTEX
8
0
10
35.47675625
20
50.190400000000004
30
0
42
0.9520786018124834
0
VERTEX
8
0
10
35.47675625
20
48.869600000000005
30
0
0
VERTEX
8
0
10
36.862443750000004
20
48.869600000000005
30
0
0
SEQEND
0
POLYLINE
66
1
8
1_copper
10
0.0
20
0.0
30
0.0
70
1
0
VERTEX
8
0
10
42.748200000000004
20
36.48280625
30
0
0
VERTEX
8
0
10
42.748200000000004
20
37.17719375
30
0
0
VERTEX
8
0
10
42.25719375
20
37.6682
30
0
0
VERTEX
8
0
10
41.56280625
20
37.6682
30
0
0
VERTEX
8
0
10
41.0718
20
37.17719375
30
0
0
VERTEX
8
0
10
41.0718
20
36.48280625
30
0
0
VERTEX
8
0
10
41.56280625
20
35.991800000000005
30
0
0
VERTEX
8
0
10
42.25719375
20
35.991800000000005
30
0
0
SEQEND
0
POLYLINE
66
1
8
16_copper
10
0.0
20
0.0
30
0.0
70
1
0
VERTEX
8
0
10
42.748200000000004
20
36.48280625
30
0
0
VERTEX
8
0
10
42.748200000000004
20
37.17719375
30
0
0
VERTEX
8
0
10
42.25719375
20
37.6682
30
0
0
VERTEX
8
0
10
41.56280625
20
37.6682
30
0
0
VERTEX
8
0
10
41.0718
20
37.17719375
30
0
0
VERTEX
8
0
10
41.0718
20
37.1348
30
0
0
VERTEX
8
0
10
35.68625
20
37.1348
30
0
0
VERTEX
8
0
10
32.0548
20
40.76625
30
0
0
VERTEX
8
0
10
32.0548
20
48.13375
30
0
0
VERTEX
8
0
10
33.14625
20
49.2252
30
0
0
VERTEX
8
0
10
34.923300000000005
20
49.2252
30
0
42
0.2665601437439214
0
VERTEX
8
0
10
35.47675625
20
48.869600000000005
30
0
0
VERTEX
8
0
10
36.862443750000004
20
48.869600000000005
30
0
42
0.9520786018124834
0
VERTEX
8
0
10
36.862443750000004
20
50.190400000000004
30
0
0
VERTEX
8
0
10
35.47675625
20
50.190400000000004
30
0
42
0.2665601437439214
0
VERTEX
8
0
10
34.923300000000005
20
49.8348
30
0
0
VERTEX
8
0
10
33.02
20
49.8348
30
0
42
0.198912367379658
0
VERTEX
8
0
10
32.804475000000004
20
49.745525
30
0
0
VERTEX
8
0
10
31.534475
20
48.475525000000005
30
0
42
0.198912367379658
0
VERTEX
8
0
10
31.4452
20
48.260000000000005
30
0
0
VERTEX
8
0
10
31.4452
20
40.64
30
0
42
0.198912367379658
0
VERTEX
8
0
10
31.534475
20
40.424475
30
0
0
VERTEX
8
0
10
35.344475
20
36.614475
30
0
42
0.198912367379658
0
VERTEX
8
0
10
35.56
20
36.525200000000005
30
0
0
VERTEX
8
0
10
41.0718
20
36.525200000000005
30
0
0
VERTEX
8
0
10
41.0718
20
36.48280625
30
0
0
VERTEX
8
0
10
41.56280625
20
35.991800000000005
30
0
0
VERTEX
8
0
10
42.25719375
20
35.991800000000005
30
0
0
SEQEND
0
POLYLINE
66
1
8
1_copper
10
0.0
20
0.0
30
0.0
70
1
0
VERTEX
8
0
10
48.6664
20
60.940456250000004
30
0
0
VERTEX
8
0
10
48.6664
20
61.48754375
30
0
0
VERTEX
8
0
10
48.27954375
20
61.8744
30
0
0
VERTEX
8
0
10
47.732456250000006
20
61.8744
30
0
0
VERTEX
8
0
10
47.345600000000005
20
61.48754375
30
0
0
VERTEX
8
0
10
47.345600000000005
20
60.940456250000004
30
0
0
VERTEX
8
0
10
47.732456250000006
20
60.5536
30
0
0
VERTEX
8
0
10
48.27954375
20
60.5536
30
0
0
SEQEND
0
POLYLINE
66
1
8
1_copper
10
0.0
20
0.0
30
0.0
70
1
0
VERTEX
8
0
10
45.867818750000005
20
48.875959375
30
0
42
0.9063462356499619
0
VERTEX
8
0
10
45.80324375
20
50.190400000000004
30
0
0
VERTEX
8
0
10
44.417556250000004
20
50.190400000000004
30
0
42
0.9520786018124834
0
VERTEX
8
0
10
44.417556250000004
20
48.869600000000005
30
0
0
VERTEX
8
0
10
45.80324375
20
48.869600000000005
30
0
0
SEQEND
0
POLYLINE
66
1
8
16_copper
10
0.0
20
0.0
30
0.0
70
1
0
VERTEX
8
0
10
44.495328125
20
48.76935
30
0
42
0.1160510559324231
0
VERTEX
8
0
10
44.829575000000006
20
48.869600000000005
30
0
0
VERTEX
8
0
10
45.80324375
20
48.869600000000005
30
0
42
0.9520786018124834
0
VERTEX
8
0
10
45.80324375
20
50.190400000000004
30
0
0
VERTEX
8
0
10
45.212
20
50.190400000000004
30
0
0
VERTEX
8
0
10
45.212
20
57.342368750000006
30
0
0
VERTEX
8
0
10
48.544815625000005
20
60.675184375
30
0
42
0.9999999999999999
0
VERTEX
8
0
10
47.467184375
20
61.752815625000004
30
0
0
VERTEX
8
0
10
43.911184375000005
20
58.196815625
30
0
42
0.198912367379658
0
VERTEX
8
0
10
43.688
20
57.658
30
0
0
VERTEX
8
0
10
43.688
20
49.53
30
0
0
VERTEX
8
0
10
43.691121875
20
49.461078125
30
0
0
VERTEX
8
0
10
43.70046875
20
49.39271875
30
0
0
VERTEX
8
0
10
43.715956250000005
20
49.3254875
30
0
0
VERTEX
8
0
10
43.7374625
20
49.25993125
30
0
0
VERTEX
8
0
10
43.764812500000005
20
49.196590625
30
0
0
VERTEX
8
0
10
43.797778125
20
49.135984375
30
0
0
VERTEX
8
0
10
43.836090625000004
20
49.07860625
30
0
0
VERTEX
8
0
10
43.879434375
20
49.024928125
30
0
0
VERTEX
8
0
10
43.92745625
20
48.975390625
30
0
0
VERTEX
8
0
10
43.9797625
20
48.930400000000006
30
0
0
VERTEX
8
0
10
44.035921875
20
48.890325000000004
30
0
0
VERTEX
8
0
10
44.095478125
20
48.85549375
30
0
0
VERTEX
8
0
10
44.157940625
20
48.82619375
30
0
0
VERTEX
8
0
10
44.222796875
20
48.802659375000005
30
0
0
VERTEX
8
0
10
44.289515625
20
48.785090625
30
0
0
VERTEX
8
0
10
44.35755
20
48.773628125
30
0
0
VERTEX
8
0
10
44.426340625
20
48.76836875
30
0
0
SEQEND
0
POLYLINE
66
1
8
1_copper
10
0.0
20
0.0
30
0.0
70
1
0
VERTEX
8
0
10
63.906400000000005
20
60.940456250000004
30
0
0
VERTEX
8
0
10
63.906400000000005
20
61.48754375
30
0
0
VERTEX
8
0
10
63.519543750000004
20
61.8744
30
0
0
VERTEX
8
0
10
62.97245625
20
61.8744
30
0
0
VERTEX
8
0
10
62.5856
20
61.48754375
30
0
0
VERTEX
8
0
10
62.5856
20
60.940456250000004
30
0
0
VERTEX
8
0
10
62.97245625
20
60.5536
30
0
0
VERTEX
8
0
10
63.519543750000004
20
60.5536
30
0
0
SEQEND
0
POLYLINE
66
1
8
1_copper
10
0.0
20
0.0
30
0.0
70
1
0
VERTEX
8
0
10
48.6664
20
55.860456250000006
30
0
0
VERTEX
8
0
10
48.6664
20
56.40754375
30
0
0
VERTEX
8
0
10
48.27954375
20
56.7944
30
0
0
VERTEX
8
0
10
47.732456250000006
20
56.7944
30
0
0
VERTEX
8
0
10
47.345600000000005
20
56.40754375
30
0
0
VERTEX
8
0
10
47.345600000000005
20
55.860456250000006
30
0
0
VERTEX
8
0
10
47.732456250000006
20
55.473600000000005
30
0
0
VERTEX
8
0
10
48.27954375
20
55.473600000000005
30
0
0
SEQEND
0
POLYLINE
66
1
8
16_copper
10
0.0
20
0.0
30
0.0
70
1
0
VERTEX
8
0
10
59.40191875
20
61.97445625
30
0
42
0.18729801936002255
0
VERTEX
8
0
10
58.897184375
20
61.752815625000004
30
0
0
VERTEX
8
0
10
54.040368750000006
20
56.896
30
0
0
VERTEX
8
0
10
48.006
20
56.896
30
0
42
0.6681786379192989
0
VERTEX
8
0
10
47.467184375
20
55.595184375
30
0
0
VERTEX
8
0
10
53.594
20
49.46836875
30
0
0
VERTEX
8
0
10
53.594
20
48.514
30
0
42
0.969419751066667
0
VERTEX
8
0
10
55.11653125
20
48.46670625
30
0
0
VERTEX
8
0
10
55.118
20
48.514
30
0
0
VERTEX
8
0
10
55.118
20
49.784
30
0
42
0.198912367379658
0
VERTEX
8
0
10
54.894815625
20
50.322815625000004
30
0
0
VERTEX
8
0
10
49.845631250000004
20
55.372
30
0
0
VERTEX
8
0
10
54.356
20
55.372
30
0
42
0.198912367379658
0
VERTEX
8
0
10
54.894815625
20
55.595184375
30
0
0
VERTEX
8
0
10
59.75163125
20
60.452000000000005
30
0
0
VERTEX
8
0
10
63.246
20
60.452000000000005
30
0
42
0.9999999999999999
0
VERTEX
8
0
10
63.246
20
61.976000000000006
30
0
0
VERTEX
8
0
10
59.436
20
61.976000000000006
30
0
0
SEQEND
0
POLYLINE
66
1
8
1_copper
10
0.0
20
0.0
30
0.0
70
1
0
VERTEX
8
0
10
63.906400000000005
20
55.860456250000006
30
0
0
VERTEX
8
0
10
63.906400000000005
20
56.40754375
30
0
0
VERTEX
8
0
10
63.519543750000004
20
56.7944
30
0
0
VERTEX
8
0
10
62.97245625
20
56.7944
30
0
0
VERTEX
8
0
10
62.5856
20
56.40754375
30
0
0
VERTEX
8
0
10
62.5856
20
55.860456250000006
30
0
0
VERTEX
8
0
10
62.97245625
20
55.473600000000005
30
0
0
VERTEX
8
0
10
63.519543750000004
20
55.473600000000005
30
0
0
SEQEND
0
POLYLINE
66
1
8
1_copper
10
0.0
20
0.0
30
0.0
70
1
0
VERTEX
8
0
10
67.42194375
20
42.9333375
30
0
42
0.3578057741447831
0
VERTEX
8
0
10
68.072
20
43.650565625
30
0
0
VERTEX
8
0
10
68.072
20
45.249434375
30
0
42
0.9520795017710562
0
VERTEX
8
0
10
66.548
20
45.249434375
30
0
0
VERTEX
8
0
10
66.548
20
43.650565625
30
0
0
VERTEX
8
0
10
66.55533750000001
20
43.57605625
30
0
0
VERTEX
8
0
10
66.56994375000001
20
43.502625
30
0
0
VERTEX
8
0
10
66.591678125
20
43.43098125
30
0
0
VERTEX
8
0
10
66.620328125
20
43.361809375
30
0
0
VERTEX
8
0
10
66.65562187500001
20
43.295781250000005
30
0
0
VERTEX
8
0
10
66.69721875
20
43.23353125
30
0
0
VERTEX
8
0
10
66.744715625
20
43.17565625
30
0
0
VERTEX
8
0
10
66.79765625
20
43.122715625000005
30
0
0
VERTEX
8
0
10
66.85553125
20
43.075218750000005
30
0
0
VERTEX
8
0
10
66.91778125
20
43.033621875
30
0
0
VERTEX
8
0
10
66.983809375
20
42.998328125
30
0
0
VERTEX
8
0
10
67.05298125
20
42.969678125
30
0
0
VERTEX
8
0
10
67.12462500000001
20
42.94794375
30
0
0
VERTEX
8
0
10
67.19805625000001
20
42.9333375
30
0
0
VERTEX
8
0
10
67.272565625
20
42.926
30
0
0
VERTEX
8
0
10
67.347434375
20
42.926
30
0
0
SEQEND
0
POLYLINE
66
1
8
1_copper
10
0.0
20
0.0
30
0.0
70
1
0
VERTEX
8
0
10
102.612328125
20
34.711465625
30
0
42
0.9163316085759909
0
VERTEX
8
0
10
102.534440625
20
36.49535
30
0
0
VERTEX
8
0
10
100.665559375
20
36.49535
30
0
42
0.9572930243014984
0
VERTEX
8
0
10
100.665559375
20
34.70465
30
0
0
VERTEX
8
0
10
102.534440625
20
34.70465
30
0
0
SEQEND
0
POLYLINE
66
1
8
1_copper
10
0.0
20
0.0
30
0.0
70
1
0
VERTEX
8
0
10
88.7984
20
35.28645625
30
0
0
VERTEX
8
0
10
88.7984
20
35.833543750000004
30
0
0
VERTEX
8
0
10
88.41154375
20
36.220400000000005
30
0
0
VERTEX
8
0
10
87.86445625
20
36.220400000000005
30
0
0
VERTEX
8
0
10
87.47760000000001
20
35.833543750000004
30
0
0
VERTEX
8
0
10
87.47760000000001
20
35.28645625
30
0
0
VERTEX
8
0
10
87.86445625
20
34.8996
30
0
0
VERTEX
8
0
10
88.41154375
20
34.8996
30
0
0
SEQEND
0
POLYLINE
66
1
8
16_copper
10
0.0
20
0.0
30
0.0
70
1
0
VERTEX
8
0
10
68.0646625
20
45.323943750000005
30
0
42
0.1754124163006222
0
VERTEX
8
0
10
67.818
20
45.78085
30
0
0
VERTEX
8
0
10
67.818
20
54.864000000000004
30
0
42
0.198912367379658
0
VERTEX
8
0
10
67.59481562500001
20
55.402815625
30
0
0
VERTEX
8
0
10
66.324815625
20
56.672815625000005
30
0
42
0.198912367379658
0
VERTEX
8
0
10
65.786
20
56.896
30
0
0
VERTEX
8
0
10
63.246
20
56.896
30
0
42
0.969419751066667
0
VERTEX
8
0
10
63.19870625
20
55.37346875
30
0
0
VERTEX
8
0
10
63.246
20
55.372
30
0
0
VERTEX
8
0
10
65.47036875
20
55.372
30
0
0
VERTEX
8
0
10
66.294
20
54.54836875
30
0
0
VERTEX
8
0
10
66.294
20
44.704
30
0
42
0.21380307248834707
0
VERTEX
8
0
10
66.548
20
44.13436875
30
0
0
VERTEX
8
0
10
66.548
20
41.910000000000004
30
0
42
0.198912367379658
0
VERTEX
8
0
10
66.771184375
20
41.371184375
30
0
0
VERTEX
8
0
10
68.041184375
20
40.101184375
30
0
42
0.198912367379658
0
VERTEX
8
0
10
68.58
20
39.878
30
0
0
VERTEX
8
0
10
84.26636875
20
39.878
30
0
0
VERTEX
8
0
10
87.376
20
36.76836875
30
0
0
VERTEX
8
0
10
87.376
20
35.56
30
0
42
0.41421356237309503
0
VERTEX
8
0
10
88.138
20
34.798
30
0
0
VERTEX
8
0
10
100.305965625
20
34.798
30
0
42
0.10480704167988988
0
VERTEX
8
0
10
100.665559375
20
34.70465
30
0
0
VERTEX
8
0
10
102.534440625
20
34.70465
30
0
42
0.9572930243014984
0
VERTEX
8
0
10
102.534440625
20
36.49535
30
0
0
VERTEX
8
0
10
100.665559375
20
36.49535
30
0
42
0.1484473868368414
0
VERTEX
8
0
10
100.17477500000001
20
36.322
30
0
0
VERTEX
8
0
10
88.9
20
36.322
30
0
0
VERTEX
8
0
10
88.9
20
37.084
30
0
42
0.198912367379658
0
VERTEX
8
0
10
88.676815625
20
37.622815625
30
0
0
VERTEX
8
0
10
85.120815625
20
41.178815625
30
0
42
0.198912367379658
0
VERTEX
8
0
10
84.58200000000001
20
41.402
30
0
0
VERTEX
8
0
10
68.89563125000001
20
41.402
30
0
0
VERTEX
8
0
10
68.072
20
42.22563125
30
0
0
VERTEX
8
0
10
68.072
20
45.249434375
30
0
0
SEQEND
0
POLYLINE
66
1
8
1_copper
10
0.0
20
0.0
30
0.0
70
1
0
VERTEX
8
0
10
102.612328125
20
55.031465625
30
0
42
0.9163316085759909
0
VERTEX
8
0
10
102.534440625
20
56.81535
30
0
0
VERTEX
8
0
10
100.665559375
20
56.81535
30
0
42
0.9572930243014984
0
VERTEX
8
0
10
100.665559375
20
55.02465
30
0
0
VERTEX
8
0
10
102.534440625
20
55.02465
30
0
0
SEQEND
0
POLYLINE
66
1
8
1_copper
10
0.0
20
0.0
30
0.0
70
1
0
VERTEX
8
0
10
102.612328125
20
49.871465625
30
0
42
0.9163316085759909
0
VERTEX
8
0
10
102.534440625
20
51.655350000000006
30
0
0
VERTEX
8
0
10
100.665559375
20
51.655350000000006
30
0
42
0.9572930243014984
0
VERTEX
8
0
10
100.665559375
20
49.864650000000005
30
0
0
VERTEX
8
0
10
102.534440625
20
49.864650000000005
30
0
0
SEQEND
0
POLYLINE
66
1
8
1_copper
10
0.0
20
0.0
30
0.0
70
1
0
VERTEX
8
0
10
69.96194375
20
42.9333375
30
0
42
0.3578057741447831
0
VERTEX
8
0
10
70.61200000000001
20
43.650565625
30
0
0
VERTEX
8
0
10
70.61200000000001
20
45.249434375
30
0
42
0.9520795017710562
0
VERTEX
8
0
10
69.08800000000001
20
45.249434375
30
0
0
VERTEX
8
0
10
69.08800000000001
20
43.650565625
30
0
0
VERTEX
8
0
10
69.0953375
20
43.57605625
30
0
0
VERTEX
8
0
10
69.10994375
20
43.502625
30
0
0
VERTEX
8
0
10
69.13167812500001
20
43.43098125
30
0
0
VERTEX
8
0
10
69.160328125
20
43.361809375
30
0
0
VERTEX
8
0
10
69.195621875
20
43.295781250000005
30
0
0
VERTEX
8
0
10
69.23721875
20
43.23353125
30
0
0
VERTEX
8
0
10
69.284715625
20
43.17565625
30
0
0
VERTEX
8
0
10
69.33765625000001
20
43.122715625000005
30
0
0
VERTEX
8
0
10
69.39553125
20
43.075218750000005
30
0
0
VERTEX
8
0
10
69.45778125
20
43.033621875
30
0
0
VERTEX
8
0
10
69.523809375
20
42.998328125
30
0
0
VERTEX
8
0
10
69.59298125000001
20
42.969678125
30
0
0
VERTEX
8
0
10
69.664625
20
42.94794375
30
0
0
VERTEX
8
0
10
69.73805625
20
42.9333375
30
0
0
VERTEX
8
0
10
69.812565625
20
42.926
30
0
0
VERTEX
8
0
10
69.887434375
20
42.926
30
0
0
SEQEND
0
POLYLINE
66
1
8
1_copper
10
0.0
20
0.0
30
0.0
70
1
0
VERTEX
8
0
10
94.09018125
20
31.007221875000003
30
0
42
0.5415188693111257
0
VERTEX
8
0
10
94.61500000000001
20
32.14961875
30
0
0
VERTEX
8
0
10
94.61500000000001
20
38.716381250000005
30
0
42
0.9624943965945741
0
VERTEX
8
0
10
93.37686875
20
39.5633125
30
0
0
VERTEX
8
0
10
93.33592812500001
20
39.502040625
30
0
42
0.28259678315689835
0
VERTEX
8
0
10
93.345
20
38.716381250000005
30
0
0
VERTEX
8
0
10
93.345
20
32.14961875
30
0
0
VERTEX
8
0
10
93.33592812500001
20
32.136040625
30
0
0
VERTEX
8
0
10
93.301190625
20
32.071053125
30
0
0
VERTEX
8
0
10
93.272990625
20
32.002971875
30
0
0
VERTEX
8
0
10
93.25160000000001
20
31.93245625
30
0
0
VERTEX
8
0
10
93.237221875
20
31.86018125
30
0
0
VERTEX
8
0
10
93.23
20
31.786843750000003
30
0
0
VERTEX
8
0
10
93.23
20
31.71315625
30
0
0
VERTEX
8
0
10
93.237221875
20
31.63981875
30
0
0
VERTEX
8
0
10
93.25160000000001
20
31.567543750000002
30
0
0
VERTEX
8
0
10
93.272990625
20
31.497028125
30
0
0
VERTEX
8
0
10
93.301190625
20
31.428946875
30
0
0
VERTEX
8
0
10
93.33592812500001
20
31.363959375
30
0
0
VERTEX
8
0
10
93.37686875
20
31.3026875
30
0
0
VERTEX
8
0
10
93.42361562500001
20
31.245721875
30
0
0
VERTEX
8
0
10
93.475721875
20
31.193615625000003
30
0
0
VERTEX
8
0
10
93.53268750000001
20
31.146868750000003
30
0
0
VERTEX
8
0
10
93.59395937500001
20
31.105928125000002
30
0
0
VERTEX
8
0
10
93.658946875
20
31.071190625
30
0
0
VERTEX
8
0
10
93.727028125
20
31.042990625
30
0
0
VERTEX
8
0
10
93.79754375
20
31.021600000000003
30
0
0
VERTEX
8
0
10
93.86981875000001
20
31.007221875000003
30
0
0
VERTEX
8
0
10
93.94315625
20
31
30
0
0
VERTEX
8
0
10
94.01684375
20
31
30
0
0
SEQEND
0
POLYLINE
66
1
8
1_copper
10
0.0
20
0.0
30
0.0
70
1
0
VERTEX
8
0
10
94.09018125
20
20.847221875000002
30
0
42
0.5415188693111257
0
VERTEX
8
0
10
94.61500000000001
20
21.98961875
30
0
0
VERTEX
8
0
10
94.61500000000001
20
28.55638125
30
0
42
0.9624943965945741
0
VERTEX
8
0
10
93.37686875
20
29.403312500000002
30
0
0
VERTEX
8
0
10
93.33592812500001
20
29.342040625000003
30
0
42
0.28259678315689835
0
VERTEX
8
0
10
93.345
20
28.55638125
30
0
0
VERTEX
8
0
10
93.345
20
21.98961875
30
0
0
VERTEX
8
0
10
93.33592812500001
20
21.976040625
30
0
0
VERTEX
8
0
10
93.301190625
20
21.911053125000002
30
0
0
VERTEX
8
0
10
93.272990625
20
21.842971875
30
0
0
VERTEX
8
0
10
93.25160000000001
20
21.77245625
30
0
0
VERTEX
8
0
10
93.237221875
20
21.70018125
30
0
0
VERTEX
8
0
10
93.23
20
21.626843750000003
30
0
0
VERTEX
8
0
10
93.23
20
21.55315625
30
0
0
VERTEX
8
0
10
93.237221875
20
21.47981875
30
0
0
VERTEX
8
0
10
93.25160000000001
20
21.407543750000002
30
0
0
VERTEX
8
0
10
93.272990625
20
21.337028125
30
0
0
VERTEX
8
0
10
93.301190625
20
21.268946875
30
0
0
VERTEX
8
0
10
93.33592812500001
20
21.203959375
30
0
0
VERTEX
8
0
10
93.37686875
20
21.1426875
30
0
0
VERTEX
8
0
10
93.42361562500001
20
21.085721875
30
0
0
VERTEX
8
0
10
93.475721875
20
21.033615625
30
0
0
VERTEX
8
0
10
93.53268750000001
20
20.98686875
30
0
0
VERTEX
8
0
10
93.59395937500001
20
20.945928125000002
30
0
0
VERTEX
8
0
10
93.658946875
20
20.911190625
30
0
0
VERTEX
8
0
10
93.727028125
20
20.882990625
30
0
0
VERTEX
8
0
10
93.79754375
20
20.8616
30
0
0
VERTEX
8
0
10
93.86981875000001
20
20.847221875000002
30
0
0
VERTEX
8
0
10
93.94315625
20
20.84
30
0
0
VERTEX
8
0
10
94.01684375
20
20.84
30
0
0
SEQEND
0
POLYLINE
66
1
8
1_copper
10
0.0
20
0.0
30
0.0
70
1
0
VERTEX
8
0
10
69.96194375
20
26.423337500000002
30
0
42
0.3578057741447831
0
VERTEX
8
0
10
70.61200000000001
20
27.140565625
30
0
0
VERTEX
8
0
10
70.61200000000001
20
28.739434375000002
30
0
42
0.9520795017710562
0
VERTEX
8
0
10
69.08800000000001
20
28.739434375000002
30
0
0
VERTEX
8
0
10
69.08800000000001
20
27.140565625
30
0
0
VERTEX
8
0
10
69.0953375
20
27.066056250000003
30
0
0
VERTEX
8
0
10
69.10994375
20
26.992625
30
0
0
VERTEX
8
0
10
69.13167812500001
20
26.92098125
30
0
0
VERTEX
8
0
10
69.160328125
20
26.851809375000002
30
0
0
VERTEX
8
0
10
69.195621875
20
26.785781250000003
30
0
0
VERTEX
8
0
10
69.23721875
20
26.72353125
30
0
0
VERTEX
8
0
10
69.284715625
20
26.66565625
30
0
0
VERTEX
8
0
10
69.33765625000001
20
26.612715625
30
0
0
VERTEX
8
0
10
69.39553125
20
26.56521875
30
0
0
VERTEX
8
0
10
69.45778125
20
26.523621875
30
0
0
VERTEX
8
0
10
69.523809375
20
26.488328125000002
30
0
0
VERTEX
8
0
10
69.59298125000001
20
26.459678125
30
0
0
VERTEX
8
0
10
69.664625
20
26.437943750000002
30
0
0
VERTEX
8
0
10
69.73805625
20
26.423337500000002
30
0
0
VERTEX
8
0
10
69.812565625
20
26.416
30
0
0
VERTEX
8
0
10
69.887434375
20
26.416
30
0
0
SEQEND
0
POLYLINE
66
1
8
1_copper
10
0.0
20
0.0
30
0.0
70
1
0
VERTEX
8
0
10
94.09018125
20
17.037221875
30
0
0
VERTEX
8
0
10
94.16245625
20
17.0516
30
0
0
VERTEX
8
0
10
94.232971875
20
17.072990625
30
0
0
VERTEX
8
0
10
94.30105312500001
20
17.101190625
30
0
0
VERTEX
8
0
10
94.36604062500001
20
17.135928125
30
0
0
VERTEX
8
0
10
94.4273125
20
17.17686875
30
0
0
VERTEX
8
0
10
94.484278125
20
17.223615625
30
0
0
VERTEX
8
0
10
94.53638437500001
20
17.275721875000002
30
0
0
VERTEX
8
0
10
94.58313125000001
20
17.332687500000002
30
0
0
VERTEX
8
0
10
94.624071875
20
17.393959375
30
0
0
VERTEX
8
0
10
94.658809375
20
17.458946875000002
30
0
0
VERTEX
8
0
10
94.687009375
20
17.527028125
30
0
0
VERTEX
8
0
10
94.7084
20
17.59754375
30
0
0
VERTEX
8
0
10
94.722778125
20
17.66981875
30
0
0
VERTEX
8
0
10
94.73
20
17.743156250000002
30
0
0
VERTEX
8
0
10
94.73
20
17.81684375
30
0
0
VERTEX
8
0
10
94.722778125
20
17.89018125
30
0
0
VERTEX
8
0
10
94.7084
20
17.962456250000002
30
0
0
VERTEX
8
0
10
94.687009375
20
18.032971875
30
0
0
VERTEX
8
0
10
94.658809375
20
18.101053125
30
0
0
VERTEX
8
0
10
94.624071875
20
18.166040625
30
0
0
VERTEX
8
0
10
94.58313125000001
20
18.2273125
30
0
0
VERTEX
8
0
10
94.53638437500001
20
18.284278125
30
0
0
VERTEX
8
0
10
94.484278125
20
18.336384375
30
0
0
VERTEX
8
0
10
94.4273125
20
18.38313125
30
0
0
VERTEX
8
0
10
94.36604062500001
20
18.424071875
30
0
0
VERTEX
8
0
10
94.30105312500001
20
18.458809375
30
0
0
VERTEX
8
0
10
94.232971875
20
18.487009375
30
0
0
VERTEX
8
0
10
94.16245625
20
18.5084
30
0
0
VERTEX
8
0
10
94.09018125
20
18.522778125000002
30
0
0
VERTEX
8
0
10
94.01684375
20
18.53
30
0
0
VERTEX
8
0
10
93.94315625
20
18.53
30
0
0
VERTEX
8
0
10
93.86981875000001
20
18.522778125000002
30
0
0
VERTEX
8
0
10
93.79754375
20
18.5084
30
0
0
VERTEX
8
0
10
93.727028125
20
18.487009375
30
0
0
VERTEX
8
0
10
93.658946875
20
18.458809375
30
0
0
VERTEX
8
0
10
93.59395937500001
20
18.424071875
30
0
0
VERTEX
8
0
10
93.53268750000001
20
18.38313125
30
0
0
VERTEX
8
0
10
93.475721875
20
18.336384375
30
0
0
VERTEX
8
0
10
93.42361562500001
20
18.284278125
30
0
0
VERTEX
8
0
10
93.37686875
20
18.2273125
30
0
0
VERTEX
8
0
10
93.33592812500001
20
18.166040625
30
0
0
VERTEX
8
0
10
93.301190625
20
18.101053125
30
0
0
VERTEX
8
0
10
93.272990625
20
18.032971875
30
0
0
VERTEX
8
0
10
93.25160000000001
20
17.962456250000002
30
0
0
VERTEX
8
0
10
93.237221875
20
17.89018125
30
0
0
VERTEX
8
0
10
93.23
20
17.81684375
30
0
0
VERTEX
8
0
10
93.23
20
17.743156250000002
30
0
0
VERTEX
8
0
10
93.237221875
20
17.66981875
30
0
0
VERTEX
8
0
10
93.25160000000001
20
17.59754375
30
0
0
VERTEX
8
0
10
93.272990625
20
17.527028125
30
0
0
VERTEX
8
0
10
93.301190625
20
17.458946875000002
30
0
0
VERTEX
8
0
10
93.33592812500001
20
17.393959375
30
0
0
VERTEX
8
0
10
93.37686875
20
17.332687500000002
30
0
0
VERTEX
8
0
10
93.42361562500001
20
17.275721875000002
30
0
0
VERTEX
8
0
10
93.475721875
20
17.223615625
30
0
0
VERTEX
8
0
10
93.53268750000001
20
17.17686875
30
0
0
VERTEX
8
0
10
93.59395937500001
20
17.135928125
30
0
0
VERTEX
8
0
10
93.658946875
20
17.101190625
30
0
0
VERTEX
8
0
10
93.727028125
20
17.072990625
30
0
0
VERTEX
8
0
10
93.79754375
20
17.0516
30
0
0
VERTEX
8
0
10
93.86981875000001
20
17.037221875
30
0
0
VERTEX
8
0
10
93.94315625
20
17.03
30
0
0
VERTEX
8
0
10
94.01684375
20
17.03
30
0
0
SEQEND
0
POLYLINE
66
1
8
1_copper
10
0.0
20
0.0
30
0.0
70
1
0
VERTEX
8
0
10
69.96194375
20
13.723337500000001
30
0
42
0.3578057741447831
0
VERTEX
8
0
10
70.61200000000001
20
14.440565625000001
30
0
0
VERTEX
8
0
10
70.61200000000001
20
16.039434375
30
0
42
0.9520795017710562
0
VERTEX
8
0
10
69.08800000000001
20
16.039434375
30
0
0
VERTEX
8
0
10
69.08800000000001
20
14.440565625000001
30
0
0
VERTEX
8
0
10
69.0953375
20
14.366056250000002
30
0
0
VERTEX
8
0
10
69.10994375
20
14.292625000000001
30
0
0
VERTEX
8
0
10
69.13167812500001
20
14.220981250000001
30
0
0
VERTEX
8
0
10
69.160328125
20
14.151809375000001
30
0
0
VERTEX
8
0
10
69.195621875
20
14.08578125
30
0
0
VERTEX
8
0
10
69.23721875
20
14.023531250000001
30
0
0
VERTEX
8
0
10
69.284715625
20
13.96565625
30
0
0
VERTEX
8
0
10
69.33765625000001
20
13.912715625
30
0
0
VERTEX
8
0
10
69.39553125
20
13.86521875
30
0
0
VERTEX
8
0
10
69.45778125
20
13.823621875
30
0
0
VERTEX
8
0
10
69.523809375
20
13.788328125000001
30
0
0
VERTEX
8
0
10
69.59298125000001
20
13.759678125
30
0
0
VERTEX
8
0
10
69.664625
20
13.737943750000001
30
0
0
VERTEX
8
0
10
69.73805625
20
13.723337500000001
30
0
0
VERTEX
8
0
10
69.812565625
20
13.716000000000001
30
0
0
VERTEX
8
0
10
69.887434375
20
13.716000000000001
30
0
0
SEQEND
0
POLYLINE
66
1
8
16_copper
10
0.0
20
0.0
30
0.0
70
1
0
VERTEX
8
0
10
81.79391875
20
56.680456250000006
30
0
42
0.18729801936002255
0
VERTEX
8
0
10
81.289184375
20
56.458815625
30
0
0
VERTEX
8
0
10
76.39236875
20
51.562000000000005
30
0
42
0.26406396699087115
0
VERTEX
8
0
10
75.661184375
20
51.338815625
30
0
0
VERTEX
8
0
10
70.207371875
20
45.885003125000004
30
0
42
0.5495063874030117
0
VERTEX
8
0
10
69.08800000000001
20
45.249434375
30
0
0
VERTEX
8
0
10
69.08800000000001
20
43.650565625
30
0
42
0.9520795017710562
0
VERTEX
8
0
10
70.61200000000001
20
43.650565625
30
0
0
VERTEX
8
0
10
70.61200000000001
20
44.13436875
30
0
0
VERTEX
8
0
10
76.51563125
20
50.038000000000004
30
0
42
0.26406396699087115
0
VERTEX
8
0
10
77.24681562500001
20
50.261184375
30
0
0
VERTEX
8
0
10
82.14363125
20
55.158
30
0
0
VERTEX
8
0
10
100.23377500000001
20
55.158
30
0
42
0.177159316809673
0
VERTEX
8
0
10
100.83800000000001
20
55.02465
30
0
0
VERTEX
8
0
10
100.83800000000001
20
51.655350000000006
30
0
42
0.6694292926730858
0
VERTEX
8
0
10
99.986703125
20
50.224334375000005
30
0
0
VERTEX
8
0
10
93.441184375
20
43.678815625
30
0
42
0.198912367379658
0
VERTEX
8
0
10
93.218
20
43.14
30
0
0
VERTEX
8
0
10
93.218
20
39.116
30
0
42
0.969419751066667
0
VERTEX
8
0
10
94.74053125
20
39.068706250000005
30
0
0
VERTEX
8
0
10
94.742
20
39.116
30
0
0
VERTEX
8
0
10
94.742
20
42.824368750000005
30
0
0
VERTEX
8
0
10
101.78228125000001
20
49.864650000000005
30
0
0
VERTEX
8
0
10
102.534440625
20
49.864650000000005
30
0
42
0.9572930243014984
0
VERTEX
8
0
10
102.534440625
20
51.655350000000006
30
0
0
VERTEX
8
0
10
102.36200000000001
20
51.655350000000006
30
0
0
VERTEX
8
0
10
102.36200000000001
20
55.02465
30
0
42
0.9654448664342149
0
VERTEX
8
0
10
102.68932500000001
20
56.794959375000005
30
0
0
VERTEX
8
0
10
102.612328125
20
56.808534375
30
0
0
VERTEX
8
0
10
102.534440625
20
56.81535
30
0
0
VERTEX
8
0
10
100.665559375
20
56.81535
30
0
42
0.1281646492059589
0
VERTEX
8
0
10
100.23377500000001
20
56.682
30
0
0
VERTEX
8
0
10
81.828
20
56.682
30
0
0
SEQEND
0
POLYLINE
66
1
8
16_copper
10
0.0
20
0.0
30
0.0
70
1
0
VERTEX
8
0
10
94.025328125
20
28.19535
30
0
42
0.39688581233732
0
VERTEX
8
0
10
94.742
20
28.956000000000003
30
0
0
VERTEX
8
0
10
94.742
20
31.75
30
0
42
0.9999999999999999
0
VERTEX
8
0
10
93.218
20
31.75
30
0
0
VERTEX
8
0
10
93.218
20
28.956000000000003
30
0
0
VERTEX
8
0
10
93.22112187500001
20
28.887078125000002
30
0
0
VERTEX
8
0
10
93.23046875
20
28.818718750000002
30
0
0
VERTEX
8
0
10
93.24595625
20
28.7514875
30
0
0
VERTEX
8
0
10
93.26746250000001
20
28.685931250000003
30
0
0
VERTEX
8
0
10
93.2948125
20
28.622590625
30
0
0
VERTEX
8
0
10
93.32777812500001
20
28.561984375
30
0
0
VERTEX
8
0
10
93.366090625
20
28.504606250000002
30
0
0
VERTEX
8
0
10
93.409434375
20
28.450928125
30
0
0
VERTEX
8
0
10
93.45745625
20
28.401390625
30
0
0
VERTEX
8
0
10
93.50976250000001
20
28.3564
30
0
0
VERTEX
8
0
10
93.565921875
20
28.316325000000003
30
0
0
VERTEX
8
0
10
93.625478125
20
28.281493750000003
30
0
0
VERTEX
8
0
10
93.68794062500001
20
28.25219375
30
0
0
VERTEX
8
0
10
93.752796875
20
28.228659375000003
30
0
0
VERTEX
8
0
10
93.81951562500001
20
28.211090625
30
0
0
VERTEX
8
0
10
93.88755
20
28.199628125
30
0
0
VERTEX
8
0
10
93.95634062500001
20
28.194368750000002
30
0
0
SEQEND
0
POLYLINE
66
1
8
16_copper
10
0.0
20
0.0
30
0.0
70
1
0
VERTEX
8
0
10
70.61200000000001
20
28.739434375000002
30
0
42
0.9520795017710562
0
VERTEX
8
0
10
69.08800000000001
20
28.739434375000002
30
0
0
VERTEX
8
0
10
69.08800000000001
20
27.140565625
30
0
42
0.97575283171743
0
VERTEX
8
0
10
70.61200000000001
20
27.178
30
0
0
VERTEX
8
0
10
71.31236875
20
27.178
30
0
0
VERTEX
8
0
10
77.15436875
20
21.336000000000002
30
0
0
VERTEX
8
0
10
71.82036875
20
16.002000000000002
30
0
0
VERTEX
8
0
10
70.61200000000001
20
16.002000000000002
30
0
42
0.97575283171743
0
VERTEX
8
0
10
69.08800000000001
20
16.039434375
30
0
0
VERTEX
8
0
10
69.08800000000001
20
14.440565625000001
30
0
42
0.97575283171743
0
VERTEX
8
0
10
70.61200000000001
20
14.478000000000002
30
0
0
VERTEX
8
0
10
72.13600000000001
20
14.478000000000002
30
0
42
0.198912367379658
0
VERTEX
8
0
10
72.67481562500001
20
14.701184375
30
0
0
VERTEX
8
0
10
78.770815625
20
20.797184375
30
0
42
0.41421356237309503
0
VERTEX
8
0
10
78.770815625
20
21.874815625
30
0
0
VERTEX
8
0
10
73.46763125
20
27.178
30
0
0
VERTEX
8
0
10
83.50436875
20
27.178
30
0
0
VERTEX
8
0
10
93.441184375
20
17.241184375
30
0
42
0.6681786379192989
0
VERTEX
8
0
10
94.742
20
17.78
30
0
0
VERTEX
8
0
10
94.742
20
21.59
30
0
42
0.9999999999999999
0
VERTEX
8
0
10
93.218
20
21.59
30
0
0
VERTEX
8
0
10
93.218
20
19.61963125
30
0
0
VERTEX
8
0
10
84.358815625
20
28.478815625000003
30
0
42
0.198912367379658
0
VERTEX
8
0
10
83.82000000000001
20
28.702
30
0
0
VERTEX
8
0
10
70.61200000000001
20
28.702
30
0
0
SEQEND
0
POLYLINE
66
1
8
1_copper
10
0.0
20
0.0
30
0.0
70
1
0
VERTEX
8
0
10
83.058
20
50.27395
30
0
0
VERTEX
8
0
10
83.058
20
51.32605
30
0
0
VERTEX
8
0
10
82.31405000000001
20
52.07
30
0
0
VERTEX
8
0
10
81.26195
20
52.07
30
0
0
VERTEX
8
0
10
80.518
20
51.32605
30
0
0
VERTEX
8
0
10
80.518
20
50.27395
30
0
0
VERTEX
8
0
10
81.26195
20
49.53
30
0
0
VERTEX
8
0
10
82.31405000000001
20
49.53
30
0
0
SEQEND
0
POLYLINE
66
1
8
1_copper
10
0.0
20
0.0
30
0.0
70
1
0
VERTEX
8
0
10
88.7984
20
50.52645625
30
0
0
VERTEX
8
0
10
88.7984
20
51.07354375
30
0
0
VERTEX
8
0
10
88.41154375
20
51.4604
30
0
0
VERTEX
8
0
10
87.86445625
20
51.4604
30
0
0
VERTEX
8
0
10
87.47760000000001
20
51.07354375
30
0
0
VERTEX
8
0
10
87.47760000000001
20
50.52645625
30
0
0
VERTEX
8
0
10
87.86445625
20
50.1396
30
0
0
VERTEX
8
0
10
88.41154375
20
50.1396
30
0
0
SEQEND
0
POLYLINE
66
1
8
16_copper
10
0.0
20
0.0
30
0.0
70
1
0
VERTEX
8
0
10
82.82205
20
50.038000000000004
30
0
0
VERTEX
8
0
10
88.138
20
50.038000000000004
30
0
42
0.9999999999999999
0
VERTEX
8
0
10
88.138
20
51.562000000000005
30
0
0
VERTEX
8
0
10
82.82205
20
51.562000000000005
30
0
0
VERTEX
8
0
10
82.31405000000001
20
52.07
30
0
0
VERTEX
8
0
10
81.26195
20
52.07
30
0
0
VERTEX
8
0
10
80.518
20
51.32605
30
0
0
VERTEX
8
0
10
80.518
20
50.27395
30
0
0
VERTEX
8
0
10
81.26195
20
49.53
30
0
0
VERTEX
8
0
10
82.31405000000001
20
49.53
30
0
0
SEQEND
0
POLYLINE
66
1
8
1_copper
10
0.0
20
0.0
30
0.0
70
1
0
VERTEX
8
0
10
64.88194375
20
13.723337500000001
30
0
42
0.3578057741447831
0
VERTEX
8
0
10
65.532
20
14.440565625000001
30
0
0
VERTEX
8
0
10
65.532
20
16.039434375
30
0
42
0.9520795017710562
0
VERTEX
8
0
10
64.00800000000001
20
16.039434375
30
0
0
VERTEX
8
0
10
64.00800000000001
20
14.440565625000001
30
0
0
VERTEX
8
0
10
64.0153375
20
14.366056250000002
30
0
0
VERTEX
8
0
10
64.02994375
20
14.292625000000001
30
0
0
VERTEX
8
0
10
64.05167812500001
20
14.220981250000001
30
0
0
VERTEX
8
0
10
64.08032812500001
20
14.151809375000001
30
0
0
VERTEX
8
0
10
64.115621875
20
14.08578125
30
0
0
VERTEX
8
0
10
64.15721875
20
14.023531250000001
30
0
0
VERTEX
8
0
10
64.204715625
20
13.96565625
30
0
0
VERTEX
8
0
10
64.25765625
20
13.912715625
30
0
0
VERTEX
8
0
10
64.31553125
20
13.86521875
30
0
0
VERTEX
8
0
10
64.37778125
20
13.823621875
30
0
0
VERTEX
8
0
10
64.443809375
20
13.788328125000001
30
0
0
VERTEX
8
0
10
64.51298125000001
20
13.759678125
30
0
0
VERTEX
8
0
10
64.584625
20
13.737943750000001
30
0
0
VERTEX
8
0
10
64.65805625
20
13.723337500000001
30
0
0
VERTEX
8
0
10
64.732565625
20
13.716000000000001
30
0
0
VERTEX
8
0
10
64.807434375
20
13.716000000000001
30
0
0
SEQEND
0
POLYLINE
66
1
8
1_copper
10
0.0
20
0.0
30
0.0
70
1
0
VERTEX
8
0
10
45.867818750000005
20
14.585959375
30
0
42
0.9063462356499619
0
VERTEX
8
0
10
45.80324375
20
15.900400000000001
30
0
0
VERTEX
8
0
10
44.417556250000004
20
15.900400000000001
30
0
42
0.9520786018124834
0
VERTEX
8
0
10
44.417556250000004
20
14.579600000000001
30
0
0
VERTEX
8
0
10
45.80324375
20
14.579600000000001
30
0
0
SEQEND
0
POLYLINE
66
1
8
1_copper
10
0.0
20
0.0
30
0.0
70
1
0
VERTEX
8
0
10
54.356
20
6.58595
30
0
0
VERTEX
8
0
10
54.356
20
7.638050000000001
30
0
0
VERTEX
8
0
10
53.61205
20
8.382
30
0
0
VERTEX
8
0
10
52.55995
20
8.382
30
0
0
VERTEX
8
0
10
51.816
20
7.638050000000001
30
0
0
VERTEX
8
0
10
51.816
20
6.58595
30
0
0
VERTEX
8
0
10
52.55995
20
5.8420000000000005
30
0
0
VERTEX
8
0
10
53.61205
20
5.8420000000000005
30
0
0
SEQEND
0
POLYLINE
66
1
8
16_copper
10
0.0
20
0.0
30
0.0
70
1
0
VERTEX
8
0
10
65.5246625
20
16.11394375
30
0
42
0.9063472543261978
0
VERTEX
8
0
10
64.00800000000001
20
16.039434375
30
0
0
VERTEX
8
0
10
64.00800000000001
20
11.491631250000001
30
0
0
VERTEX
8
0
10
60.39036875
20
7.8740000000000006
30
0
0
VERTEX
8
0
10
54.12005
20
7.8740000000000006
30
0
0
VERTEX
8
0
10
53.61205
20
8.382
30
0
0
VERTEX
8
0
10
52.55995
20
8.382
30
0
0
VERTEX
8
0
10
52.051950000000005
20
7.8740000000000006
30
0
0
VERTEX
8
0
10
50.607631250000004
20
7.8740000000000006
30
0
0
VERTEX
8
0
10
45.212
20
13.26963125
30
0
0
VERTEX
8
0
10
45.212
20
14.579600000000001
30
0
0
VERTEX
8
0
10
45.80324375
20
14.579600000000001
30
0
42
0.9520786018124834
0
VERTEX
8
0
10
45.80324375
20
15.900400000000001
30
0
0
VERTEX
8
0
10
44.828640625000006
20
15.900400000000001
30
0
42
0.5763490119835957
0
VERTEX
8
0
10
43.688
20
15.24
30
0
0
VERTEX
8
0
10
43.688
20
12.954
30
0
42
0.198912367379658
0
VERTEX
8
0
10
43.911184375000005
20
12.415184375
30
0
0
VERTEX
8
0
10
49.753184375000004
20
6.573184375
30
0
42
0.198912367379658
0
VERTEX
8
0
10
50.292
20
6.3500000000000005
30
0
0
VERTEX
8
0
10
52.051950000000005
20
6.3500000000000005
30
0
0
VERTEX
8
0
10
52.55995
20
5.8420000000000005
30
0
0
VERTEX
8
0
10
53.61205
20
5.8420000000000005
30
0
0
VERTEX
8
0
10
54.12005
20
6.3500000000000005
30
0
0
VERTEX
8
0
10
60.706
20
6.3500000000000005
30
0
42
0.198912367379658
0
VERTEX
8
0
10
61.244815625
20
6.573184375
30
0
0
VERTEX
8
0
10
65.30881562500001
20
10.637184375
30
0
42
0.198912367379658
0
VERTEX
8
0
10
65.532
20
11.176
30
0
0
VERTEX
8
0
10
65.532
20
16.039434375
30
0
0
SEQEND
0
POLYLINE
66
1
8
1_copper
10
0.0
20
0.0
30
0.0
70
1
0
VERTEX
8
0
10
42.748200000000004
20
31.40280625
30
0
0
VERTEX
8
0
10
42.748200000000004
20
32.09719375
30
0
0
VERTEX
8
0
10
42.25719375
20
32.5882
30
0
0
VERTEX
8
0
10
41.56280625
20
32.5882
30
0
0
VERTEX
8
0
10
41.0718
20
32.09719375
30
0
0
VERTEX
8
0
10
41.0718
20
31.40280625
30
0
0
VERTEX
8
0
10
41.56280625
20
30.911800000000003
30
0
0
VERTEX
8
0
10
42.25719375
20
30.911800000000003
30
0
0
SEQEND
0
POLYLINE
66
1
8
1_copper
10
0.0
20
0.0
30
0.0
70
1
0
VERTEX
8
0
10
36.92701875
20
19.665959375
30
0
42
0.9063462356499619
0
VERTEX
8
0
10
36.862443750000004
20
20.9804
30
0
0
VERTEX
8
0
10
35.47675625
20
20.9804
30
0
42
0.9520786018124834
0
VERTEX
8
0
10
35.47675625
20
19.6596
30
0
0
VERTEX
8
0
10
36.862443750000004
20
19.6596
30
0
0
SEQEND
0
POLYLINE
66
1
8
16_copper
10
0.0
20
0.0
30
0.0
70
1
0
VERTEX
8
0
10
36.92701875
20
19.665959375
30
0
42
0.9063462356499619
0
VERTEX
8
0
10
36.862443750000004
20
20.9804
30
0
0
VERTEX
8
0
10
35.47675625
20
20.9804
30
0
42
0.2665601437439214
0
VERTEX
8
0
10
34.923300000000005
20
20.6248
30
0
0
VERTEX
8
0
10
34.416250000000005
20
20.6248
30
0
0
VERTEX
8
0
10
32.0548
20
22.986250000000002
30
0
0
VERTEX
8
0
10
32.0548
20
27.813750000000002
30
0
0
VERTEX
8
0
10
35.68625
20
31.4452
30
0
0
VERTEX
8
0
10
41.0718
20
31.4452
30
0
0
VERTEX
8
0
10
41.0718
20
31.40280625
30
0
0
VERTEX
8
0
10
41.56280625
20
30.911800000000003
30
0
0
VERTEX
8
0
10
42.25719375
20
30.911800000000003
30
0
0
VERTEX
8
0
10
42.748200000000004
20
31.40280625
30
0
0
VERTEX
8
0
10
42.748200000000004
20
32.09719375
30
0
0
VERTEX
8
0
10
42.25719375
20
32.5882
30
0
0
VERTEX
8
0
10
41.56280625
20
32.5882
30
0
0
VERTEX
8
0
10
41.0718
20
32.09719375
30
0
0
VERTEX
8
0
10
41.0718
20
32.0548
30
0
0
VERTEX
8
0
10
35.56
20
32.0548
30
0
42
0.198912367379658
0
VERTEX
8
0
10
35.344475
20
31.965525000000003
30
0
0
VERTEX
8
0
10
31.534475
20
28.155525
30
0
42
0.198912367379658
0
VERTEX
8
0
10
31.4452
20
27.94
30
0
0
VERTEX
8
0
10
31.4452
20
22.86
30
0
42
0.198912367379658
0
VERTEX
8
0
10
31.534475
20
22.644475
30
0
0
VERTEX
8
0
10
34.074475
20
20.104475
30
0
42
0.198912367379658
0
VERTEX
8
0
10
34.29
20
20.0152
30
0
0
VERTEX
8
0
10
34.923300000000005
20
20.0152
30
0
42
0.2665601437439214
0
VERTEX
8
0
10
35.47675625
20
19.6596
30
0
0
VERTEX
8
0
10
36.862443750000004
20
19.6596
30
0
0
SEQEND
0
POLYLINE
66
1
8
1_copper
10
0.0
20
0.0
30
0.0
70
1
0
VERTEX
8
0
10
48.9204
20
22.58645625
30
0
0
VERTEX
8
0
10
48.9204
20
23.13354375
30
0
0
VERTEX
8
0
10
48.53354375
20
23.520400000000002
30
0
0
VERTEX
8
0
10
47.98645625
20
23.520400000000002
30
0
0
VERTEX
8
0
10
47.5996
20
23.13354375
30
0
0
VERTEX
8
0
10
47.5996
20
22.58645625
30
0
0
VERTEX
8
0
10
47.98645625
20
22.1996
30
0
0
VERTEX
8
0
10
48.53354375
20
22.1996
30
0
0
SEQEND
0
POLYLINE
66
1
8
1_copper
10
0.0
20
0.0
30
0.0
70
1
0
VERTEX
8
0
10
45.867818750000005
20
19.665959375
30
0
42
0.9063462356499619
0
VERTEX
8
0
10
45.80324375
20
20.9804
30
0
0
VERTEX
8
0
10
44.417556250000004
20
20.9804
30
0
42
0.9520786018124834
0
VERTEX
8
0
10
44.417556250000004
20
19.6596
30
0
0
VERTEX
8
0
10
45.80324375
20
19.6596
30
0
0
SEQEND
0
POLYLINE
66
1
8
16_copper
10
0.0
20
0.0
30
0.0
70
1
0
VERTEX
8
0
10
45.68591875
20
23.62045625
30
0
42
0.18729801936002255
0
VERTEX
8
0
10
45.181184375
20
23.398815625
30
0
0
VERTEX
8
0
10
43.911184375000005
20
22.128815625
30
0
42
0.198912367379658
0
VERTEX
8
0
10
43.688
20
21.59
30
0
0
VERTEX
8
0
10
43.688
20
20.32
30
0
42
0.5767034831191876
0
VERTEX
8
0
10
44.829575000000006
20
19.6596
30
0
0
VERTEX
8
0
10
45.80324375
20
19.6596
30
0
42
0.9520786018124834
0
VERTEX
8
0
10
45.80324375
20
20.9804
30
0
0
VERTEX
8
0
10
45.212
20
20.9804
30
0
0
VERTEX
8
0
10
45.212
20
21.27436875
30
0
0
VERTEX
8
0
10
46.03563125
20
22.098000000000003
30
0
0
VERTEX
8
0
10
48.260000000000005
20
22.098000000000003
30
0
42
0.9999999999999999
0
VERTEX
8
0
10
48.260000000000005
20
23.622
30
0
0
VERTEX
8
0
10
45.72
20
23.622
30
0
0
SEQEND
0
POLYLINE
66
1
8
1_copper
10
0.0
20
0.0
30
0.0
70
1
0
VERTEX
8
0
10
64.16040000000001
20
22.58645625
30
0
0
VERTEX
8
0
10
64.16040000000001
20
23.13354375
30
0
0
VERTEX
8
0
10
63.77354375
20
23.520400000000002
30
0
0
VERTEX
8
0
10
63.226456250000005
20
23.520400000000002
30
0
0
VERTEX
8
0
10
62.839600000000004
20
23.13354375
30
0
0
VERTEX
8
0
10
62.839600000000004
20
22.58645625
30
0
0
VERTEX
8
0
10
63.226456250000005
20
22.1996
30
0
0
VERTEX
8
0
10
63.77354375
20
22.1996
30
0
0
SEQEND
0
POLYLINE
66
1
8
1_copper
10
0.0
20
0.0
30
0.0
70
1
0
VERTEX
8
0
10
48.9204
20
18.776456250000003
30
0
0
VERTEX
8
0
10
48.9204
20
19.323543750000002
30
0
0
VERTEX
8
0
10
48.53354375
20
19.7104
30
0
0
VERTEX
8
0
10
47.98645625
20
19.7104
30
0
0
VERTEX
8
0
10
47.5996
20
19.323543750000002
30
0
0
VERTEX
8
0
10
47.5996
20
18.776456250000003
30
0
0
VERTEX
8
0
10
47.98645625
20
18.3896
30
0
0
VERTEX
8
0
10
48.53354375
20
18.3896
30
0
0
SEQEND
0
POLYLINE
66
1
8
16_copper
10
0.0
20
0.0
30
0.0
70
1
0
VERTEX
8
0
10
63.5
20
22.098000000000003
30
0
42
0.9999999999999999
0
VERTEX
8
0
10
63.5
20
23.622
30
0
0
VERTEX
8
0
10
57.150000000000006
20
23.622
30
0
42
0.198912367379658
0
VERTEX
8
0
10
56.611184375
20
23.398815625
30
0
0
VERTEX
8
0
10
53.02436875
20
19.812
30
0
0
VERTEX
8
0
10
48.260000000000005
20
19.812
30
0
42
0.6681786379192989
0
VERTEX
8
0
10
47.721184375
20
18.511184375
30
0
0
VERTEX
8
0
10
52.324000000000005
20
13.908368750000001
30
0
0
VERTEX
8
0
10
52.324000000000005
20
12.192
30
0
42
0.969419751066667
0
VERTEX
8
0
10
53.846531250000005
20
12.14470625
30
0
0
VERTEX
8
0
10
53.848000000000006
20
12.192
30
0
0
VERTEX
8
0
10
53.848000000000006
20
14.224
30
0
42
0.198912367379658
0
VERTEX
8
0
10
53.624815625000004
20
14.762815625
30
0
0
VERTEX
8
0
10
50.09963125
20
18.288
30
0
0
VERTEX
8
0
10
53.34
20
18.288
30
0
42
0.198912367379658
0
VERTEX
8
0
10
53.878815625
20
18.511184375
30
0
0
VERTEX
8
0
10
57.46563125
20
22.098000000000003
30
0
0
SEQEND
0
POLYLINE
66
1
8
1_copper
10
0.0
20
0.0
30
0.0
70
1
0
VERTEX
8
0
10
84.58200000000001
20
20.80995
30
0
0
VERTEX
8
0
10
84.58200000000001
20
21.86205
30
0
0
VERTEX
8
0
10
83.83805000000001
20
22.606
30
0
0
VERTEX
8
0
10
82.78595
20
22.606
30
0
0
VERTEX
8
0
10
82.042
20
21.86205
30
0
0
VERTEX
8
0
10
82.042
20
20.80995
30
0
0
VERTEX
8
0
10
82.78595
20
20.066000000000003
30
0
0
VERTEX
8
0
10
83.83805000000001
20
20.066000000000003
30
0
0
SEQEND
0
POLYLINE
66
1
8
1_copper
10
0.0
20
0.0
30
0.0
70
1
0
VERTEX
8
0
10
89.5604
20
18.26845625
30
0
0
VERTEX
8
0
10
89.5604
20
18.81554375
30
0
0
VERTEX
8
0
10
89.17354375000001
20
19.2024
30
0
0
VERTEX
8
0
10
88.62645625
20
19.2024
30
0
0
VERTEX
8
0
10
88.23960000000001
20
18.81554375
30
0
0
VERTEX
8
0
10
88.23960000000001
20
18.26845625
30
0
0
VERTEX
8
0
10
88.62645625
20
17.881600000000002
30
0
0
VERTEX
8
0
10
89.17354375000001
20
17.881600000000002
30
0
0
SEQEND
0
POLYLINE
66
1
8
16_copper
10
0.0
20
0.0
30
0.0
70
1
0
VERTEX
8
0
10
88.968921875
20
17.783121875
30
0
42
0.9557091790078125
0
VERTEX
8
0
10
88.9
20
19.304000000000002
30
0
0
VERTEX
8
0
10
86.42163125
20
19.304000000000002
30
0
0
VERTEX
8
0
10
84.58200000000001
20
21.143631250000002
30
0
0
VERTEX
8
0
10
84.58200000000001
20
21.86205
30
0
0
VERTEX
8
0
10
83.83805000000001
20
22.606
30
0
0
VERTEX
8
0
10
82.78595
20
22.606
30
0
0
VERTEX
8
0
10
82.042
20
21.86205
30
0
0
VERTEX
8
0
10
82.042
20
20.80995
30
0
0
VERTEX
8
0
10
82.78595
20
20.066000000000003
30
0
0
VERTEX
8
0
10
83.50436875
20
20.066000000000003
30
0
0
VERTEX
8
0
10
85.56718437500001
20
18.003184375
30
0
42
0.198912367379658
0
VERTEX
8
0
10
86.10600000000001
20
17.78
30
0
0
VERTEX
8
0
10
88.9
20
17.78
30
0
0
SEQEND
0
POLYLINE
66
1
8
1_copper
10
0.0
20
0.0
30
0.0
70
1
0
VERTEX
8
0
10
57.297818750000005
20
28.555959375
30
0
42
0.9063462356499619
0
VERTEX
8
0
10
57.23324375
20
29.8704
30
0
0
VERTEX
8
0
10
55.847556250000004
20
29.8704
30
0
42
0.9520786018124834
0
VERTEX
8
0
10
55.847556250000004
20
28.5496
30
0
0
VERTEX
8
0
10
57.23324375
20
28.5496
30
0
0
SEQEND
0
POLYLINE
66
1
8
1_copper
10
0.0
20
0.0
30
0.0
70
1
0
VERTEX
8
0
10
64.88194375
20
26.423337500000002
30
0
42
0.3578057741447831
0
VERTEX
8
0
10
65.532
20
27.140565625
30
0
0
VERTEX
8
0
10
65.532
20
28.739434375000002
30
0
42
0.9520795017710562
0
VERTEX
8
0
10
64.00800000000001
20
28.739434375000002
30
0
0
VERTEX
8
0
10
64.00800000000001
20
27.140565625
30
0
0
VERTEX
8
0
10
64.0153375
20
27.066056250000003
30
0
0
VERTEX
8
0
10
64.02994375
20
26.992625
30
0
0
VERTEX
8
0
10
64.05167812500001
20
26.92098125
30
0
0
VERTEX
8
0
10
64.08032812500001
20
26.851809375000002
30
0
0
VERTEX
8
0
10
64.115621875
20
26.785781250000003
30
0
0
VERTEX
8
0
10
64.15721875
20
26.72353125
30
0
0
VERTEX
8
0
10
64.204715625
20
26.66565625
30
0
0
VERTEX
8
0
10
64.25765625
20
26.612715625
30
0
0
VERTEX
8
0
10
64.31553125
20
26.56521875
30
0
0
VERTEX
8
0
10
64.37778125
20
26.523621875
30
0
0
VERTEX
8
0
10
64.443809375
20
26.488328125000002
30
0
0
VERTEX
8
0
10
64.51298125000001
20
26.459678125
30
0
0
VERTEX
8
0
10
64.584625
20
26.437943750000002
30
0
0
VERTEX
8
0
10
64.65805625
20
26.423337500000002
30
0
0
VERTEX
8
0
10
64.732565625
20
26.416
30
0
0
VERTEX
8
0
10
64.807434375
20
26.416
30
0
0
SEQEND
0
POLYLINE
66
1
8
16_copper
10
0.0
20
0.0
30
0.0
70
1
0
VERTEX
8
0
10
64.88194375
20
26.423337500000002
30
0
42
0.3578057741447831
0
VERTEX
8
0
10
65.532
20
27.140565625
30
0
0
VERTEX
8
0
10
65.532
20
28.739434375000002
30
0
42
0.97575283171743
0
VERTEX
8
0
10
64.00800000000001
20
28.702
30
0
0
VERTEX
8
0
10
57.622796875000006
20
28.702
30
0
42
0.683887654522564
0
VERTEX
8
0
10
57.23324375
20
29.8704
30
0
0
VERTEX
8
0
10
56.258640625000005
20
29.8704
30
0
42
0.5763490119835957
0
VERTEX
8
0
10
55.118
20
29.21
30
0
0
VERTEX
8
0
10
55.118
20
27.94
30
0
42
0.41421356237309503
0
VERTEX
8
0
10
55.88
20
27.178
30
0
0
VERTEX
8
0
10
64.00800000000001
20
27.178
30
0
0
VERTEX
8
0
10
64.00800000000001
20
27.140565625
30
0
0
VERTEX
8
0
10
64.0153375
20
27.066056250000003
30
0
0
VERTEX
8
0
10
64.02994375
20
26.992625
30
0
0
VERTEX
8
0
10
64.05167812500001
20
26.92098125
30
0
0
VERTEX
8
0
10
64.08032812500001
20
26.851809375000002
30
0
0
VERTEX
8
0
10
64.115621875
20
26.785781250000003
30
0
0
VERTEX
8
0
10
64.15721875
20
26.72353125
30
0
0
VERTEX
8
0
10
64.204715625
20
26.66565625
30
0
0
VERTEX
8
0
10
64.25765625
20
26.612715625
30
0
0
VERTEX
8
0
10
64.31553125
20
26.56521875
30
0
0
VERTEX
8
0
10
64.37778125
20
26.523621875
30
0
0
VERTEX
8
0
10
64.443809375
20
26.488328125000002
30
0
0
VERTEX
8
0
10
64.51298125000001
20
26.459678125
30
0
0
VERTEX
8
0
10
64.584625
20
26.437943750000002
30
0
0
VERTEX
8
0
10
64.65805625
20
26.423337500000002
30
0
0
VERTEX
8
0
10
64.732565625
20
26.416
30
0
0
VERTEX
8
0
10
64.807434375
20
26.416
30
0
0
SEQEND
0
POLYLINE
66
1
8
1_copper
10
0.0
20
0.0
30
0.0
70
1
0
VERTEX
8
0
10
42.748200000000004
20
33.942806250000004
30
0
0
VERTEX
8
0
10
42.748200000000004
20
34.63719375
30
0
0
VERTEX
8
0
10
42.25719375
20
35.1282
30
0
0
VERTEX
8
0
10
41.56280625
20
35.1282
30
0
0
VERTEX
8
0
10
41.0718
20
34.63719375
30
0
0
VERTEX
8
0
10
41.0718
20
33.942806250000004
30
0
0
VERTEX
8
0
10
41.56280625
20
33.4518
30
0
0
VERTEX
8
0
10
42.25719375
20
33.4518
30
0
0
SEQEND
0
POLYLINE
66
1
8
1_copper
10
0.0
20
0.0
30
0.0
70
1
0
VERTEX
8
0
10
48.35701875
20
33.635959375
30
0
42
0.9063462356499619
0
VERTEX
8
0
10
48.292443750000004
20
34.9504
30
0
0
VERTEX
8
0
10
46.90675625
20
34.9504
30
0
42
0.9520786018124834
0
VERTEX
8
0
10
46.90675625
20
33.6296
30
0
0
VERTEX
8
0
10
48.292443750000004
20
33.6296
30
0
0
SEQEND
0
POLYLINE
66
1
8
16_copper
10
0.0
20
0.0
30
0.0
70
1
0
VERTEX
8
0
10
42.748200000000004
20
33.942806250000004
30
0
0
VERTEX
8
0
10
42.748200000000004
20
33.9852
30
0
0
VERTEX
8
0
10
46.353300000000004
20
33.9852
30
0
42
0.2665601437439214
0
VERTEX
8
0
10
46.90675625
20
33.6296
30
0
0
VERTEX
8
0
10
48.292443750000004
20
33.6296
30
0
42
0.9520786018124834
0
VERTEX
8
0
10
48.292443750000004
20
34.9504
30
0
0
VERTEX
8
0
10
46.90675625
20
34.9504
30
0
42
0.2665601437439214
0
VERTEX
8
0
10
46.353300000000004
20
34.5948
30
0
0
VERTEX
8
0
10
42.748200000000004
20
34.5948
30
0
0
VERTEX
8
0
10
42.748200000000004
20
34.63719375
30
0
0
VERTEX
8
0
10
42.25719375
20
35.1282
30
0
0
VERTEX
8
0
10
41.56280625
20
35.1282
30
0
0
VERTEX
8
0
10
41.0718
20
34.63719375
30
0
0
VERTEX
8
0
10
41.0718
20
33.942806250000004
30
0
0
VERTEX
8
0
10
41.56280625
20
33.4518
30
0
0
VERTEX
8
0
10
42.25719375
20
33.4518
30
0
0
SEQEND
0
POLYLINE
66
1
8
1_copper
10
0.0
20
0.0
30
0.0
70
1
0
VERTEX
8
0
10
60.3504
20
36.556456250000004
30
0
0
VERTEX
8
0
10
60.3504
20
37.10354375
30
0
0
VERTEX
8
0
10
59.96354375
20
37.4904
30
0
0
VERTEX
8
0
10
59.41645625
20
37.4904
30
0
0
VERTEX
8
0
10
59.0296
20
37.10354375
30
0
0
VERTEX
8
0
10
59.0296
20
36.556456250000004
30
0
0
VERTEX
8
0
10
59.41645625
20
36.1696
30
0
0
VERTEX
8
0
10
59.96354375
20
36.1696
30
0
0
SEQEND
0
POLYLINE
66
1
8
1_copper
10
0.0
20
0.0
30
0.0
70
1
0
VERTEX
8
0
10
57.297818750000005
20
33.635959375
30
0
42
0.9063462356499619
0
VERTEX
8
0
10
57.23324375
20
34.9504
30
0
0
VERTEX
8
0
10
55.847556250000004
20
34.9504
30
0
42
0.9520786018124834
0
VERTEX
8
0
10
55.847556250000004
20
33.6296
30
0
0
VERTEX
8
0
10
57.23324375
20
33.6296
30
0
0
SEQEND
0
POLYLINE
66
1
8
16_copper
10
0.0
20
0.0
30
0.0
70
1
0
VERTEX
8
0
10
59.827281250000006
20
36.08046875
30
0
42
0.9132932433983214
0
VERTEX
8
0
10
59.690000000000005
20
37.592
30
0
0
VERTEX
8
0
10
57.150000000000006
20
37.592
30
0
42
0.198912367379658
0
VERTEX
8
0
10
56.611184375
20
37.368815625
30
0
0
VERTEX
8
0
10
55.341184375000005
20
36.098815625
30
0
42
0.198912367379658
0
VERTEX
8
0
10
55.118
20
35.56
30
0
0
VERTEX
8
0
10
55.118
20
34.29
30
0
42
0.5767034831191876
0
VERTEX
8
0
10
56.259575000000005
20
33.6296
30
0
0
VERTEX
8
0
10
57.23324375
20
33.6296
30
0
42
0.9520786018124834
0
VERTEX
8
0
10
57.23324375
20
34.9504
30
0
0
VERTEX
8
0
10
56.642
20
34.9504
30
0
0
VERTEX
8
0
10
56.642
20
35.24436875
30
0
0
VERTEX
8
0
10
57.46563125
20
36.068000000000005
30
0
0
VERTEX
8
0
10
59.690000000000005
20
36.068000000000005
30
0
0
VERTEX
8
0
10
59.758921875000006
20
36.071121875
30
0
0
SEQEND
0
POLYLINE
66
1
8
1_copper
10
0.0
20
0.0
30
0.0
70
1
0
VERTEX
8
0
10
75.5904
20
36.556456250000004
30
0
0
VERTEX
8
0
10
75.5904
20
37.10354375
30
0
0
VERTEX
8
0
10
75.20354375000001
20
37.4904
30
0
0
VERTEX
8
0
10
74.65645625
20
37.4904
30
0
0
VERTEX
8
0
10
74.2696
20
37.10354375
30
0
0
VERTEX
8
0
10
74.2696
20
36.556456250000004
30
0
0
VERTEX
8
0
10
74.65645625
20
36.1696
30
0
0
VERTEX
8
0
10
75.20354375000001
20
36.1696
30
0
0
SEQEND
0
POLYLINE
66
1
8
1_copper
10
0.0
20
0.0
30
0.0
70
1
0
VERTEX
8
0
10
60.3504
20
32.74645625
30
0
0
VERTEX
8
0
10
60.3504
20
33.293543750000005
30
0
0
VERTEX
8
0
10
59.96354375
20
33.6804
30
0
0
VERTEX
8
0
10
59.41645625
20
33.6804
30
0
0
VERTEX
8
0
10
59.0296
20
33.293543750000005
30
0
0
VERTEX
8
0
10
59.0296
20
32.74645625
30
0
0
VERTEX
8
0
10
59.41645625
20
32.3596
30
0
0
VERTEX
8
0
10
59.96354375
20
32.3596
30
0
0
SEQEND
0
POLYLINE
66
1
8
16_copper
10
0.0
20
0.0
30
0.0
70
1
0
VERTEX
8
0
10
68.54591875
20
37.59045625
30
0
42
0.18729801936002255
0
VERTEX
8
0
10
68.041184375
20
37.368815625
30
0
0
VERTEX
8
0
10
64.45436875
20
33.782000000000004
30
0
0
VERTEX
8
0
10
59.690000000000005
20
33.782000000000004
30
0
42
0.969419751066667
0
VERTEX
8
0
10
59.64270625
20
32.25946875
30
0
0
VERTEX
8
0
10
59.690000000000005
20
32.258
30
0
0
VERTEX
8
0
10
64.77
20
32.258
30
0
42
0.198912367379658
0
VERTEX
8
0
10
65.30881562500001
20
32.481184375000005
30
0
0
VERTEX
8
0
10
68.89563125000001
20
36.068000000000005
30
0
0
VERTEX
8
0
10
74.93
20
36.068000000000005
30
0
42
0.9999999999999999
0
VERTEX
8
0
10
74.93
20
37.592
30
0
0
VERTEX
8
0
10
68.58
20
37.592
30
0
0
SEQEND
0
POLYLINE
66
1
8
1_copper
10
0.0
20
0.0
30
0.0
70
1
0
VERTEX
8
0
10
64.16040000000001
20
18.776456250000003
30
0
0
VERTEX
8
0
10
64.16040000000001
20
19.323543750000002
30
0
0
VERTEX
8
0
10
63.77354375
20
19.7104
30
0
0
VERTEX
8
0
10
63.226456250000005
20
19.7104
30
0
0
VERTEX
8
0
10
62.839600000000004
20
19.323543750000002
30
0
0
VERTEX
8
0
10
62.839600000000004
20
18.776456250000003
30
0
0
VERTEX
8
0
10
63.226456250000005
20
18.3896
30
0
0
VERTEX
8
0
10
63.77354375
20
18.3896
30
0
0
SEQEND
0
POLYLINE
66
1
8
1_copper
10
0.0
20
0.0
30
0.0
70
1
0
VERTEX
8
0
10
67.42194375
20
13.723337500000001
30
0
42
0.3578057741447831
0
VERTEX
8
0
10
68.072
20
14.440565625000001
30
0
0
VERTEX
8
0
10
68.072
20
16.039434375
30
0
42
0.9520795017710562
0
VERTEX
8
0
10
66.548
20
16.039434375
30
0
0
VERTEX
8
0
10
66.548
20
14.440565625000001
30
0
0
VERTEX
8
0
10
66.55533750000001
20
14.366056250000002
30
0
0
VERTEX
8
0
10
66.56994375000001
20
14.292625000000001
30
0
0
VERTEX
8
0
10
66.591678125
20
14.220981250000001
30
0
0
VERTEX
8
0
10
66.620328125
20
14.151809375000001
30
0
0
VERTEX
8
0
10
66.65562187500001
20
14.08578125
30
0
0
VERTEX
8
0
10
66.69721875
20
14.023531250000001
30
0
0
VERTEX
8
0
10
66.744715625
20
13.96565625
30
0
0
VERTEX
8
0
10
66.79765625
20
13.912715625
30
0
0
VERTEX
8
0
10
66.85553125
20
13.86521875
30
0
0
VERTEX
8
0
10
66.91778125
20
13.823621875
30
0
0
VERTEX
8
0
10
66.983809375
20
13.788328125000001
30
0
0
VERTEX
8
0
10
67.05298125
20
13.759678125
30
0
0
VERTEX
8
0
10
67.12462500000001
20
13.737943750000001
30
0
0
VERTEX
8
0
10
67.19805625000001
20
13.723337500000001
30
0
0
VERTEX
8
0
10
67.272565625
20
13.716000000000001
30
0
0
VERTEX
8
0
10
67.347434375
20
13.716000000000001
30
0
0
SEQEND
0
POLYLINE
66
1
8
1_copper
10
0.0
20
0.0
30
0.0
70
1
0
VERTEX
8
0
10
102.612328125
20
14.391465625
30
0
42
0.9163316085759909
0
VERTEX
8
0
10
102.534440625
20
16.17535
30
0
0
VERTEX
8
0
10
100.665559375
20
16.17535
30
0
42
0.9572930243014984
0
VERTEX
8
0
10
100.665559375
20
14.38465
30
0
0
VERTEX
8
0
10
102.534440625
20
14.38465
30
0
0
SEQEND
0
POLYLINE
66
1
8
1_copper
10
0.0
20
0.0
30
0.0
70
1
0
VERTEX
8
0
10
89.5604
20
3.02845625
30
0
0
VERTEX
8
0
10
89.5604
20
3.57554375
30
0
0
VERTEX
8
0
10
89.17354375000001
20
3.9624
30
0
0
VERTEX
8
0
10
88.62645625
20
3.9624
30
0
0
VERTEX
8
0
10
88.23960000000001
20
3.57554375
30
0
0
VERTEX
8
0
10
88.23960000000001
20
3.02845625
30
0
0
VERTEX
8
0
10
88.62645625
20
2.6416
30
0
0
VERTEX
8
0
10
89.17354375000001
20
2.6416
30
0
0
SEQEND
0
POLYLINE
66
1
8
16_copper
10
0.0
20
0.0
30
0.0
70
1
0
VERTEX
8
0
10
97.50191875
20
16.00045625
30
0
42
0.18729801936002255
0
VERTEX
8
0
10
96.997184375
20
15.778815625
30
0
0
VERTEX
8
0
10
88.36118437500001
20
7.142815625000001
30
0
42
0.198912367379658
0
VERTEX
8
0
10
88.138
20
6.604
30
0
0
VERTEX
8
0
10
88.138
20
5.1416312500000005
30
0
0
VERTEX
8
0
10
81.310815625
20
11.968815625000001
30
0
42
0.198912367379658
0
VERTEX
8
0
10
80.772
20
12.192
30
0
0
VERTEX
8
0
10
68.89563125000001
20
12.192
30
0
0
VERTEX
8
0
10
68.072
20
13.01563125
30
0
0
VERTEX
8
0
10
68.072
20
16.51
30
0
42
0.198912367379658
0
VERTEX
8
0
10
67.848815625
20
17.048815625
30
0
0
VERTEX
8
0
10
65.30881562500001
20
19.588815625000002
30
0
42
0.198912367379658
0
VERTEX
8
0
10
64.77
20
19.812
30
0
0
VERTEX
8
0
10
63.5
20
19.812
30
0
42
0.969419751066667
0
VERTEX
8
0
10
63.452706250000006
20
18.28946875
30
0
0
VERTEX
8
0
10
63.5
20
18.288
30
0
0
VERTEX
8
0
10
64.45436875
20
18.288
30
0
0
VERTEX
8
0
10
66.548
20
16.194368750000002
30
0
0
VERTEX
8
0
10
66.548
20
12.700000000000001
30
0
42
0.198912367379658
0
VERTEX
8
0
10
66.771184375
20
12.161184375000001
30
0
0
VERTEX
8
0
10
68.041184375
20
10.891184375
30
0
42
0.198912367379658
0
VERTEX
8
0
10
68.58
20
10.668000000000001
30
0
0
VERTEX
8
0
10
80.45636875000001
20
10.668000000000001
30
0
0
VERTEX
8
0
10
88.36118437500001
20
2.7631843750000002
30
0
42
0.6681786379192989
0
VERTEX
8
0
10
89.662
20
3.302
30
0
0
VERTEX
8
0
10
89.662
20
6.28836875
30
0
0
VERTEX
8
0
10
97.85163125000001
20
14.478000000000002
30
0
0
VERTEX
8
0
10
100.305965625
20
14.478000000000002
30
0
42
0.10480704167988988
0
VERTEX
8
0
10
100.665559375
20
14.38465
30
0
0
VERTEX
8
0
10
102.534440625
20
14.38465
30
0
42
0.9572930243014984
0
VERTEX
8
0
10
102.534440625
20
16.17535
30
0
0
VERTEX
8
0
10
100.665559375
20
16.17535
30
0
42
0.1484473868368414
0
VERTEX
8
0
10
100.17477500000001
20
16.002000000000002
30
0
0
VERTEX
8
0
10
97.536
20
16.002000000000002
30
0
0
SEQEND
0
POLYLINE
66
1
8
1_copper
10
0.0
20
0.0
30
0.0
70
1
0
VERTEX
8
0
10
75.5904
20
32.74645625
30
0
0
VERTEX
8
0
10
75.5904
20
33.293543750000005
30
0
0
VERTEX
8
0
10
75.20354375000001
20
33.6804
30
0
0
VERTEX
8
0
10
74.65645625
20
33.6804
30
0
0
VERTEX
8
0
10
74.2696
20
33.293543750000005
30
0
0
VERTEX
8
0
10
74.2696
20
32.74645625
30
0
0
VERTEX
8
0
10
74.65645625
20
32.3596
30
0
0
VERTEX
8
0
10
75.20354375000001
20
32.3596
30
0
0
SEQEND
0
POLYLINE
66
1
8
1_copper
10
0.0
20
0.0
30
0.0
70
1
0
VERTEX
8
0
10
67.42194375
20
26.423337500000002
30
0
42
0.3578057741447831
0
VERTEX
8
0
10
68.072
20
27.140565625
30
0
0
VERTEX
8
0
10
68.072
20
28.739434375000002
30
0
42
0.9520795017710562
0
VERTEX
8
0
10
66.548
20
28.739434375000002
30
0
0
VERTEX
8
0
10
66.548
20
27.140565625
30
0
0
VERTEX
8
0
10
66.55533750000001
20
27.066056250000003
30
0
0
VERTEX
8
0
10
66.56994375000001
20
26.992625
30
0
0
VERTEX
8
0
10
66.591678125
20
26.92098125
30
0
0
VERTEX
8
0
10
66.620328125
20
26.851809375000002
30
0
0
VERTEX
8
0
10
66.65562187500001
20
26.785781250000003
30
0
0
VERTEX
8
0
10
66.69721875
20
26.72353125
30
0
0
VERTEX
8
0
10
66.744715625
20
26.66565625
30
0
0
VERTEX
8
0
10
66.79765625
20
26.612715625
30
0
0
VERTEX
8
0
10
66.85553125
20
26.56521875
30
0
0
VERTEX
8
0
10
66.91778125
20
26.523621875
30
0
0
VERTEX
8
0
10
66.983809375
20
26.488328125000002
30
0
0
VERTEX
8
0
10
67.05298125
20
26.459678125
30
0
0
VERTEX
8
0
10
67.12462500000001
20
26.437943750000002
30
0
0
VERTEX
8
0
10
67.19805625000001
20
26.423337500000002
30
0
0
VERTEX
8
0
10
67.272565625
20
26.416
30
0
0
VERTEX
8
0
10
67.347434375
20
26.416
30
0
0
SEQEND
0
POLYLINE
66
1
8
1_copper
10
0.0
20
0.0
30
0.0
70
1
0
VERTEX
8
0
10
102.612328125
20
24.551465625000002
30
0
42
0.9163316085759909
0
VERTEX
8
0
10
102.534440625
20
26.335350000000002
30
0
0
VERTEX
8
0
10
100.665559375
20
26.335350000000002
30
0
42
0.9572930243014984
0
VERTEX
8
0
10
100.665559375
20
24.54465
30
0
0
VERTEX
8
0
10
102.534440625
20
24.54465
30
0
0
SEQEND
0
POLYLINE
66
1
8
16_copper
10
0.0
20
0.0
30
0.0
70
1
0
VERTEX
8
0
10
69.81591875000001
20
33.78045625
30
0
42
0.18729801936002255
0
VERTEX
8
0
10
69.311184375
20
33.558815625
30
0
0
VERTEX
8
0
10
66.771184375
20
31.018815625000002
30
0
42
0.198912367379658
0
VERTEX
8
0
10
66.548
20
30.48
30
0
0
VERTEX
8
0
10
66.548
20
27.140565625
30
0
42
0.9520795017710562
0
VERTEX
8
0
10
68.072
20
27.140565625
30
0
0
VERTEX
8
0
10
68.072
20
30.16436875
30
0
0
VERTEX
8
0
10
70.16563125
20
32.258
30
0
0
VERTEX
8
0
10
84.77436875000001
20
32.258
30
0
0
VERTEX
8
0
10
92.131184375
20
24.901184375
30
0
42
0.198912367379658
0
VERTEX
8
0
10
92.67
20
24.678
30
0
0
VERTEX
8
0
10
100.23377500000001
20
24.678
30
0
42
0.1281646492059589
0
VERTEX
8
0
10
100.665559375
20
24.54465
30
0
0
VERTEX
8
0
10
102.534440625
20
24.54465
30
0
42
0.9572930243014984
0
VERTEX
8
0
10
102.534440625
20
26.335350000000002
30
0
0
VERTEX
8
0
10
100.665559375
20
26.335350000000002
30
0
42
0.1281646492059589
0
VERTEX
8
0
10
100.23377500000001
20
26.202
30
0
0
VERTEX
8
0
10
92.98563125000001
20
26.202
30
0
0
VERTEX
8
0
10
85.628815625
20
33.558815625
30
0
42
0.198912367379658
0
VERTEX
8
0
10
85.09
20
33.782000000000004
30
0
0
VERTEX
8
0
10
69.85000000000001
20
33.782000000000004
30
0
0
SEQEND
0
POLYLINE
66
1
8
1_copper
10
0.0
20
0.0
30
0.0
70
1
0
VERTEX
8
0
10
102.612328125
20
60.031465625
30
0
42
0.9163316085759909
0
VERTEX
8
0
10
102.534440625
20
61.81535
30
0
0
VERTEX
8
0
10
100.665559375
20
61.81535
30
0
42
0.9572930243014984
0
VERTEX
8
0
10
100.665559375
20
60.02465
30
0
0
VERTEX
8
0
10
102.534440625
20
60.02465
30
0
0
SEQEND
0
POLYLINE
66
1
8
1_copper
10
0.0
20
0.0
30
0.0
70
1
0
VERTEX
8
0
10
102.612328125
20
44.871465625
30
0
42
0.9163316085759909
0
VERTEX
8
0
10
102.534440625
20
46.655350000000006
30
0
0
VERTEX
8
0
10
100.665559375
20
46.655350000000006
30
0
42
0.9572930243014984
0
VERTEX
8
0
10
100.665559375
20
44.864650000000005
30
0
0
VERTEX
8
0
10
102.534440625
20
44.864650000000005
30
0
0
SEQEND
0
POLYLINE
66
1
8
1_copper
10
0.0
20
0.0
30
0.0
70
1
0
VERTEX
8
0
10
102.612328125
20
39.711465625
30
0
42
0.9163316085759909
0
VERTEX
8
0
10
102.534440625
20
41.49535
30
0
0
VERTEX
8
0
10
100.665559375
20
41.49535
30
0
42
0.9572930243014984
0
VERTEX
8
0
10
100.665559375
20
39.70465
30
0
0
VERTEX
8
0
10
102.534440625
20
39.70465
30
0
0
SEQEND
0
POLYLINE
66
1
8
1_copper
10
0.0
20
0.0
30
0.0
70
1
0
VERTEX
8
0
10
102.612328125
20
29.551465625000002
30
0
42
0.9163316085759909
0
VERTEX
8
0
10
102.534440625
20
31.335350000000002
30
0
0
VERTEX
8
0
10
100.665559375
20
31.335350000000002
30
0
42
0.9572930243014984
0
VERTEX
8
0
10
100.665559375
20
29.54465
30
0
0
VERTEX
8
0
10
102.534440625
20
29.54465
30
0
0
SEQEND
0
POLYLINE
66
1
8
1_copper
10
0.0
20
0.0
30
0.0
70
1
0
VERTEX
8
0
10
102.612328125
20
19.391465625000002
30
0
42
0.9163316085759909
0
VERTEX
8
0
10
102.534440625
20
21.17535
30
0
0
VERTEX
8
0
10
100.665559375
20
21.17535
30
0
42
0.9572930243014984
0
VERTEX
8
0
10
100.665559375
20
19.38465
30
0
0
VERTEX
8
0
10
102.534440625
20
19.38465
30
0
0
SEQEND
0
POLYLINE
66
1
8
16_copper
10
0.0
20
0.0
30
0.0
70
1
0
VERTEX
8
0
10
105.76945625
20
27.065081250000002
30
0
42
0.18729801936002255
0
VERTEX
8
0
10
105.547815625
20
27.569815625
30
0
0
VERTEX
8
0
10
103.21329687500001
20
29.904334375
30
0
42
0.33194735956006666
0
VERTEX
8
0
10
103.21329687500001
20
30.975665625
30
0
0
VERTEX
8
0
10
105.547815625
20
33.310184375
30
0
42
0.198912367379658
0
VERTEX
8
0
10
105.771
20
33.849000000000004
30
0
0
VERTEX
8
0
10
105.771
20
37.191
30
0
42
0.198912367379658
0
VERTEX
8
0
10
105.547815625
20
37.729815625
30
0
0
VERTEX
8
0
10
103.21329687500001
20
40.064334375
30
0
42
0.6694292926730858
0
VERTEX
8
0
10
102.36200000000001
20
41.49535
30
0
0
VERTEX
8
0
10
102.36200000000001
20
44.864650000000005
30
0
42
0.6694292926730858
0
VERTEX
8
0
10
103.21329687500001
20
46.295665625000005
30
0
0
VERTEX
8
0
10
105.547815625
20
48.630184375
30
0
42
0.198912367379658
0
VERTEX
8
0
10
105.771
20
49.169000000000004
30
0
0
VERTEX
8
0
10
105.771
20
57.511
30
0
42
0.198912367379658
0
VERTEX
8
0
10
105.547815625
20
58.049815625
30
0
0
VERTEX
8
0
10
103.21329687500001
20
60.384334375
30
0
42
0.6022093489837355
0
VERTEX
8
0
10
102.534440625
20
61.81535
30
0
0
VERTEX
8
0
10
100.665559375
20
61.81535
30
0
42
0.9572930243014984
0
VERTEX
8
0
10
100.665559375
20
60.02465
30
0
0
VERTEX
8
0
10
101.41771875
20
60.02465
30
0
0
VERTEX
8
0
10
104.247
20
57.19536875
30
0
0
VERTEX
8
0
10
104.247
20
49.48463125
30
0
0
VERTEX
8
0
10
101.41771875
20
46.655350000000006
30
0
0
VERTEX
8
0
10
100.665559375
20
46.655350000000006
30
0
42
0.9572930243014984
0
VERTEX
8
0
10
100.665559375
20
44.864650000000005
30
0
0
VERTEX
8
0
10
100.83800000000001
20
44.864650000000005
30
0
0
VERTEX
8
0
10
100.83800000000001
20
41.49535
30
0
42
0.9654448664342149
0
VERTEX
8
0
10
100.510675
20
39.725040625000005
30
0
0
VERTEX
8
0
10
100.587671875
20
39.711465625
30
0
0
VERTEX
8
0
10
100.665559375
20
39.70465
30
0
0
VERTEX
8
0
10
101.41771875
20
39.70465
30
0
0
VERTEX
8
0
10
104.247
20
36.87536875
30
0
0
VERTEX
8
0
10
104.247
20
34.16463125
30
0
0
VERTEX
8
0
10
101.41771875
20
31.335350000000002
30
0
0
VERTEX
8
0
10
100.665559375
20
31.335350000000002
30
0
42
0.9572930243014984
0
VERTEX
8
0
10
100.665559375
20
29.54465
30
0
0
VERTEX
8
0
10
101.41771875
20
29.54465
30
0
0
VERTEX
8
0
10
104.247
20
26.71536875
30
0
0
VERTEX
8
0
10
104.247
20
24.004631250000003
30
0
0
VERTEX
8
0
10
101.41771875
20
21.17535
30
0
0
VERTEX
8
0
10
100.665559375
20
21.17535
30
0
42
0.9572930243014984
0
VERTEX
8
0
10
100.665559375
20
19.38465
30
0
0
VERTEX
8
0
10
102.534440625
20
19.38465
30
0
42
0.6022093489837355
0
VERTEX
8
0
10
103.21329687500001
20
20.815665625
30
0
0
VERTEX
8
0
10
105.547815625
20
23.150184375000002
30
0
42
0.198912367379658
0
VERTEX
8
0
10
105.771
20
23.689
30
0
0
VERTEX
8
0
10
105.771
20
27.031000000000002
30
0
0
SEQEND
0
POLYLINE
66
1
8
1_copper
10
0.0
20
0.0
30
0.0
70
1
0
VERTEX
8
0
10
16.078200000000002
20
9.812806250000001
30
0
0
VERTEX
8
0
10
16.078200000000002
20
10.50719375
30
0
0
VERTEX
8
0
10
15.58719375
20
10.9982
30
0
0
VERTEX
8
0
10
14.892806250000001
20
10.9982
30
0
0
VERTEX
8
0
10
14.401800000000001
20
10.50719375
30
0
0
VERTEX
8
0
10
14.401800000000001
20
9.812806250000001
30
0
0
VERTEX
8
0
10
14.892806250000001
20
9.3218
30
0
0
VERTEX
8
0
10
15.58719375
20
9.3218
30
0
0
SEQEND
0
POLYLINE
66
1
8
1_copper
10
0.0
20
0.0
30
0.0
70
1
0
VERTEX
8
0
10
13.0302
20
1.17680625
30
0
0
VERTEX
8
0
10
13.0302
20
1.87119375
30
0
0
VERTEX
8
0
10
12.53919375
20
2.3622
30
0
0
VERTEX
8
0
10
11.844806250000001
20
2.3622
30
0
0
VERTEX
8
0
10
11.3538
20
1.87119375
30
0
0
VERTEX
8
0
10
11.3538
20
1.17680625
30
0
0
VERTEX
8
0
10
11.844806250000001
20
0.6858000000000001
30
0
0
VERTEX
8
0
10
12.53919375
20
0.6858000000000001
30
0
0
SEQEND
0
POLYLINE
66
1
8
16_copper
10
0.0
20
0.0
30
0.0
70
1
0
VERTEX
8
0
10
13.0302
20
1.17680625
30
0
0
VERTEX
8
0
10
13.0302
20
1.87119375
30
0
0
VERTEX
8
0
10
12.53919375
20
2.3622
30
0
0
VERTEX
8
0
10
12.4968
20
2.3622
30
0
0
VERTEX
8
0
10
12.4968
20
6.98575
30
0
0
VERTEX
8
0
10
14.862828125
20
9.351778125000001
30
0
0
VERTEX
8
0
10
14.892806250000001
20
9.3218
30
0
0
VERTEX
8
0
10
15.58719375
20
9.3218
30
0
0
VERTEX
8
0
10
16.078200000000002
20
9.812806250000001
30
0
0
VERTEX
8
0
10
16.078200000000002
20
10.50719375
30
0
0
VERTEX
8
0
10
15.58719375
20
10.9982
30
0
0
VERTEX
8
0
10
14.892806250000001
20
10.9982
30
0
0
VERTEX
8
0
10
14.401800000000001
20
10.50719375
30
0
0
VERTEX
8
0
10
14.401800000000001
20
9.812806250000001
30
0
0
VERTEX
8
0
10
14.431778125000001
20
9.782828125
30
0
0
VERTEX
8
0
10
11.976475
20
7.3275250000000005
30
0
42
0.198912367379658
0
VERTEX
8
0
10
11.8872
20
7.112
30
0
0
VERTEX
8
0
10
11.8872
20
2.3622
30
0
0
VERTEX
8
0
10
11.844806250000001
20
2.3622
30
0
0
VERTEX
8
0
10
11.3538
20
1.87119375
30
0
0
VERTEX
8
0
10
11.3538
20
1.17680625
30
0
0
VERTEX
8
0
10
11.844806250000001
20
0.6858000000000001
30
0
0
VERTEX
8
0
10
12.53919375
20
0.6858000000000001
30
0
0
SEQEND
0
POLYLINE
66
1
8
1_copper
10
0.0
20
0.0
30
0.0
70
1
0
VERTEX
8
0
10
23.6982
20
9.812806250000001
30
0
0
VERTEX
8
0
10
23.6982
20
10.50719375
30
0
0
VERTEX
8
0
10
23.207193750000002
20
10.9982
30
0
0
VERTEX
8
0
10
22.51280625
20
10.9982
30
0
0
VERTEX
8
0
10
22.021800000000002
20
10.50719375
30
0
0
VERTEX
8
0
10
22.021800000000002
20
9.812806250000001
30
0
0
VERTEX
8
0
10
22.51280625
20
9.3218
30
0
0
VERTEX
8
0
10
23.207193750000002
20
9.3218
30
0
0
SEQEND
0
POLYLINE
66
1
8
1_copper
10
0.0
20
0.0
30
0.0
70
1
0
VERTEX
8
0
10
26.7462
20
1.17680625
30
0
0
VERTEX
8
0
10
26.7462
20
1.87119375
30
0
0
VERTEX
8
0
10
26.25519375
20
2.3622
30
0
0
VERTEX
8
0
10
25.560806250000002
20
2.3622
30
0
0
VERTEX
8
0
10
25.0698
20
1.87119375
30
0
0
VERTEX
8
0
10
25.0698
20
1.17680625
30
0
0
VERTEX
8
0
10
25.560806250000002
20
0.6858000000000001
30
0
0
VERTEX
8
0
10
26.25519375
20
0.6858000000000001
30
0
0
SEQEND
0
POLYLINE
66
1
8
16_copper
10
0.0
20
0.0
30
0.0
70
1
0
VERTEX
8
0
10
26.7462
20
1.17680625
30
0
0
VERTEX
8
0
10
26.7462
20
1.87119375
30
0
0
VERTEX
8
0
10
26.25519375
20
2.3622
30
0
0
VERTEX
8
0
10
26.2128
20
2.3622
30
0
0
VERTEX
8
0
10
26.2128
20
7.112
30
0
42
0.198912367379658
0
VERTEX
8
0
10
26.123525
20
7.3275250000000005
30
0
0
VERTEX
8
0
10
23.668221875
20
9.782828125
30
0
0
VERTEX
8
0
10
23.6982
20
9.812806250000001
30
0
0
VERTEX
8
0
10
23.6982
20
10.50719375
30
0
0
VERTEX
8
0
10
23.207193750000002
20
10.9982
30
0
0
VERTEX
8
0
10
22.51280625
20
10.9982
30
0
0
VERTEX
8
0
10
22.021800000000002
20
10.50719375
30
0
0
VERTEX
8
0
10
22.021800000000002
20
9.812806250000001
30
0
0
VERTEX
8
0
10
22.51280625
20
9.3218
30
0
0
VERTEX
8
0
10
23.207193750000002
20
9.3218
30
0
0
VERTEX
8
0
10
23.237171875
20
9.351778125000001
30
0
0
VERTEX
8
0
10
25.6032
20
6.98575
30
0
0
VERTEX
8
0
10
25.6032
20
2.3622
30
0
0
VERTEX
8
0
10
25.560806250000002
20
2.3622
30
0
0
VERTEX
8
0
10
25.0698
20
1.87119375
30
0
0
VERTEX
8
0
10
25.0698
20
1.17680625
30
0
0
VERTEX
8
0
10
25.560806250000002
20
0.6858000000000001
30
0
0
VERTEX
8
0
10
26.25519375
20
0.6858000000000001
30
0
0
SEQEND
0
POLYLINE
66
1
8
1_copper
10
0.0
20
0.0
30
0.0
70
1
0
VERTEX
8
0
10
19.8882
20
9.812806250000001
30
0
0
VERTEX
8
0
10
19.8882
20
10.50719375
30
0
0
VERTEX
8
0
10
19.39719375
20
10.9982
30
0
0
VERTEX
8
0
10
18.702806250000002
20
10.9982
30
0
0
VERTEX
8
0
10
18.2118
20
10.50719375
30
0
0
VERTEX
8
0
10
18.2118
20
9.812806250000001
30
0
0
VERTEX
8
0
10
18.702806250000002
20
9.3218
30
0
0
VERTEX
8
0
10
19.39719375
20
9.3218
30
0
0
SEQEND
0
POLYLINE
66
1
8
1_copper
10
0.0
20
0.0
30
0.0
70
1
0
VERTEX
8
0
10
20.3962
20
1.17680625
30
0
0
VERTEX
8
0
10
20.3962
20
1.87119375
30
0
0
VERTEX
8
0
10
19.905193750000002
20
2.3622
30
0
0
VERTEX
8
0
10
19.21080625
20
2.3622
30
0
0
VERTEX
8
0
10
18.7198
20
1.87119375
30
0
0
VERTEX
8
0
10
18.7198
20
1.17680625
30
0
0
VERTEX
8
0
10
19.21080625
20
0.6858000000000001
30
0
0
VERTEX
8
0
10
19.905193750000002
20
0.6858000000000001
30
0
0
SEQEND
0
POLYLINE
66
1
8
16_copper
10
0.0
20
0.0
30
0.0
70
1
0
VERTEX
8
0
10
20.3962
20
1.17680625
30
0
0
VERTEX
8
0
10
20.3962
20
1.87119375
30
0
0
VERTEX
8
0
10
19.905193750000002
20
2.3622
30
0
0
VERTEX
8
0
10
19.3548
20
2.3622
30
0
0
VERTEX
8
0
10
19.3548
20
9.3218
30
0
0
VERTEX
8
0
10
19.39719375
20
9.3218
30
0
0
VERTEX
8
0
10
19.8882
20
9.812806250000001
30
0
0
VERTEX
8
0
10
19.8882
20
10.50719375
30
0
0
VERTEX
8
0
10
19.39719375
20
10.9982
30
0
0
VERTEX
8
0
10
18.702806250000002
20
10.9982
30
0
0
VERTEX
8
0
10
18.2118
20
10.50719375
30
0
0
VERTEX
8
0
10
18.2118
20
9.812806250000001
30
0
0
VERTEX
8
0
10
18.702806250000002
20
9.3218
30
0
0
VERTEX
8
0
10
18.7452
20
9.3218
30
0
0
VERTEX
8
0
10
18.7452
20
2.032
30
0
42
0.09556265816720505
0
VERTEX
8
0
10
18.767356250000002
20
1.9187500000000002
30
0
0
VERTEX
8
0
10
18.7198
20
1.87119375
30
0
0
VERTEX
8
0
10
18.7198
20
1.17680625
30
0
0
VERTEX
8
0
10
19.21080625
20
0.6858000000000001
30
0
0
VERTEX
8
0
10
19.905193750000002
20
0.6858000000000001
30
0
0
SEQEND
0
CIRCLE
8
drills_NPTH
10
-3.556
20
78.232
30
0
40
2.0500000000000003
0
CIRCLE
8
drills_NPTH
10
101.60000000000001
20
6.3500000000000005
30
0
40
2.0500000000000003
0
CIRCLE
8
drills_NPTH
10
-3.81
20
6.604
30
0
40
2.0500000000000003
0
CIRCLE
8
drills_NPTH
10
101.60000000000001
20
93.98
30
0
40
2.0500000000000003
0
CIRCLE
8
drills_PTH
10
101.60000000000001
20
50.760000000000005
30
0
40
0.5969
0
CIRCLE
8
drills_PTH
10
101.60000000000001
20
55.92
30
0
40
0.5969
0
CIRCLE
8
drills_PTH
10
101.60000000000001
20
45.760000000000005
30
0
40
0.5969
0
CIRCLE
8
drills_PTH
10
101.60000000000001
20
60.92
30
0
40
0.5969
0
CIRCLE
8
drills_PTH
10
101.60000000000001
20
40.6
30
0
40
0.5969
0
CIRCLE
8
drills_PTH
10
101.60000000000001
20
35.6
30
0
40
0.5969
0
CIRCLE
8
drills_PTH
10
101.60000000000001
20
30.44
30
0
40
0.5969
0
CIRCLE
8
drills_PTH
10
101.60000000000001
20
25.44
30
0
40
0.5969
0
CIRCLE
8
drills_PTH
10
101.60000000000001
20
66.08
30
0
40
0.5969
0
CIRCLE
8
drills_PTH
10
101.60000000000001
20
71.08
30
0
40
0.5969
0
CIRCLE
8
drills_PTH
10
101.60000000000001
20
15.280000000000001
30
0
40
0.5969
0
CIRCLE
8
drills_PTH
10
101.60000000000001
20
20.28
30
0
40
0.5969
0
CIRCLE
8
drills_PTH
10
52.07
20
91.44
30
0
40
0.5588000000000001
0
CIRCLE
8
drills_PTH
10
41.910000000000004
20
91.44
30
0
40
0.5588000000000001
0
CIRCLE
8
drills_PTH
10
52.07
20
76.2
30
0
40
0.5588000000000001
0
CIRCLE
8
drills_PTH
10
41.910000000000004
20
68.58
30
0
40
0.5588000000000001
0
CIRCLE
8
drills_PTH
10
52.07
20
68.58
30
0
40
0.5588000000000001
0
CIRCLE
8
drills_PTH
10
52.07
20
80.01
30
0
40
0.5588000000000001
0
CIRCLE
8
drills_PTH
10
41.910000000000004
20
80.01
30
0
40
0.5588000000000001
0
CIRCLE
8
drills_PTH
10
41.910000000000004
20
72.39
30
0
40
0.5588000000000001
0
CIRCLE
8
drills_PTH
10
52.07
20
72.39
30
0
40
0.5588000000000001
0
CIRCLE
8
drills_PTH
10
41.910000000000004
20
76.2
30
0
40
0.5588000000000001
0
CIRCLE
8
drills_PTH
10
41.910000000000004
20
83.82000000000001
30
0
40
0.5588000000000001
0
CIRCLE
8
drills_PTH
10
52.07
20
83.82000000000001
30
0
40
0.5588000000000001
0
CIRCLE
8
drills_PTH
10
52.07
20
95.25
30
0
40
0.5588000000000001
0
CIRCLE
8
drills_PTH
10
41.910000000000004
20
95.25
30
0
40
0.5588000000000001
0
CIRCLE
8
drills_PTH
10
41.910000000000004
20
87.63000000000001
30
0
40
0.5588000000000001
0
CIRCLE
8
drills_PTH
10
52.07
20
87.63000000000001
30
0
40
0.5588000000000001
0
CIRCLE
8
drills_PTH
10
76.708
20
50.800000000000004
30
0
40
0.508
0
CIRCLE
8
drills_PTH
10
83.312
20
21.336000000000002
30
0
40
0.508
0
CIRCLE
8
drills_PTH
10
-3.048
20
94.99600000000001
30
0
40
0.508
0
CIRCLE
8
drills_PTH
10
-3.048
20
92.456
30
0
40
0.508
0
CIRCLE
8
drills_PTH
10
-3.048
20
89.91600000000001
30
0
40
0.508
0
CIRCLE
8
drills_PTH
10
20.32
20
86.36
30
0
40
0.508
0
CIRCLE
8
drills_PTH
10
20.32
20
93.98
30
0
40
0.508
0
CIRCLE
8
drills_PTH
10
3.302
20
76.2
30
0
40
0.508
0
CIRCLE
8
drills_PTH
10
67.31
20
15.24
30
0
40
0.508
0
CIRCLE
8
drills_PTH
10
69.85000000000001
20
15.24
30
0
40
0.508
0
CIRCLE
8
drills_PTH
10
8.382
20
76.2
30
0
40
0.508
0
CIRCLE
8
drills_PTH
10
54.356
20
48.514
30
0
40
0.508
0
CIRCLE
8
drills_PTH
10
54.356
20
43.434000000000005
30
0
40
0.508
0
CIRCLE
8
drills_PTH
10
53.086000000000006
20
12.192
30
0
40
0.508
0
CIRCLE
8
drills_PTH
10
53.086000000000006
20
7.112
30
0
40
0.508
0
CIRCLE
8
drills_PTH
10
78.232
20
21.336000000000002
30
0
40
0.508
0
CIRCLE
8
drills_PTH
10
64.77
20
15.24
30
0
40
0.508
0
CIRCLE
8
drills_PTH
10
64.77
20
27.94
30
0
40
0.508
0
CIRCLE
8
drills_PTH
10
67.31
20
27.94
30
0
40
0.508
0
CIRCLE
8
drills_PTH
10
69.85000000000001
20
44.45
30
0
40
0.508
0
CIRCLE
8
drills_PTH
10
67.31
20
44.45
30
0
40
0.508
0
CIRCLE
8
drills_PTH
10
64.77
20
44.45
30
0
40
0.508
0
CIRCLE
8
drills_PTH
10
69.85000000000001
20
27.94
30
0
40
0.508
0
CIRCLE
8
drills_PTH
10
81.78800000000001
20
50.800000000000004
30
0
40
0.508
0
CIRCLE
8
drills_NPTH
10
27.178
20
8.89
30
0
40
0.5
0
CIRCLE
8
drills_NPTH
10
-0.762
20
8.89
30
0
40
0.5
0
CIRCLE
8
drills_NPTH
10
-0.762
20
63.5
30
0
40
0.5
0
CIRCLE
8
drills_PTH
10
-0.762
20
21.59
30
0
40
0.5
0
CIRCLE
8
drills_PTH
10
-0.762
20
19.05
30
0
40
0.5
0
CIRCLE
8
drills_PTH
10
27.178
20
54.61
30
0
40
0.5
0
CIRCLE
8
drills_PTH
10
27.178
20
52.07
30
0
40
0.5
0
CIRCLE
8
drills_PTH
10
27.178
20
49.53
30
0
40
0.5
0
CIRCLE
8
drills_PTH
10
27.178
20
46.99
30
0
40
0.5
0
CIRCLE
8
drills_PTH
10
27.178
20
44.45
30
0
40
0.5
0
CIRCLE
8
drills_PTH
10
27.178
20
41.910000000000004
30
0
40
0.5
0
CIRCLE
8
drills_PTH
10
27.178
20
39.370000000000005
30
0
40
0.5
0
CIRCLE
8
drills_PTH
10
27.178
20
36.83
30
0
40
0.5
0
CIRCLE
8
drills_NPTH
10
27.178
20
63.5
30
0
40
0.5
0
CIRCLE
8
drills_PTH
10
27.178
20
34.29
30
0
40
0.5
0
CIRCLE
8
drills_PTH
10
27.178
20
31.75
30
0
40
0.5
0
CIRCLE
8
drills_PTH
10
27.178
20
29.21
30
0
40
0.5
0
CIRCLE
8
drills_PTH
10
27.178
20
24.130000000000003
30
0
40
0.5
0
CIRCLE
8
drills_PTH
10
27.178
20
21.59
30
0
40
0.5
0
CIRCLE
8
drills_PTH
10
27.178
20
19.05
30
0
40
0.5
0
CIRCLE
8
drills_via_1_16
10
93.98
20
39.116
30
0
40
0.5
0
CIRCLE
8
drills_via_1_16
10
93.98
20
31.75
30
0
40
0.5
0
CIRCLE
8
drills_via_1_16
10
93.98
20
17.78
30
0
40
0.5
0
CIRCLE
8
drills_via_1_16
10
93.98
20
28.956000000000003
30
0
40
0.5
0
CIRCLE
8
drills_via_1_16
10
93.98
20
21.59
30
0
40
0.5
0
CIRCLE
8
drills_PTH
10
27.178
20
26.67
30
0
40
0.5
0
CIRCLE
8
drills_PTH
10
-0.762
20
54.61
30
0
40
0.5
0
CIRCLE
8
drills_PTH
10
-0.762
20
52.07
30
0
40
0.5
0
CIRCLE
8
drills_PTH
10
-0.762
20
49.53
30
0
40
0.5
0
CIRCLE
8
drills_PTH
10
-0.762
20
46.99
30
0
40
0.5
0
CIRCLE
8
drills_PTH
10
-0.762
20
44.45
30
0
40
0.5
0
CIRCLE
8
drills_PTH
10
-0.762
20
41.910000000000004
30
0
40
0.5
0
CIRCLE
8
drills_PTH
10
-0.762
20
39.370000000000005
30
0
40
0.5
0
CIRCLE
8
drills_PTH
10
-0.762
20
36.83
30
0
40
0.5
0
CIRCLE
8
drills_PTH
10
-0.762
20
34.29
30
0
40
0.5
0
CIRCLE
8
drills_PTH
10
-0.762
20
31.75
30
0
40
0.5
0
CIRCLE
8
drills_PTH
10
-0.762
20
29.21
30
0
40
0.5
0
CIRCLE
8
drills_PTH
10
-0.762
20
26.67
30
0
40
0.5
0
CIRCLE
8
drills_PTH
10
-0.762
20
24.130000000000003
30
0
40
0.5
0
CIRCLE
8
drills_PTH
10
22.098000000000003
20
78.232
30
0
40
0.40640000000000004
0
CIRCLE
8
drills_PTH
10
19.558
20
78.232
30
0
40
0.40640000000000004
0
CIRCLE
8
drills_PTH
10
19.558
20
70.61200000000001
30
0
40
0.40640000000000004
0
CIRCLE
8
drills_PTH
10
22.098000000000003
20
70.61200000000001
30
0
40
0.40640000000000004
0
CIRCLE
8
drills_PTH
10
17.018
20
78.232
30
0
40
0.40640000000000004
0
CIRCLE
8
drills_PTH
10
17.018
20
70.61200000000001
30
0
40
0.40640000000000004
0
CIRCLE
8
drills_PTH
10
27.94
20
80.01
30
0
40
0.40640000000000004
0
CIRCLE
8
drills_PTH
10
27.94
20
69.85000000000001
30
0
40
0.40640000000000004
0
CIRCLE
8
drills_PTH
10
19.558
20
56.896
30
0
40
0.40640000000000004
0
CIRCLE
8
drills_PTH
10
19.558
20
46.736000000000004
30
0
40
0.40640000000000004
0
CIRCLE
8
drills_PTH
10
5.588
20
1.524
30
0
40
0.40640000000000004
0
CIRCLE
8
drills_PTH
10
8.128
20
1.524
30
0
40
0.40640000000000004
0
CIRCLE
8
drills_PTH
10
6.3500000000000005
20
10.16
30
0
40
0.40640000000000004
0
CIRCLE
8
drills_PTH
10
6.3500000000000005
20
20.32
30
0
40
0.40640000000000004
0
CIRCLE
8
drills_PTH
10
36.83
20
49.53
30
0
40
0.40640000000000004
0
CIRCLE
8
drills_PTH
10
36.83
20
46.99
30
0
40
0.40640000000000004
0
CIRCLE
8
drills_PTH
10
44.45
20
46.99
30
0
40
0.40640000000000004
0
CIRCLE
8
drills_PTH
10
44.45
20
49.53
30
0
40
0.40640000000000004
0
CIRCLE
8
drills_PTH
10
36.83
20
44.45
30
0
40
0.40640000000000004
0
CIRCLE
8
drills_PTH
10
44.45
20
44.45
30
0
40
0.40640000000000004
0
CIRCLE
8
drills_PTH
10
31.75
20
36.83
30
0
40
0.40640000000000004
0
CIRCLE
8
drills_PTH
10
55.88
20
34.29
30
0
40
0.40640000000000004
0
CIRCLE
8
drills_PTH
10
48.260000000000005
20
29.21
30
0
40
0.40640000000000004
0
CIRCLE
8
drills_PTH
10
55.88
20
29.21
30
0
40
0.40640000000000004
0
CIRCLE
8
drills_PTH
10
48.260000000000005
20
31.75
30
0
40
0.40640000000000004
0
CIRCLE
8
drills_PTH
10
48.260000000000005
20
34.29
30
0
40
0.40640000000000004
0
CIRCLE
8
drills_PTH
10
88.9
20
18.542
30
0
40
0.40640000000000004
0
CIRCLE
8
drills_PTH
10
31.75
20
34.29
30
0
40
0.40640000000000004
0
CIRCLE
8
drills_PTH
10
41.910000000000004
20
34.29
30
0
40
0.40640000000000004
0
CIRCLE
8
drills_PTH
10
59.690000000000005
20
36.83
30
0
40
0.40640000000000004
0
CIRCLE
8
drills_PTH
10
74.93
20
36.83
30
0
40
0.40640000000000004
0
CIRCLE
8
drills_PTH
10
59.690000000000005
20
33.02
30
0
40
0.40640000000000004
0
CIRCLE
8
drills_PTH
10
74.93
20
33.02
30
0
40
0.40640000000000004
0
CIRCLE
8
drills_PTH
10
12.192
20
1.524
30
0
40
0.40640000000000004
0
CIRCLE
8
drills_PTH
10
14.732000000000001
20
1.524
30
0
40
0.40640000000000004
0
CIRCLE
8
drills_PTH
10
15.24
20
10.16
30
0
40
0.40640000000000004
0
CIRCLE
8
drills_PTH
10
15.24
20
20.32
30
0
40
0.40640000000000004
0
CIRCLE
8
drills_PTH
10
25.908
20
1.524
30
0
40
0.40640000000000004
0
CIRCLE
8
drills_PTH
10
28.448
20
1.524
30
0
40
0.40640000000000004
0
CIRCLE
8
drills_PTH
10
22.86
20
10.16
30
0
40
0.40640000000000004
0
CIRCLE
8
drills_PTH
10
22.86
20
20.32
30
0
40
0.40640000000000004
0
CIRCLE
8
drills_PTH
10
19.558
20
1.524
30
0
40
0.40640000000000004
0
CIRCLE
8
drills_PTH
10
22.098000000000003
20
1.524
30
0
40
0.40640000000000004
0
CIRCLE
8
drills_PTH
10
19.05
20
10.16
30
0
40
0.40640000000000004
0
CIRCLE
8
drills_PTH
10
19.05
20
20.32
30
0
40
0.40640000000000004
0
CIRCLE
8
drills_PTH
10
88.9
20
3.302
30
0
40
0.40640000000000004
0
CIRCLE
8
drills_PTH
10
63.5
20
19.05
30
0
40
0.40640000000000004
0
CIRCLE
8
drills_PTH
10
55.88
20
31.75
30
0
40
0.40640000000000004
0
CIRCLE
8
drills_PTH
10
48.260000000000005
20
19.05
30
0
40
0.40640000000000004
0
CIRCLE
8
drills_PTH
10
63.5
20
22.86
30
0
40
0.40640000000000004
0
CIRCLE
8
drills_PTH
10
48.260000000000005
20
22.86
30
0
40
0.40640000000000004
0
CIRCLE
8
drills_PTH
10
36.83
20
15.24
30
0
40
0.40640000000000004
0
CIRCLE
8
drills_PTH
10
44.45
20
20.32
30
0
40
0.40640000000000004
0
CIRCLE
8
drills_PTH
10
44.45
20
17.78
30
0
40
0.40640000000000004
0
CIRCLE
8
drills_PTH
10
36.83
20
17.78
30
0
40
0.40640000000000004
0
CIRCLE
8
drills_PTH
10
36.83
20
20.32
30
0
40
0.40640000000000004
0
CIRCLE
8
drills_PTH
10
88.138
20
50.800000000000004
30
0
40
0.40640000000000004
0
CIRCLE
8
drills_PTH
10
88.138
20
35.56
30
0
40
0.40640000000000004
0
CIRCLE
8
drills_PTH
10
63.246
20
56.134
30
0
40
0.40640000000000004
0
CIRCLE
8
drills_PTH
10
48.006
20
56.134
30
0
40
0.40640000000000004
0
CIRCLE
8
drills_PTH
10
63.246
20
61.214000000000006
30
0
40
0.40640000000000004
0
CIRCLE
8
drills_PTH
10
48.006
20
61.214000000000006
30
0
40
0.40640000000000004
0
CIRCLE
8
drills_PTH
10
41.910000000000004
20
36.83
30
0
40
0.40640000000000004
0
CIRCLE
8
drills_PTH
10
41.910000000000004
20
31.75
30
0
40
0.40640000000000004
0
CIRCLE
8
drills_PTH
10
31.75
20
31.75
30
0
40
0.40640000000000004
0
CIRCLE
8
drills_PTH
10
44.45
20
15.24
30
0
40
0.40640000000000004
0
CIRCLE
8
drills_PTH
10
31.75
20
69.85000000000001
30
0
40
0.40640000000000004
0
CIRCLE
8
drills_PTH
10
31.75
20
80.01
30
0
40
0.40640000000000004
0
ENDSEC
0
EOF